StartChar: custom_4_0_0_0_0
Encoding: 31968 31968 12000
Width: 70
Flags: H
LayerCount: 2
Fore
SplineSet
23 43 m 1
 21 43 l 1
 21 41 l 1
 23 41 l 1
 23 43 l 1
26 43 m 1
 24 43 l 1
 24 41 l 1
 25 41 l 1
 25 42 l 1
 26 42 l 1
 26 43 l 1
27 42 m 1
 26 42 l 1
 26 41 l 1
 28 41 l 1
 28 43 l 1
 27 43 l 1
 27 42 l 1
31 43 m 1
 29 43 l 1
 29 41 l 1
 31 41 l 1
 31 43 l 1
31 39 m 1
 29 39 l 1
 29 37 l 1
 31 37 l 1
 31 39 l 1
36 37 m 1
 34 37 l 1
 34 35 l 1
 36 35 l 1
 36 37 l 1
31 35 m 1
 29 35 l 1
 29 33 l 1
 31 33 l 1
 31 35 l 1
36 33 m 1
 34 33 l 1
 34 31 l 1
 36 31 l 1
 36 33 l 1
31 31 m 1
 29 31 l 1
 29 29 l 1
 31 29 l 1
 31 31 l 1
41 43 m 1
 39 43 l 1
 39 41 l 1
 41 41 l 1
 41 43 l 1
41 39 m 1
 39 39 l 1
 39 37 l 1
 41 37 l 1
 41 39 l 1
49 43 m 1
 47 43 l 1
 47 41 l 1
 49 41 l 1
 49 43 l 1
49 39 m 1
 47 39 l 1
 47 37 l 1
 49 37 l 1
 49 39 l 1
41 35 m 1
 39 35 l 1
 39 33 l 1
 41 33 l 1
 41 35 l 1
43 35 m 1
 42 35 l 1
 42 33 l 1
 44 33 l 1
 44 34 l 1
 43 34 l 1
 43 35 l 1
46 35 m 1
 44 35 l 1
 44 34 l 1
 45 34 l 1
 45 33 l 1
 46 33 l 1
 46 35 l 1
49 35 m 1
 47 35 l 1
 47 33 l 1
 49 33 l 1
 49 35 l 1
49 31 m 1
 47 31 l 1
 47 29 l 1
 49 29 l 1
 49 31 l 1
55 43 m 1
 53 43 l 1
 53 41 l 1
 55 41 l 1
 55 43 l 1
58 43 m 1
 56 43 l 1
 56 41 l 1
 57 41 l 1
 57 42 l 1
 58 42 l 1
 58 43 l 1
59 42 m 1
 58 42 l 1
 58 41 l 1
 60 41 l 1
 60 43 l 1
 59 43 l 1
 59 42 l 1
55 39 m 1
 53 39 l 1
 53 37 l 1
 55 37 l 1
 55 39 l 1
63 43 m 1
 61 43 l 1
 61 41 l 1
 63 41 l 1
 63 43 l 1
63 39 m 1
 61 39 l 1
 61 37 l 1
 63 37 l 1
 63 39 l 1
55 35 m 1
 53 35 l 1
 53 33 l 1
 55 33 l 1
 55 35 l 1
55 31 m 1
 53 31 l 1
 53 29 l 1
 55 29 l 1
 55 31 l 1
63 35 m 1
 61 35 l 1
 61 33 l 1
 63 33 l 1
 63 35 l 1
63 31 m 1
 61 31 l 1
 61 29 l 1
 63 29 l 1
 63 31 l 1
31 27 m 1
 29 27 l 1
 29 25 l 1
 31 25 l 1
 31 27 l 1
49 27 m 1
 47 27 l 1
 47 25 l 1
 49 25 l 1
 49 27 l 1
55 27 m 1
 53 27 l 1
 53 25 l 1
 55 25 l 1
 55 27 l 1
58 27 m 1
 56 27 l 1
 56 25 l 1
 57 25 l 1
 57 26 l 1
 58 26 l 1
 58 27 l 1
59 26 m 1
 58 26 l 1
 58 25 l 1
 60 25 l 1
 60 27 l 1
 59 27 l 1
 59 26 l 1
63 27 m 1
 61 27 l 1
 61 25 l 1
 63 25 l 1
 63 27 l 1
EndSplineSet
EndChar

StartChar: custom_4_0_0_0_1
Encoding: 31969 31969 12001
Width: 70
Flags: H
LayerCount: 2
Fore
SplineSet
23 43 m 1
 21 43 l 1
 21 41 l 1
 23 41 l 1
 23 43 l 1
26 43 m 1
 24 43 l 1
 24 41 l 1
 25 41 l 1
 25 42 l 1
 26 42 l 1
 26 43 l 1
27 42 m 1
 26 42 l 1
 26 41 l 1
 28 41 l 1
 28 43 l 1
 27 43 l 1
 27 42 l 1
31 43 m 1
 29 43 l 1
 29 41 l 1
 31 41 l 1
 31 43 l 1
31 39 m 1
 29 39 l 1
 29 37 l 1
 31 37 l 1
 31 39 l 1
36 37 m 1
 34 37 l 1
 34 35 l 1
 36 35 l 1
 36 37 l 1
31 35 m 1
 29 35 l 1
 29 33 l 1
 31 33 l 1
 31 35 l 1
36 33 m 1
 34 33 l 1
 34 31 l 1
 36 31 l 1
 36 33 l 1
31 31 m 1
 29 31 l 1
 29 29 l 1
 31 29 l 1
 31 31 l 1
41 43 m 1
 39 43 l 1
 39 41 l 1
 41 41 l 1
 41 43 l 1
41 39 m 1
 39 39 l 1
 39 37 l 1
 41 37 l 1
 41 39 l 1
49 43 m 1
 47 43 l 1
 47 41 l 1
 49 41 l 1
 49 43 l 1
49 39 m 1
 47 39 l 1
 47 37 l 1
 49 37 l 1
 49 39 l 1
41 35 m 1
 39 35 l 1
 39 33 l 1
 41 33 l 1
 41 35 l 1
43 35 m 1
 42 35 l 1
 42 33 l 1
 44 33 l 1
 44 34 l 1
 43 34 l 1
 43 35 l 1
46 35 m 1
 44 35 l 1
 44 34 l 1
 45 34 l 1
 45 33 l 1
 46 33 l 1
 46 35 l 1
49 35 m 1
 47 35 l 1
 47 33 l 1
 49 33 l 1
 49 35 l 1
49 31 m 1
 47 31 l 1
 47 29 l 1
 49 29 l 1
 49 31 l 1
55 43 m 1
 53 43 l 1
 53 41 l 1
 55 41 l 1
 55 43 l 1
58 43 m 1
 56 43 l 1
 56 41 l 1
 57 41 l 1
 57 42 l 1
 58 42 l 1
 58 43 l 1
59 42 m 1
 58 42 l 1
 58 41 l 1
 60 41 l 1
 60 43 l 1
 59 43 l 1
 59 42 l 1
55 39 m 1
 53 39 l 1
 53 37 l 1
 55 37 l 1
 55 39 l 1
63 43 m 1
 61 43 l 1
 61 41 l 1
 63 41 l 1
 63 43 l 1
63 39 m 1
 61 39 l 1
 61 37 l 1
 63 37 l 1
 63 39 l 1
55 35 m 1
 53 35 l 1
 53 33 l 1
 55 33 l 1
 55 35 l 1
55 31 m 1
 53 31 l 1
 53 29 l 1
 55 29 l 1
 55 31 l 1
63 35 m 1
 61 35 l 1
 61 33 l 1
 63 33 l 1
 63 35 l 1
63 31 m 1
 61 31 l 1
 61 29 l 1
 63 29 l 1
 63 31 l 1
31 27 m 1
 29 27 l 1
 29 25 l 1
 31 25 l 1
 31 27 l 1
49 27 m 1
 47 27 l 1
 47 25 l 1
 49 25 l 1
 49 27 l 1
55 27 m 1
 53 27 l 1
 53 25 l 1
 55 25 l 1
 55 27 l 1
58 27 m 1
 56 27 l 1
 56 25 l 1
 57 25 l 1
 57 26 l 1
 58 26 l 1
 58 27 l 1
59 26 m 1
 58 26 l 1
 58 25 l 1
 60 25 l 1
 60 27 l 1
 59 27 l 1
 59 26 l 1
63 27 m 1
 61 27 l 1
 61 25 l 1
 63 25 l 1
 63 27 l 1
EndSplineSet
EndChar

StartChar: custom_4_0_0_0_2
Encoding: 31970 31970 12002
Width: 70
Flags: H
LayerCount: 2
Fore
SplineSet
23 43 m 1
 21 43 l 1
 21 41 l 1
 23 41 l 1
 23 43 l 1
26 43 m 1
 24 43 l 1
 24 41 l 1
 25 41 l 1
 25 42 l 1
 26 42 l 1
 26 43 l 1
27 42 m 1
 26 42 l 1
 26 41 l 1
 28 41 l 1
 28 43 l 1
 27 43 l 1
 27 42 l 1
31 43 m 1
 29 43 l 1
 29 41 l 1
 31 41 l 1
 31 43 l 1
31 39 m 1
 29 39 l 1
 29 37 l 1
 31 37 l 1
 31 39 l 1
36 37 m 1
 34 37 l 1
 34 35 l 1
 36 35 l 1
 36 37 l 1
31 35 m 1
 29 35 l 1
 29 33 l 1
 31 33 l 1
 31 35 l 1
36 33 m 1
 34 33 l 1
 34 31 l 1
 36 31 l 1
 36 33 l 1
31 31 m 1
 29 31 l 1
 29 29 l 1
 31 29 l 1
 31 31 l 1
41 43 m 1
 39 43 l 1
 39 41 l 1
 41 41 l 1
 41 43 l 1
41 39 m 1
 39 39 l 1
 39 37 l 1
 41 37 l 1
 41 39 l 1
49 43 m 1
 47 43 l 1
 47 41 l 1
 49 41 l 1
 49 43 l 1
49 39 m 1
 47 39 l 1
 47 37 l 1
 49 37 l 1
 49 39 l 1
41 35 m 1
 39 35 l 1
 39 33 l 1
 41 33 l 1
 41 35 l 1
43 35 m 1
 42 35 l 1
 42 33 l 1
 44 33 l 1
 44 34 l 1
 43 34 l 1
 43 35 l 1
46 35 m 1
 44 35 l 1
 44 34 l 1
 45 34 l 1
 45 33 l 1
 46 33 l 1
 46 35 l 1
49 35 m 1
 47 35 l 1
 47 33 l 1
 49 33 l 1
 49 35 l 1
49 31 m 1
 47 31 l 1
 47 29 l 1
 49 29 l 1
 49 31 l 1
55 43 m 1
 53 43 l 1
 53 41 l 1
 55 41 l 1
 55 43 l 1
58 43 m 1
 56 43 l 1
 56 41 l 1
 57 41 l 1
 57 42 l 1
 58 42 l 1
 58 43 l 1
59 42 m 1
 58 42 l 1
 58 41 l 1
 60 41 l 1
 60 43 l 1
 59 43 l 1
 59 42 l 1
55 39 m 1
 53 39 l 1
 53 37 l 1
 55 37 l 1
 55 39 l 1
63 43 m 1
 61 43 l 1
 61 41 l 1
 63 41 l 1
 63 43 l 1
63 39 m 1
 61 39 l 1
 61 37 l 1
 63 37 l 1
 63 39 l 1
55 35 m 1
 53 35 l 1
 53 33 l 1
 55 33 l 1
 55 35 l 1
55 31 m 1
 53 31 l 1
 53 29 l 1
 55 29 l 1
 55 31 l 1
63 35 m 1
 61 35 l 1
 61 33 l 1
 63 33 l 1
 63 35 l 1
63 31 m 1
 61 31 l 1
 61 29 l 1
 63 29 l 1
 63 31 l 1
31 27 m 1
 29 27 l 1
 29 25 l 1
 31 25 l 1
 31 27 l 1
49 27 m 1
 47 27 l 1
 47 25 l 1
 49 25 l 1
 49 27 l 1
55 27 m 1
 53 27 l 1
 53 25 l 1
 55 25 l 1
 55 27 l 1
58 27 m 1
 56 27 l 1
 56 25 l 1
 57 25 l 1
 57 26 l 1
 58 26 l 1
 58 27 l 1
59 26 m 1
 58 26 l 1
 58 25 l 1
 60 25 l 1
 60 27 l 1
 59 27 l 1
 59 26 l 1
63 27 m 1
 61 27 l 1
 61 25 l 1
 63 25 l 1
 63 27 l 1
EndSplineSet
EndChar

StartChar: custom_4_0_0_0_3
Encoding: 31971 31971 12003
Width: 70
Flags: H
LayerCount: 2
Fore
SplineSet
23 43 m 1
 21 43 l 1
 21 41 l 1
 23 41 l 1
 23 43 l 1
26 43 m 1
 24 43 l 1
 24 41 l 1
 25 41 l 1
 25 42 l 1
 26 42 l 1
 26 43 l 1
27 42 m 1
 26 42 l 1
 26 41 l 1
 28 41 l 1
 28 43 l 1
 27 43 l 1
 27 42 l 1
31 43 m 1
 29 43 l 1
 29 41 l 1
 31 41 l 1
 31 43 l 1
31 39 m 1
 29 39 l 1
 29 37 l 1
 31 37 l 1
 31 39 l 1
36 37 m 1
 34 37 l 1
 34 35 l 1
 36 35 l 1
 36 37 l 1
31 35 m 1
 29 35 l 1
 29 33 l 1
 31 33 l 1
 31 35 l 1
36 33 m 1
 34 33 l 1
 34 31 l 1
 36 31 l 1
 36 33 l 1
31 31 m 1
 29 31 l 1
 29 29 l 1
 31 29 l 1
 31 31 l 1
41 43 m 1
 39 43 l 1
 39 41 l 1
 41 41 l 1
 41 43 l 1
41 39 m 1
 39 39 l 1
 39 37 l 1
 41 37 l 1
 41 39 l 1
49 43 m 1
 47 43 l 1
 47 41 l 1
 49 41 l 1
 49 43 l 1
49 39 m 1
 47 39 l 1
 47 37 l 1
 49 37 l 1
 49 39 l 1
41 35 m 1
 39 35 l 1
 39 33 l 1
 41 33 l 1
 41 35 l 1
43 35 m 1
 42 35 l 1
 42 33 l 1
 44 33 l 1
 44 34 l 1
 43 34 l 1
 43 35 l 1
46 35 m 1
 44 35 l 1
 44 34 l 1
 45 34 l 1
 45 33 l 1
 46 33 l 1
 46 35 l 1
49 35 m 1
 47 35 l 1
 47 33 l 1
 49 33 l 1
 49 35 l 1
49 31 m 1
 47 31 l 1
 47 29 l 1
 49 29 l 1
 49 31 l 1
55 43 m 1
 53 43 l 1
 53 41 l 1
 55 41 l 1
 55 43 l 1
58 43 m 1
 56 43 l 1
 56 41 l 1
 57 41 l 1
 57 42 l 1
 58 42 l 1
 58 43 l 1
59 42 m 1
 58 42 l 1
 58 41 l 1
 60 41 l 1
 60 43 l 1
 59 43 l 1
 59 42 l 1
55 39 m 1
 53 39 l 1
 53 37 l 1
 55 37 l 1
 55 39 l 1
63 43 m 1
 61 43 l 1
 61 41 l 1
 63 41 l 1
 63 43 l 1
63 39 m 1
 61 39 l 1
 61 37 l 1
 63 37 l 1
 63 39 l 1
55 35 m 1
 53 35 l 1
 53 33 l 1
 55 33 l 1
 55 35 l 1
55 31 m 1
 53 31 l 1
 53 29 l 1
 55 29 l 1
 55 31 l 1
63 35 m 1
 61 35 l 1
 61 33 l 1
 63 33 l 1
 63 35 l 1
63 31 m 1
 61 31 l 1
 61 29 l 1
 63 29 l 1
 63 31 l 1
31 27 m 1
 29 27 l 1
 29 25 l 1
 31 25 l 1
 31 27 l 1
49 27 m 1
 47 27 l 1
 47 25 l 1
 49 25 l 1
 49 27 l 1
55 27 m 1
 53 27 l 1
 53 25 l 1
 55 25 l 1
 55 27 l 1
58 27 m 1
 56 27 l 1
 56 25 l 1
 57 25 l 1
 57 26 l 1
 58 26 l 1
 58 27 l 1
59 26 m 1
 58 26 l 1
 58 25 l 1
 60 25 l 1
 60 27 l 1
 59 27 l 1
 59 26 l 1
63 27 m 1
 61 27 l 1
 61 25 l 1
 63 25 l 1
 63 27 l 1
EndSplineSet
EndChar

StartChar: custom_4_0_0_0_4
Encoding: 31972 31972 12004
Width: 70
Flags: H
LayerCount: 2
Fore
SplineSet
23 43 m 1
 21 43 l 1
 21 41 l 1
 23 41 l 1
 23 43 l 1
26 43 m 1
 24 43 l 1
 24 41 l 1
 25 41 l 1
 25 42 l 1
 26 42 l 1
 26 43 l 1
27 42 m 1
 26 42 l 1
 26 41 l 1
 28 41 l 1
 28 43 l 1
 27 43 l 1
 27 42 l 1
31 43 m 1
 29 43 l 1
 29 41 l 1
 31 41 l 1
 31 43 l 1
31 39 m 1
 29 39 l 1
 29 37 l 1
 31 37 l 1
 31 39 l 1
36 37 m 1
 34 37 l 1
 34 35 l 1
 36 35 l 1
 36 37 l 1
31 35 m 1
 29 35 l 1
 29 33 l 1
 31 33 l 1
 31 35 l 1
36 33 m 1
 34 33 l 1
 34 31 l 1
 36 31 l 1
 36 33 l 1
31 31 m 1
 29 31 l 1
 29 29 l 1
 31 29 l 1
 31 31 l 1
41 43 m 1
 39 43 l 1
 39 41 l 1
 41 41 l 1
 41 43 l 1
41 39 m 1
 39 39 l 1
 39 37 l 1
 41 37 l 1
 41 39 l 1
49 43 m 1
 47 43 l 1
 47 41 l 1
 49 41 l 1
 49 43 l 1
49 39 m 1
 47 39 l 1
 47 37 l 1
 49 37 l 1
 49 39 l 1
41 35 m 1
 39 35 l 1
 39 33 l 1
 41 33 l 1
 41 35 l 1
43 35 m 1
 42 35 l 1
 42 33 l 1
 44 33 l 1
 44 34 l 1
 43 34 l 1
 43 35 l 1
46 35 m 1
 44 35 l 1
 44 34 l 1
 45 34 l 1
 45 33 l 1
 46 33 l 1
 46 35 l 1
49 35 m 1
 47 35 l 1
 47 33 l 1
 49 33 l 1
 49 35 l 1
49 31 m 1
 47 31 l 1
 47 29 l 1
 49 29 l 1
 49 31 l 1
55 43 m 1
 53 43 l 1
 53 41 l 1
 55 41 l 1
 55 43 l 1
58 43 m 1
 56 43 l 1
 56 41 l 1
 57 41 l 1
 57 42 l 1
 58 42 l 1
 58 43 l 1
59 42 m 1
 58 42 l 1
 58 41 l 1
 60 41 l 1
 60 43 l 1
 59 43 l 1
 59 42 l 1
55 39 m 1
 53 39 l 1
 53 37 l 1
 55 37 l 1
 55 39 l 1
63 43 m 1
 61 43 l 1
 61 41 l 1
 63 41 l 1
 63 43 l 1
63 39 m 1
 61 39 l 1
 61 37 l 1
 63 37 l 1
 63 39 l 1
55 35 m 1
 53 35 l 1
 53 33 l 1
 55 33 l 1
 55 35 l 1
55 31 m 1
 53 31 l 1
 53 29 l 1
 55 29 l 1
 55 31 l 1
63 35 m 1
 61 35 l 1
 61 33 l 1
 63 33 l 1
 63 35 l 1
63 31 m 1
 61 31 l 1
 61 29 l 1
 63 29 l 1
 63 31 l 1
31 27 m 1
 29 27 l 1
 29 25 l 1
 31 25 l 1
 31 27 l 1
49 27 m 1
 47 27 l 1
 47 25 l 1
 49 25 l 1
 49 27 l 1
55 27 m 1
 53 27 l 1
 53 25 l 1
 55 25 l 1
 55 27 l 1
58 27 m 1
 56 27 l 1
 56 25 l 1
 57 25 l 1
 57 26 l 1
 58 26 l 1
 58 27 l 1
59 26 m 1
 58 26 l 1
 58 25 l 1
 60 25 l 1
 60 27 l 1
 59 27 l 1
 59 26 l 1
63 27 m 1
 61 27 l 1
 61 25 l 1
 63 25 l 1
 63 27 l 1
EndSplineSet
EndChar

StartChar: custom_4_0_0_0_5
Encoding: 31973 31973 12005
Width: 70
Flags: H
LayerCount: 2
Fore
SplineSet
23 43 m 1
 21 43 l 1
 21 41 l 1
 23 41 l 1
 23 43 l 1
26 43 m 1
 24 43 l 1
 24 41 l 1
 25 41 l 1
 25 42 l 1
 26 42 l 1
 26 43 l 1
27 42 m 1
 26 42 l 1
 26 41 l 1
 28 41 l 1
 28 43 l 1
 27 43 l 1
 27 42 l 1
31 43 m 1
 29 43 l 1
 29 41 l 1
 31 41 l 1
 31 43 l 1
31 39 m 1
 29 39 l 1
 29 37 l 1
 31 37 l 1
 31 39 l 1
36 37 m 1
 34 37 l 1
 34 35 l 1
 36 35 l 1
 36 37 l 1
31 35 m 1
 29 35 l 1
 29 33 l 1
 31 33 l 1
 31 35 l 1
36 33 m 1
 34 33 l 1
 34 31 l 1
 36 31 l 1
 36 33 l 1
31 31 m 1
 29 31 l 1
 29 29 l 1
 31 29 l 1
 31 31 l 1
41 43 m 1
 39 43 l 1
 39 41 l 1
 41 41 l 1
 41 43 l 1
41 39 m 1
 39 39 l 1
 39 37 l 1
 41 37 l 1
 41 39 l 1
49 43 m 1
 47 43 l 1
 47 41 l 1
 49 41 l 1
 49 43 l 1
49 39 m 1
 47 39 l 1
 47 37 l 1
 49 37 l 1
 49 39 l 1
41 35 m 1
 39 35 l 1
 39 33 l 1
 41 33 l 1
 41 35 l 1
43 35 m 1
 42 35 l 1
 42 33 l 1
 44 33 l 1
 44 34 l 1
 43 34 l 1
 43 35 l 1
46 35 m 1
 44 35 l 1
 44 34 l 1
 45 34 l 1
 45 33 l 1
 46 33 l 1
 46 35 l 1
49 35 m 1
 47 35 l 1
 47 33 l 1
 49 33 l 1
 49 35 l 1
49 31 m 1
 47 31 l 1
 47 29 l 1
 49 29 l 1
 49 31 l 1
55 43 m 1
 53 43 l 1
 53 41 l 1
 55 41 l 1
 55 43 l 1
58 43 m 1
 56 43 l 1
 56 41 l 1
 57 41 l 1
 57 42 l 1
 58 42 l 1
 58 43 l 1
59 42 m 1
 58 42 l 1
 58 41 l 1
 60 41 l 1
 60 43 l 1
 59 43 l 1
 59 42 l 1
55 39 m 1
 53 39 l 1
 53 37 l 1
 55 37 l 1
 55 39 l 1
63 43 m 1
 61 43 l 1
 61 41 l 1
 63 41 l 1
 63 43 l 1
63 39 m 1
 61 39 l 1
 61 37 l 1
 63 37 l 1
 63 39 l 1
55 35 m 1
 53 35 l 1
 53 33 l 1
 55 33 l 1
 55 35 l 1
55 31 m 1
 53 31 l 1
 53 29 l 1
 55 29 l 1
 55 31 l 1
63 35 m 1
 61 35 l 1
 61 33 l 1
 63 33 l 1
 63 35 l 1
63 31 m 1
 61 31 l 1
 61 29 l 1
 63 29 l 1
 63 31 l 1
31 27 m 1
 29 27 l 1
 29 25 l 1
 31 25 l 1
 31 27 l 1
49 27 m 1
 47 27 l 1
 47 25 l 1
 49 25 l 1
 49 27 l 1
55 27 m 1
 53 27 l 1
 53 25 l 1
 55 25 l 1
 55 27 l 1
58 27 m 1
 56 27 l 1
 56 25 l 1
 57 25 l 1
 57 26 l 1
 58 26 l 1
 58 27 l 1
59 26 m 1
 58 26 l 1
 58 25 l 1
 60 25 l 1
 60 27 l 1
 59 27 l 1
 59 26 l 1
63 27 m 1
 61 27 l 1
 61 25 l 1
 63 25 l 1
 63 27 l 1
EndSplineSet
EndChar

StartChar: custom_4_0_0_0_6
Encoding: 31974 31974 12006
Width: 70
Flags: H
LayerCount: 2
Fore
SplineSet
23 43 m 1
 21 43 l 1
 21 41 l 1
 23 41 l 1
 23 43 l 1
26 43 m 1
 24 43 l 1
 24 41 l 1
 25 41 l 1
 25 42 l 1
 26 42 l 1
 26 43 l 1
27 42 m 1
 26 42 l 1
 26 41 l 1
 28 41 l 1
 28 43 l 1
 27 43 l 1
 27 42 l 1
31 43 m 1
 29 43 l 1
 29 41 l 1
 31 41 l 1
 31 43 l 1
31 39 m 1
 29 39 l 1
 29 37 l 1
 31 37 l 1
 31 39 l 1
36 37 m 1
 34 37 l 1
 34 35 l 1
 36 35 l 1
 36 37 l 1
31 35 m 1
 29 35 l 1
 29 33 l 1
 31 33 l 1
 31 35 l 1
36 33 m 1
 34 33 l 1
 34 31 l 1
 36 31 l 1
 36 33 l 1
31 31 m 1
 29 31 l 1
 29 29 l 1
 31 29 l 1
 31 31 l 1
41 43 m 1
 39 43 l 1
 39 41 l 1
 41 41 l 1
 41 43 l 1
41 39 m 1
 39 39 l 1
 39 37 l 1
 41 37 l 1
 41 39 l 1
49 43 m 1
 47 43 l 1
 47 41 l 1
 49 41 l 1
 49 43 l 1
49 39 m 1
 47 39 l 1
 47 37 l 1
 49 37 l 1
 49 39 l 1
41 35 m 1
 39 35 l 1
 39 33 l 1
 41 33 l 1
 41 35 l 1
43 35 m 1
 42 35 l 1
 42 33 l 1
 44 33 l 1
 44 34 l 1
 43 34 l 1
 43 35 l 1
46 35 m 1
 44 35 l 1
 44 34 l 1
 45 34 l 1
 45 33 l 1
 46 33 l 1
 46 35 l 1
49 35 m 1
 47 35 l 1
 47 33 l 1
 49 33 l 1
 49 35 l 1
49 31 m 1
 47 31 l 1
 47 29 l 1
 49 29 l 1
 49 31 l 1
55 43 m 1
 53 43 l 1
 53 41 l 1
 55 41 l 1
 55 43 l 1
58 43 m 1
 56 43 l 1
 56 41 l 1
 57 41 l 1
 57 42 l 1
 58 42 l 1
 58 43 l 1
59 42 m 1
 58 42 l 1
 58 41 l 1
 60 41 l 1
 60 43 l 1
 59 43 l 1
 59 42 l 1
55 39 m 1
 53 39 l 1
 53 37 l 1
 55 37 l 1
 55 39 l 1
63 43 m 1
 61 43 l 1
 61 41 l 1
 63 41 l 1
 63 43 l 1
63 39 m 1
 61 39 l 1
 61 37 l 1
 63 37 l 1
 63 39 l 1
55 35 m 1
 53 35 l 1
 53 33 l 1
 55 33 l 1
 55 35 l 1
55 31 m 1
 53 31 l 1
 53 29 l 1
 55 29 l 1
 55 31 l 1
63 35 m 1
 61 35 l 1
 61 33 l 1
 63 33 l 1
 63 35 l 1
63 31 m 1
 61 31 l 1
 61 29 l 1
 63 29 l 1
 63 31 l 1
31 27 m 1
 29 27 l 1
 29 25 l 1
 31 25 l 1
 31 27 l 1
49 27 m 1
 47 27 l 1
 47 25 l 1
 49 25 l 1
 49 27 l 1
55 27 m 1
 53 27 l 1
 53 25 l 1
 55 25 l 1
 55 27 l 1
58 27 m 1
 56 27 l 1
 56 25 l 1
 57 25 l 1
 57 26 l 1
 58 26 l 1
 58 27 l 1
59 26 m 1
 58 26 l 1
 58 25 l 1
 60 25 l 1
 60 27 l 1
 59 27 l 1
 59 26 l 1
63 27 m 1
 61 27 l 1
 61 25 l 1
 63 25 l 1
 63 27 l 1
EndSplineSet
EndChar

StartChar: custom_4_0_0_0_7
Encoding: 31975 31975 12007
Width: 70
Flags: H
LayerCount: 2
Fore
SplineSet
23 43 m 1
 21 43 l 1
 21 41 l 1
 23 41 l 1
 23 43 l 1
26 43 m 1
 24 43 l 1
 24 41 l 1
 25 41 l 1
 25 42 l 1
 26 42 l 1
 26 43 l 1
27 42 m 1
 26 42 l 1
 26 41 l 1
 28 41 l 1
 28 43 l 1
 27 43 l 1
 27 42 l 1
31 43 m 1
 29 43 l 1
 29 41 l 1
 31 41 l 1
 31 43 l 1
31 39 m 1
 29 39 l 1
 29 37 l 1
 31 37 l 1
 31 39 l 1
36 37 m 1
 34 37 l 1
 34 35 l 1
 36 35 l 1
 36 37 l 1
31 35 m 1
 29 35 l 1
 29 33 l 1
 31 33 l 1
 31 35 l 1
36 33 m 1
 34 33 l 1
 34 31 l 1
 36 31 l 1
 36 33 l 1
31 31 m 1
 29 31 l 1
 29 29 l 1
 31 29 l 1
 31 31 l 1
41 43 m 1
 39 43 l 1
 39 41 l 1
 41 41 l 1
 41 43 l 1
41 39 m 1
 39 39 l 1
 39 37 l 1
 41 37 l 1
 41 39 l 1
49 43 m 1
 47 43 l 1
 47 41 l 1
 49 41 l 1
 49 43 l 1
49 39 m 1
 47 39 l 1
 47 37 l 1
 49 37 l 1
 49 39 l 1
41 35 m 1
 39 35 l 1
 39 33 l 1
 41 33 l 1
 41 35 l 1
43 35 m 1
 42 35 l 1
 42 33 l 1
 44 33 l 1
 44 34 l 1
 43 34 l 1
 43 35 l 1
46 35 m 1
 44 35 l 1
 44 34 l 1
 45 34 l 1
 45 33 l 1
 46 33 l 1
 46 35 l 1
49 35 m 1
 47 35 l 1
 47 33 l 1
 49 33 l 1
 49 35 l 1
49 31 m 1
 47 31 l 1
 47 29 l 1
 49 29 l 1
 49 31 l 1
55 43 m 1
 53 43 l 1
 53 41 l 1
 55 41 l 1
 55 43 l 1
58 43 m 1
 56 43 l 1
 56 41 l 1
 57 41 l 1
 57 42 l 1
 58 42 l 1
 58 43 l 1
59 42 m 1
 58 42 l 1
 58 41 l 1
 60 41 l 1
 60 43 l 1
 59 43 l 1
 59 42 l 1
55 39 m 1
 53 39 l 1
 53 37 l 1
 55 37 l 1
 55 39 l 1
63 43 m 1
 61 43 l 1
 61 41 l 1
 63 41 l 1
 63 43 l 1
63 39 m 1
 61 39 l 1
 61 37 l 1
 63 37 l 1
 63 39 l 1
55 35 m 1
 53 35 l 1
 53 33 l 1
 55 33 l 1
 55 35 l 1
55 31 m 1
 53 31 l 1
 53 29 l 1
 55 29 l 1
 55 31 l 1
63 35 m 1
 61 35 l 1
 61 33 l 1
 63 33 l 1
 63 35 l 1
63 31 m 1
 61 31 l 1
 61 29 l 1
 63 29 l 1
 63 31 l 1
31 27 m 1
 29 27 l 1
 29 25 l 1
 31 25 l 1
 31 27 l 1
49 27 m 1
 47 27 l 1
 47 25 l 1
 49 25 l 1
 49 27 l 1
55 27 m 1
 53 27 l 1
 53 25 l 1
 55 25 l 1
 55 27 l 1
58 27 m 1
 56 27 l 1
 56 25 l 1
 57 25 l 1
 57 26 l 1
 58 26 l 1
 58 27 l 1
59 26 m 1
 58 26 l 1
 58 25 l 1
 60 25 l 1
 60 27 l 1
 59 27 l 1
 59 26 l 1
63 27 m 1
 61 27 l 1
 61 25 l 1
 63 25 l 1
 63 27 l 1
EndSplineSet
EndChar

StartChar: custom_4_0_0_0_8
Encoding: 31976 31976 12008
Width: 70
Flags: H
LayerCount: 2
Fore
SplineSet
23 43 m 1
 21 43 l 1
 21 41 l 1
 23 41 l 1
 23 43 l 1
26 43 m 1
 24 43 l 1
 24 41 l 1
 25 41 l 1
 25 42 l 1
 26 42 l 1
 26 43 l 1
27 42 m 1
 26 42 l 1
 26 41 l 1
 28 41 l 1
 28 43 l 1
 27 43 l 1
 27 42 l 1
31 43 m 1
 29 43 l 1
 29 41 l 1
 31 41 l 1
 31 43 l 1
31 39 m 1
 29 39 l 1
 29 37 l 1
 31 37 l 1
 31 39 l 1
36 37 m 1
 34 37 l 1
 34 35 l 1
 36 35 l 1
 36 37 l 1
31 35 m 1
 29 35 l 1
 29 33 l 1
 31 33 l 1
 31 35 l 1
36 33 m 1
 34 33 l 1
 34 31 l 1
 36 31 l 1
 36 33 l 1
31 31 m 1
 29 31 l 1
 29 29 l 1
 31 29 l 1
 31 31 l 1
41 43 m 1
 39 43 l 1
 39 41 l 1
 41 41 l 1
 41 43 l 1
41 39 m 1
 39 39 l 1
 39 37 l 1
 41 37 l 1
 41 39 l 1
49 43 m 1
 47 43 l 1
 47 41 l 1
 49 41 l 1
 49 43 l 1
49 39 m 1
 47 39 l 1
 47 37 l 1
 49 37 l 1
 49 39 l 1
41 35 m 1
 39 35 l 1
 39 33 l 1
 41 33 l 1
 41 35 l 1
43 35 m 1
 42 35 l 1
 42 33 l 1
 44 33 l 1
 44 34 l 1
 43 34 l 1
 43 35 l 1
46 35 m 1
 44 35 l 1
 44 34 l 1
 45 34 l 1
 45 33 l 1
 46 33 l 1
 46 35 l 1
49 35 m 1
 47 35 l 1
 47 33 l 1
 49 33 l 1
 49 35 l 1
49 31 m 1
 47 31 l 1
 47 29 l 1
 49 29 l 1
 49 31 l 1
55 43 m 1
 53 43 l 1
 53 41 l 1
 55 41 l 1
 55 43 l 1
58 43 m 1
 56 43 l 1
 56 41 l 1
 57 41 l 1
 57 42 l 1
 58 42 l 1
 58 43 l 1
59 42 m 1
 58 42 l 1
 58 41 l 1
 60 41 l 1
 60 43 l 1
 59 43 l 1
 59 42 l 1
55 39 m 1
 53 39 l 1
 53 37 l 1
 55 37 l 1
 55 39 l 1
63 43 m 1
 61 43 l 1
 61 41 l 1
 63 41 l 1
 63 43 l 1
63 39 m 1
 61 39 l 1
 61 37 l 1
 63 37 l 1
 63 39 l 1
55 35 m 1
 53 35 l 1
 53 33 l 1
 55 33 l 1
 55 35 l 1
55 31 m 1
 53 31 l 1
 53 29 l 1
 55 29 l 1
 55 31 l 1
63 35 m 1
 61 35 l 1
 61 33 l 1
 63 33 l 1
 63 35 l 1
63 31 m 1
 61 31 l 1
 61 29 l 1
 63 29 l 1
 63 31 l 1
31 27 m 1
 29 27 l 1
 29 25 l 1
 31 25 l 1
 31 27 l 1
49 27 m 1
 47 27 l 1
 47 25 l 1
 49 25 l 1
 49 27 l 1
55 27 m 1
 53 27 l 1
 53 25 l 1
 55 25 l 1
 55 27 l 1
58 27 m 1
 56 27 l 1
 56 25 l 1
 57 25 l 1
 57 26 l 1
 58 26 l 1
 58 27 l 1
59 26 m 1
 58 26 l 1
 58 25 l 1
 60 25 l 1
 60 27 l 1
 59 27 l 1
 59 26 l 1
63 27 m 1
 61 27 l 1
 61 25 l 1
 63 25 l 1
 63 27 l 1
EndSplineSet
EndChar

StartChar: custom_4_0_0_0_9
Encoding: 31977 31977 12009
Width: 70
Flags: H
LayerCount: 2
Fore
SplineSet
23 43 m 1
 21 43 l 1
 21 41 l 1
 23 41 l 1
 23 43 l 1
26 43 m 1
 24 43 l 1
 24 41 l 1
 25 41 l 1
 25 42 l 1
 26 42 l 1
 26 43 l 1
27 42 m 1
 26 42 l 1
 26 41 l 1
 28 41 l 1
 28 43 l 1
 27 43 l 1
 27 42 l 1
31 43 m 1
 29 43 l 1
 29 41 l 1
 31 41 l 1
 31 43 l 1
31 39 m 1
 29 39 l 1
 29 37 l 1
 31 37 l 1
 31 39 l 1
36 37 m 1
 34 37 l 1
 34 35 l 1
 36 35 l 1
 36 37 l 1
31 35 m 1
 29 35 l 1
 29 33 l 1
 31 33 l 1
 31 35 l 1
36 33 m 1
 34 33 l 1
 34 31 l 1
 36 31 l 1
 36 33 l 1
31 31 m 1
 29 31 l 1
 29 29 l 1
 31 29 l 1
 31 31 l 1
41 43 m 1
 39 43 l 1
 39 41 l 1
 41 41 l 1
 41 43 l 1
41 39 m 1
 39 39 l 1
 39 37 l 1
 41 37 l 1
 41 39 l 1
49 43 m 1
 47 43 l 1
 47 41 l 1
 49 41 l 1
 49 43 l 1
49 39 m 1
 47 39 l 1
 47 37 l 1
 49 37 l 1
 49 39 l 1
41 35 m 1
 39 35 l 1
 39 33 l 1
 41 33 l 1
 41 35 l 1
43 35 m 1
 42 35 l 1
 42 33 l 1
 44 33 l 1
 44 34 l 1
 43 34 l 1
 43 35 l 1
46 35 m 1
 44 35 l 1
 44 34 l 1
 45 34 l 1
 45 33 l 1
 46 33 l 1
 46 35 l 1
49 35 m 1
 47 35 l 1
 47 33 l 1
 49 33 l 1
 49 35 l 1
49 31 m 1
 47 31 l 1
 47 29 l 1
 49 29 l 1
 49 31 l 1
55 43 m 1
 53 43 l 1
 53 41 l 1
 55 41 l 1
 55 43 l 1
58 43 m 1
 56 43 l 1
 56 41 l 1
 57 41 l 1
 57 42 l 1
 58 42 l 1
 58 43 l 1
59 42 m 1
 58 42 l 1
 58 41 l 1
 60 41 l 1
 60 43 l 1
 59 43 l 1
 59 42 l 1
55 39 m 1
 53 39 l 1
 53 37 l 1
 55 37 l 1
 55 39 l 1
63 43 m 1
 61 43 l 1
 61 41 l 1
 63 41 l 1
 63 43 l 1
63 39 m 1
 61 39 l 1
 61 37 l 1
 63 37 l 1
 63 39 l 1
55 35 m 1
 53 35 l 1
 53 33 l 1
 55 33 l 1
 55 35 l 1
55 31 m 1
 53 31 l 1
 53 29 l 1
 55 29 l 1
 55 31 l 1
63 35 m 1
 61 35 l 1
 61 33 l 1
 63 33 l 1
 63 35 l 1
63 31 m 1
 61 31 l 1
 61 29 l 1
 63 29 l 1
 63 31 l 1
31 27 m 1
 29 27 l 1
 29 25 l 1
 31 25 l 1
 31 27 l 1
49 27 m 1
 47 27 l 1
 47 25 l 1
 49 25 l 1
 49 27 l 1
55 27 m 1
 53 27 l 1
 53 25 l 1
 55 25 l 1
 55 27 l 1
58 27 m 1
 56 27 l 1
 56 25 l 1
 57 25 l 1
 57 26 l 1
 58 26 l 1
 58 27 l 1
59 26 m 1
 58 26 l 1
 58 25 l 1
 60 25 l 1
 60 27 l 1
 59 27 l 1
 59 26 l 1
63 27 m 1
 61 27 l 1
 61 25 l 1
 63 25 l 1
 63 27 l 1
EndSplineSet
EndChar

StartChar: custom_4_0_0_1_0
Encoding: 31978 31978 12010
Width: 70
Flags: H
LayerCount: 2
Fore
SplineSet
23 43 m 1
 21 43 l 1
 21 41 l 1
 23 41 l 1
 23 43 l 1
26 43 m 1
 24 43 l 1
 24 41 l 1
 25 41 l 1
 25 42 l 1
 26 42 l 1
 26 43 l 1
27 42 m 1
 26 42 l 1
 26 41 l 1
 28 41 l 1
 28 43 l 1
 27 43 l 1
 27 42 l 1
31 43 m 1
 29 43 l 1
 29 41 l 1
 31 41 l 1
 31 43 l 1
31 39 m 1
 29 39 l 1
 29 37 l 1
 31 37 l 1
 31 39 l 1
36 37 m 1
 34 37 l 1
 34 35 l 1
 36 35 l 1
 36 37 l 1
31 35 m 1
 29 35 l 1
 29 33 l 1
 31 33 l 1
 31 35 l 1
36 33 m 1
 34 33 l 1
 34 31 l 1
 36 31 l 1
 36 33 l 1
31 31 m 1
 29 31 l 1
 29 29 l 1
 31 29 l 1
 31 31 l 1
41 43 m 1
 39 43 l 1
 39 41 l 1
 41 41 l 1
 41 43 l 1
41 39 m 1
 39 39 l 1
 39 37 l 1
 41 37 l 1
 41 39 l 1
49 43 m 1
 47 43 l 1
 47 41 l 1
 49 41 l 1
 49 43 l 1
49 39 m 1
 47 39 l 1
 47 37 l 1
 49 37 l 1
 49 39 l 1
41 35 m 1
 39 35 l 1
 39 33 l 1
 41 33 l 1
 41 35 l 1
43 35 m 1
 42 35 l 1
 42 33 l 1
 44 33 l 1
 44 34 l 1
 43 34 l 1
 43 35 l 1
46 35 m 1
 44 35 l 1
 44 34 l 1
 45 34 l 1
 45 33 l 1
 46 33 l 1
 46 35 l 1
49 35 m 1
 47 35 l 1
 47 33 l 1
 49 33 l 1
 49 35 l 1
49 31 m 1
 47 31 l 1
 47 29 l 1
 49 29 l 1
 49 31 l 1
55 43 m 1
 53 43 l 1
 53 41 l 1
 55 41 l 1
 55 43 l 1
58 43 m 1
 56 43 l 1
 56 41 l 1
 57 41 l 1
 57 42 l 1
 58 42 l 1
 58 43 l 1
59 42 m 1
 58 42 l 1
 58 41 l 1
 60 41 l 1
 60 43 l 1
 59 43 l 1
 59 42 l 1
55 39 m 1
 53 39 l 1
 53 37 l 1
 55 37 l 1
 55 39 l 1
63 43 m 1
 61 43 l 1
 61 41 l 1
 63 41 l 1
 63 43 l 1
63 39 m 1
 61 39 l 1
 61 37 l 1
 63 37 l 1
 63 39 l 1
55 35 m 1
 53 35 l 1
 53 33 l 1
 55 33 l 1
 55 35 l 1
55 31 m 1
 53 31 l 1
 53 29 l 1
 55 29 l 1
 55 31 l 1
63 35 m 1
 61 35 l 1
 61 33 l 1
 63 33 l 1
 63 35 l 1
63 31 m 1
 61 31 l 1
 61 29 l 1
 63 29 l 1
 63 31 l 1
31 27 m 1
 29 27 l 1
 29 25 l 1
 31 25 l 1
 31 27 l 1
49 27 m 1
 47 27 l 1
 47 25 l 1
 49 25 l 1
 49 27 l 1
55 27 m 1
 53 27 l 1
 53 25 l 1
 55 25 l 1
 55 27 l 1
58 27 m 1
 56 27 l 1
 56 25 l 1
 57 25 l 1
 57 26 l 1
 58 26 l 1
 58 27 l 1
59 26 m 1
 58 26 l 1
 58 25 l 1
 60 25 l 1
 60 27 l 1
 59 27 l 1
 59 26 l 1
63 27 m 1
 61 27 l 1
 61 25 l 1
 63 25 l 1
 63 27 l 1
EndSplineSet
EndChar

StartChar: custom_4_0_0_1_1
Encoding: 31979 31979 12011
Width: 70
Flags: H
LayerCount: 2
Fore
SplineSet
23 43 m 1
 21 43 l 1
 21 41 l 1
 23 41 l 1
 23 43 l 1
26 43 m 1
 24 43 l 1
 24 41 l 1
 25 41 l 1
 25 42 l 1
 26 42 l 1
 26 43 l 1
27 42 m 1
 26 42 l 1
 26 41 l 1
 28 41 l 1
 28 43 l 1
 27 43 l 1
 27 42 l 1
31 43 m 1
 29 43 l 1
 29 41 l 1
 31 41 l 1
 31 43 l 1
31 39 m 1
 29 39 l 1
 29 37 l 1
 31 37 l 1
 31 39 l 1
36 37 m 1
 34 37 l 1
 34 35 l 1
 36 35 l 1
 36 37 l 1
31 35 m 1
 29 35 l 1
 29 33 l 1
 31 33 l 1
 31 35 l 1
36 33 m 1
 34 33 l 1
 34 31 l 1
 36 31 l 1
 36 33 l 1
31 31 m 1
 29 31 l 1
 29 29 l 1
 31 29 l 1
 31 31 l 1
41 43 m 1
 39 43 l 1
 39 41 l 1
 41 41 l 1
 41 43 l 1
41 39 m 1
 39 39 l 1
 39 37 l 1
 41 37 l 1
 41 39 l 1
49 43 m 1
 47 43 l 1
 47 41 l 1
 49 41 l 1
 49 43 l 1
49 39 m 1
 47 39 l 1
 47 37 l 1
 49 37 l 1
 49 39 l 1
41 35 m 1
 39 35 l 1
 39 33 l 1
 41 33 l 1
 41 35 l 1
43 35 m 1
 42 35 l 1
 42 33 l 1
 44 33 l 1
 44 34 l 1
 43 34 l 1
 43 35 l 1
46 35 m 1
 44 35 l 1
 44 34 l 1
 45 34 l 1
 45 33 l 1
 46 33 l 1
 46 35 l 1
49 35 m 1
 47 35 l 1
 47 33 l 1
 49 33 l 1
 49 35 l 1
49 31 m 1
 47 31 l 1
 47 29 l 1
 49 29 l 1
 49 31 l 1
55 43 m 1
 53 43 l 1
 53 41 l 1
 55 41 l 1
 55 43 l 1
58 43 m 1
 56 43 l 1
 56 41 l 1
 57 41 l 1
 57 42 l 1
 58 42 l 1
 58 43 l 1
59 42 m 1
 58 42 l 1
 58 41 l 1
 60 41 l 1
 60 43 l 1
 59 43 l 1
 59 42 l 1
55 39 m 1
 53 39 l 1
 53 37 l 1
 55 37 l 1
 55 39 l 1
63 43 m 1
 61 43 l 1
 61 41 l 1
 63 41 l 1
 63 43 l 1
63 39 m 1
 61 39 l 1
 61 37 l 1
 63 37 l 1
 63 39 l 1
55 35 m 1
 53 35 l 1
 53 33 l 1
 55 33 l 1
 55 35 l 1
55 31 m 1
 53 31 l 1
 53 29 l 1
 55 29 l 1
 55 31 l 1
63 35 m 1
 61 35 l 1
 61 33 l 1
 63 33 l 1
 63 35 l 1
63 31 m 1
 61 31 l 1
 61 29 l 1
 63 29 l 1
 63 31 l 1
31 27 m 1
 29 27 l 1
 29 25 l 1
 31 25 l 1
 31 27 l 1
49 27 m 1
 47 27 l 1
 47 25 l 1
 49 25 l 1
 49 27 l 1
55 27 m 1
 53 27 l 1
 53 25 l 1
 55 25 l 1
 55 27 l 1
58 27 m 1
 56 27 l 1
 56 25 l 1
 57 25 l 1
 57 26 l 1
 58 26 l 1
 58 27 l 1
59 26 m 1
 58 26 l 1
 58 25 l 1
 60 25 l 1
 60 27 l 1
 59 27 l 1
 59 26 l 1
63 27 m 1
 61 27 l 1
 61 25 l 1
 63 25 l 1
 63 27 l 1
EndSplineSet
EndChar

StartChar: custom_4_0_0_1_2
Encoding: 31980 31980 12012
Width: 70
Flags: H
LayerCount: 2
Fore
SplineSet
23 43 m 1
 21 43 l 1
 21 41 l 1
 23 41 l 1
 23 43 l 1
26 43 m 1
 24 43 l 1
 24 41 l 1
 25 41 l 1
 25 42 l 1
 26 42 l 1
 26 43 l 1
27 42 m 1
 26 42 l 1
 26 41 l 1
 28 41 l 1
 28 43 l 1
 27 43 l 1
 27 42 l 1
31 43 m 1
 29 43 l 1
 29 41 l 1
 31 41 l 1
 31 43 l 1
31 39 m 1
 29 39 l 1
 29 37 l 1
 31 37 l 1
 31 39 l 1
36 37 m 1
 34 37 l 1
 34 35 l 1
 36 35 l 1
 36 37 l 1
31 35 m 1
 29 35 l 1
 29 33 l 1
 31 33 l 1
 31 35 l 1
36 33 m 1
 34 33 l 1
 34 31 l 1
 36 31 l 1
 36 33 l 1
31 31 m 1
 29 31 l 1
 29 29 l 1
 31 29 l 1
 31 31 l 1
41 43 m 1
 39 43 l 1
 39 41 l 1
 41 41 l 1
 41 43 l 1
41 39 m 1
 39 39 l 1
 39 37 l 1
 41 37 l 1
 41 39 l 1
49 43 m 1
 47 43 l 1
 47 41 l 1
 49 41 l 1
 49 43 l 1
49 39 m 1
 47 39 l 1
 47 37 l 1
 49 37 l 1
 49 39 l 1
41 35 m 1
 39 35 l 1
 39 33 l 1
 41 33 l 1
 41 35 l 1
43 35 m 1
 42 35 l 1
 42 33 l 1
 44 33 l 1
 44 34 l 1
 43 34 l 1
 43 35 l 1
46 35 m 1
 44 35 l 1
 44 34 l 1
 45 34 l 1
 45 33 l 1
 46 33 l 1
 46 35 l 1
49 35 m 1
 47 35 l 1
 47 33 l 1
 49 33 l 1
 49 35 l 1
49 31 m 1
 47 31 l 1
 47 29 l 1
 49 29 l 1
 49 31 l 1
55 43 m 1
 53 43 l 1
 53 41 l 1
 55 41 l 1
 55 43 l 1
58 43 m 1
 56 43 l 1
 56 41 l 1
 57 41 l 1
 57 42 l 1
 58 42 l 1
 58 43 l 1
59 42 m 1
 58 42 l 1
 58 41 l 1
 60 41 l 1
 60 43 l 1
 59 43 l 1
 59 42 l 1
55 39 m 1
 53 39 l 1
 53 37 l 1
 55 37 l 1
 55 39 l 1
63 43 m 1
 61 43 l 1
 61 41 l 1
 63 41 l 1
 63 43 l 1
63 39 m 1
 61 39 l 1
 61 37 l 1
 63 37 l 1
 63 39 l 1
55 35 m 1
 53 35 l 1
 53 33 l 1
 55 33 l 1
 55 35 l 1
55 31 m 1
 53 31 l 1
 53 29 l 1
 55 29 l 1
 55 31 l 1
63 35 m 1
 61 35 l 1
 61 33 l 1
 63 33 l 1
 63 35 l 1
63 31 m 1
 61 31 l 1
 61 29 l 1
 63 29 l 1
 63 31 l 1
31 27 m 1
 29 27 l 1
 29 25 l 1
 31 25 l 1
 31 27 l 1
49 27 m 1
 47 27 l 1
 47 25 l 1
 49 25 l 1
 49 27 l 1
55 27 m 1
 53 27 l 1
 53 25 l 1
 55 25 l 1
 55 27 l 1
58 27 m 1
 56 27 l 1
 56 25 l 1
 57 25 l 1
 57 26 l 1
 58 26 l 1
 58 27 l 1
59 26 m 1
 58 26 l 1
 58 25 l 1
 60 25 l 1
 60 27 l 1
 59 27 l 1
 59 26 l 1
63 27 m 1
 61 27 l 1
 61 25 l 1
 63 25 l 1
 63 27 l 1
EndSplineSet
EndChar

StartChar: custom_4_0_0_1_3
Encoding: 31981 31981 12013
Width: 70
Flags: H
LayerCount: 2
Fore
SplineSet
23 43 m 1
 21 43 l 1
 21 41 l 1
 23 41 l 1
 23 43 l 1
26 43 m 1
 24 43 l 1
 24 41 l 1
 25 41 l 1
 25 42 l 1
 26 42 l 1
 26 43 l 1
27 42 m 1
 26 42 l 1
 26 41 l 1
 28 41 l 1
 28 43 l 1
 27 43 l 1
 27 42 l 1
31 43 m 1
 29 43 l 1
 29 41 l 1
 31 41 l 1
 31 43 l 1
31 39 m 1
 29 39 l 1
 29 37 l 1
 31 37 l 1
 31 39 l 1
36 37 m 1
 34 37 l 1
 34 35 l 1
 36 35 l 1
 36 37 l 1
31 35 m 1
 29 35 l 1
 29 33 l 1
 31 33 l 1
 31 35 l 1
36 33 m 1
 34 33 l 1
 34 31 l 1
 36 31 l 1
 36 33 l 1
31 31 m 1
 29 31 l 1
 29 29 l 1
 31 29 l 1
 31 31 l 1
41 43 m 1
 39 43 l 1
 39 41 l 1
 41 41 l 1
 41 43 l 1
41 39 m 1
 39 39 l 1
 39 37 l 1
 41 37 l 1
 41 39 l 1
49 43 m 1
 47 43 l 1
 47 41 l 1
 49 41 l 1
 49 43 l 1
49 39 m 1
 47 39 l 1
 47 37 l 1
 49 37 l 1
 49 39 l 1
41 35 m 1
 39 35 l 1
 39 33 l 1
 41 33 l 1
 41 35 l 1
43 35 m 1
 42 35 l 1
 42 33 l 1
 44 33 l 1
 44 34 l 1
 43 34 l 1
 43 35 l 1
46 35 m 1
 44 35 l 1
 44 34 l 1
 45 34 l 1
 45 33 l 1
 46 33 l 1
 46 35 l 1
49 35 m 1
 47 35 l 1
 47 33 l 1
 49 33 l 1
 49 35 l 1
49 31 m 1
 47 31 l 1
 47 29 l 1
 49 29 l 1
 49 31 l 1
55 43 m 1
 53 43 l 1
 53 41 l 1
 55 41 l 1
 55 43 l 1
58 43 m 1
 56 43 l 1
 56 41 l 1
 57 41 l 1
 57 42 l 1
 58 42 l 1
 58 43 l 1
59 42 m 1
 58 42 l 1
 58 41 l 1
 60 41 l 1
 60 43 l 1
 59 43 l 1
 59 42 l 1
55 39 m 1
 53 39 l 1
 53 37 l 1
 55 37 l 1
 55 39 l 1
63 43 m 1
 61 43 l 1
 61 41 l 1
 63 41 l 1
 63 43 l 1
63 39 m 1
 61 39 l 1
 61 37 l 1
 63 37 l 1
 63 39 l 1
55 35 m 1
 53 35 l 1
 53 33 l 1
 55 33 l 1
 55 35 l 1
55 31 m 1
 53 31 l 1
 53 29 l 1
 55 29 l 1
 55 31 l 1
63 35 m 1
 61 35 l 1
 61 33 l 1
 63 33 l 1
 63 35 l 1
63 31 m 1
 61 31 l 1
 61 29 l 1
 63 29 l 1
 63 31 l 1
31 27 m 1
 29 27 l 1
 29 25 l 1
 31 25 l 1
 31 27 l 1
49 27 m 1
 47 27 l 1
 47 25 l 1
 49 25 l 1
 49 27 l 1
55 27 m 1
 53 27 l 1
 53 25 l 1
 55 25 l 1
 55 27 l 1
58 27 m 1
 56 27 l 1
 56 25 l 1
 57 25 l 1
 57 26 l 1
 58 26 l 1
 58 27 l 1
59 26 m 1
 58 26 l 1
 58 25 l 1
 60 25 l 1
 60 27 l 1
 59 27 l 1
 59 26 l 1
63 27 m 1
 61 27 l 1
 61 25 l 1
 63 25 l 1
 63 27 l 1
EndSplineSet
EndChar

StartChar: custom_4_0_0_1_4
Encoding: 31982 31982 12014
Width: 70
Flags: H
LayerCount: 2
Fore
SplineSet
23 43 m 1
 21 43 l 1
 21 41 l 1
 23 41 l 1
 23 43 l 1
26 43 m 1
 24 43 l 1
 24 41 l 1
 25 41 l 1
 25 42 l 1
 26 42 l 1
 26 43 l 1
27 42 m 1
 26 42 l 1
 26 41 l 1
 28 41 l 1
 28 43 l 1
 27 43 l 1
 27 42 l 1
31 43 m 1
 29 43 l 1
 29 41 l 1
 31 41 l 1
 31 43 l 1
31 39 m 1
 29 39 l 1
 29 37 l 1
 31 37 l 1
 31 39 l 1
36 37 m 1
 34 37 l 1
 34 35 l 1
 36 35 l 1
 36 37 l 1
31 35 m 1
 29 35 l 1
 29 33 l 1
 31 33 l 1
 31 35 l 1
36 33 m 1
 34 33 l 1
 34 31 l 1
 36 31 l 1
 36 33 l 1
31 31 m 1
 29 31 l 1
 29 29 l 1
 31 29 l 1
 31 31 l 1
41 43 m 1
 39 43 l 1
 39 41 l 1
 41 41 l 1
 41 43 l 1
41 39 m 1
 39 39 l 1
 39 37 l 1
 41 37 l 1
 41 39 l 1
49 43 m 1
 47 43 l 1
 47 41 l 1
 49 41 l 1
 49 43 l 1
49 39 m 1
 47 39 l 1
 47 37 l 1
 49 37 l 1
 49 39 l 1
41 35 m 1
 39 35 l 1
 39 33 l 1
 41 33 l 1
 41 35 l 1
43 35 m 1
 42 35 l 1
 42 33 l 1
 44 33 l 1
 44 34 l 1
 43 34 l 1
 43 35 l 1
46 35 m 1
 44 35 l 1
 44 34 l 1
 45 34 l 1
 45 33 l 1
 46 33 l 1
 46 35 l 1
49 35 m 1
 47 35 l 1
 47 33 l 1
 49 33 l 1
 49 35 l 1
49 31 m 1
 47 31 l 1
 47 29 l 1
 49 29 l 1
 49 31 l 1
55 43 m 1
 53 43 l 1
 53 41 l 1
 55 41 l 1
 55 43 l 1
58 43 m 1
 56 43 l 1
 56 41 l 1
 57 41 l 1
 57 42 l 1
 58 42 l 1
 58 43 l 1
59 42 m 1
 58 42 l 1
 58 41 l 1
 60 41 l 1
 60 43 l 1
 59 43 l 1
 59 42 l 1
55 39 m 1
 53 39 l 1
 53 37 l 1
 55 37 l 1
 55 39 l 1
63 43 m 1
 61 43 l 1
 61 41 l 1
 63 41 l 1
 63 43 l 1
63 39 m 1
 61 39 l 1
 61 37 l 1
 63 37 l 1
 63 39 l 1
55 35 m 1
 53 35 l 1
 53 33 l 1
 55 33 l 1
 55 35 l 1
55 31 m 1
 53 31 l 1
 53 29 l 1
 55 29 l 1
 55 31 l 1
63 35 m 1
 61 35 l 1
 61 33 l 1
 63 33 l 1
 63 35 l 1
63 31 m 1
 61 31 l 1
 61 29 l 1
 63 29 l 1
 63 31 l 1
31 27 m 1
 29 27 l 1
 29 25 l 1
 31 25 l 1
 31 27 l 1
49 27 m 1
 47 27 l 1
 47 25 l 1
 49 25 l 1
 49 27 l 1
55 27 m 1
 53 27 l 1
 53 25 l 1
 55 25 l 1
 55 27 l 1
58 27 m 1
 56 27 l 1
 56 25 l 1
 57 25 l 1
 57 26 l 1
 58 26 l 1
 58 27 l 1
59 26 m 1
 58 26 l 1
 58 25 l 1
 60 25 l 1
 60 27 l 1
 59 27 l 1
 59 26 l 1
63 27 m 1
 61 27 l 1
 61 25 l 1
 63 25 l 1
 63 27 l 1
EndSplineSet
EndChar

StartChar: custom_4_0_0_1_5
Encoding: 31983 31983 12015
Width: 70
Flags: H
LayerCount: 2
Fore
SplineSet
23 43 m 1
 21 43 l 1
 21 41 l 1
 23 41 l 1
 23 43 l 1
26 43 m 1
 24 43 l 1
 24 41 l 1
 25 41 l 1
 25 42 l 1
 26 42 l 1
 26 43 l 1
27 42 m 1
 26 42 l 1
 26 41 l 1
 28 41 l 1
 28 43 l 1
 27 43 l 1
 27 42 l 1
31 43 m 1
 29 43 l 1
 29 41 l 1
 31 41 l 1
 31 43 l 1
31 39 m 1
 29 39 l 1
 29 37 l 1
 31 37 l 1
 31 39 l 1
36 37 m 1
 34 37 l 1
 34 35 l 1
 36 35 l 1
 36 37 l 1
31 35 m 1
 29 35 l 1
 29 33 l 1
 31 33 l 1
 31 35 l 1
36 33 m 1
 34 33 l 1
 34 31 l 1
 36 31 l 1
 36 33 l 1
31 31 m 1
 29 31 l 1
 29 29 l 1
 31 29 l 1
 31 31 l 1
41 43 m 1
 39 43 l 1
 39 41 l 1
 41 41 l 1
 41 43 l 1
41 39 m 1
 39 39 l 1
 39 37 l 1
 41 37 l 1
 41 39 l 1
49 43 m 1
 47 43 l 1
 47 41 l 1
 49 41 l 1
 49 43 l 1
49 39 m 1
 47 39 l 1
 47 37 l 1
 49 37 l 1
 49 39 l 1
41 35 m 1
 39 35 l 1
 39 33 l 1
 41 33 l 1
 41 35 l 1
43 35 m 1
 42 35 l 1
 42 33 l 1
 44 33 l 1
 44 34 l 1
 43 34 l 1
 43 35 l 1
46 35 m 1
 44 35 l 1
 44 34 l 1
 45 34 l 1
 45 33 l 1
 46 33 l 1
 46 35 l 1
49 35 m 1
 47 35 l 1
 47 33 l 1
 49 33 l 1
 49 35 l 1
49 31 m 1
 47 31 l 1
 47 29 l 1
 49 29 l 1
 49 31 l 1
55 43 m 1
 53 43 l 1
 53 41 l 1
 55 41 l 1
 55 43 l 1
58 43 m 1
 56 43 l 1
 56 41 l 1
 57 41 l 1
 57 42 l 1
 58 42 l 1
 58 43 l 1
59 42 m 1
 58 42 l 1
 58 41 l 1
 60 41 l 1
 60 43 l 1
 59 43 l 1
 59 42 l 1
55 39 m 1
 53 39 l 1
 53 37 l 1
 55 37 l 1
 55 39 l 1
63 43 m 1
 61 43 l 1
 61 41 l 1
 63 41 l 1
 63 43 l 1
63 39 m 1
 61 39 l 1
 61 37 l 1
 63 37 l 1
 63 39 l 1
55 35 m 1
 53 35 l 1
 53 33 l 1
 55 33 l 1
 55 35 l 1
55 31 m 1
 53 31 l 1
 53 29 l 1
 55 29 l 1
 55 31 l 1
63 35 m 1
 61 35 l 1
 61 33 l 1
 63 33 l 1
 63 35 l 1
63 31 m 1
 61 31 l 1
 61 29 l 1
 63 29 l 1
 63 31 l 1
31 27 m 1
 29 27 l 1
 29 25 l 1
 31 25 l 1
 31 27 l 1
49 27 m 1
 47 27 l 1
 47 25 l 1
 49 25 l 1
 49 27 l 1
55 27 m 1
 53 27 l 1
 53 25 l 1
 55 25 l 1
 55 27 l 1
58 27 m 1
 56 27 l 1
 56 25 l 1
 57 25 l 1
 57 26 l 1
 58 26 l 1
 58 27 l 1
59 26 m 1
 58 26 l 1
 58 25 l 1
 60 25 l 1
 60 27 l 1
 59 27 l 1
 59 26 l 1
63 27 m 1
 61 27 l 1
 61 25 l 1
 63 25 l 1
 63 27 l 1
EndSplineSet
EndChar

StartChar: custom_4_0_0_1_6
Encoding: 31984 31984 12016
Width: 70
Flags: H
LayerCount: 2
Fore
SplineSet
23 43 m 1
 21 43 l 1
 21 41 l 1
 23 41 l 1
 23 43 l 1
26 43 m 1
 24 43 l 1
 24 41 l 1
 25 41 l 1
 25 42 l 1
 26 42 l 1
 26 43 l 1
27 42 m 1
 26 42 l 1
 26 41 l 1
 28 41 l 1
 28 43 l 1
 27 43 l 1
 27 42 l 1
31 43 m 1
 29 43 l 1
 29 41 l 1
 31 41 l 1
 31 43 l 1
31 39 m 1
 29 39 l 1
 29 37 l 1
 31 37 l 1
 31 39 l 1
36 37 m 1
 34 37 l 1
 34 35 l 1
 36 35 l 1
 36 37 l 1
31 35 m 1
 29 35 l 1
 29 33 l 1
 31 33 l 1
 31 35 l 1
36 33 m 1
 34 33 l 1
 34 31 l 1
 36 31 l 1
 36 33 l 1
31 31 m 1
 29 31 l 1
 29 29 l 1
 31 29 l 1
 31 31 l 1
41 43 m 1
 39 43 l 1
 39 41 l 1
 41 41 l 1
 41 43 l 1
41 39 m 1
 39 39 l 1
 39 37 l 1
 41 37 l 1
 41 39 l 1
49 43 m 1
 47 43 l 1
 47 41 l 1
 49 41 l 1
 49 43 l 1
49 39 m 1
 47 39 l 1
 47 37 l 1
 49 37 l 1
 49 39 l 1
41 35 m 1
 39 35 l 1
 39 33 l 1
 41 33 l 1
 41 35 l 1
43 35 m 1
 42 35 l 1
 42 33 l 1
 44 33 l 1
 44 34 l 1
 43 34 l 1
 43 35 l 1
46 35 m 1
 44 35 l 1
 44 34 l 1
 45 34 l 1
 45 33 l 1
 46 33 l 1
 46 35 l 1
49 35 m 1
 47 35 l 1
 47 33 l 1
 49 33 l 1
 49 35 l 1
49 31 m 1
 47 31 l 1
 47 29 l 1
 49 29 l 1
 49 31 l 1
55 43 m 1
 53 43 l 1
 53 41 l 1
 55 41 l 1
 55 43 l 1
58 43 m 1
 56 43 l 1
 56 41 l 1
 57 41 l 1
 57 42 l 1
 58 42 l 1
 58 43 l 1
59 42 m 1
 58 42 l 1
 58 41 l 1
 60 41 l 1
 60 43 l 1
 59 43 l 1
 59 42 l 1
55 39 m 1
 53 39 l 1
 53 37 l 1
 55 37 l 1
 55 39 l 1
63 43 m 1
 61 43 l 1
 61 41 l 1
 63 41 l 1
 63 43 l 1
63 39 m 1
 61 39 l 1
 61 37 l 1
 63 37 l 1
 63 39 l 1
55 35 m 1
 53 35 l 1
 53 33 l 1
 55 33 l 1
 55 35 l 1
55 31 m 1
 53 31 l 1
 53 29 l 1
 55 29 l 1
 55 31 l 1
63 35 m 1
 61 35 l 1
 61 33 l 1
 63 33 l 1
 63 35 l 1
63 31 m 1
 61 31 l 1
 61 29 l 1
 63 29 l 1
 63 31 l 1
31 27 m 1
 29 27 l 1
 29 25 l 1
 31 25 l 1
 31 27 l 1
49 27 m 1
 47 27 l 1
 47 25 l 1
 49 25 l 1
 49 27 l 1
55 27 m 1
 53 27 l 1
 53 25 l 1
 55 25 l 1
 55 27 l 1
58 27 m 1
 56 27 l 1
 56 25 l 1
 57 25 l 1
 57 26 l 1
 58 26 l 1
 58 27 l 1
59 26 m 1
 58 26 l 1
 58 25 l 1
 60 25 l 1
 60 27 l 1
 59 27 l 1
 59 26 l 1
63 27 m 1
 61 27 l 1
 61 25 l 1
 63 25 l 1
 63 27 l 1
EndSplineSet
EndChar

StartChar: custom_4_0_0_1_7
Encoding: 31985 31985 12017
Width: 70
Flags: H
LayerCount: 2
Fore
SplineSet
23 43 m 1
 21 43 l 1
 21 41 l 1
 23 41 l 1
 23 43 l 1
26 43 m 1
 24 43 l 1
 24 41 l 1
 25 41 l 1
 25 42 l 1
 26 42 l 1
 26 43 l 1
27 42 m 1
 26 42 l 1
 26 41 l 1
 28 41 l 1
 28 43 l 1
 27 43 l 1
 27 42 l 1
31 43 m 1
 29 43 l 1
 29 41 l 1
 31 41 l 1
 31 43 l 1
31 39 m 1
 29 39 l 1
 29 37 l 1
 31 37 l 1
 31 39 l 1
36 37 m 1
 34 37 l 1
 34 35 l 1
 36 35 l 1
 36 37 l 1
31 35 m 1
 29 35 l 1
 29 33 l 1
 31 33 l 1
 31 35 l 1
36 33 m 1
 34 33 l 1
 34 31 l 1
 36 31 l 1
 36 33 l 1
31 31 m 1
 29 31 l 1
 29 29 l 1
 31 29 l 1
 31 31 l 1
41 43 m 1
 39 43 l 1
 39 41 l 1
 41 41 l 1
 41 43 l 1
41 39 m 1
 39 39 l 1
 39 37 l 1
 41 37 l 1
 41 39 l 1
49 43 m 1
 47 43 l 1
 47 41 l 1
 49 41 l 1
 49 43 l 1
49 39 m 1
 47 39 l 1
 47 37 l 1
 49 37 l 1
 49 39 l 1
41 35 m 1
 39 35 l 1
 39 33 l 1
 41 33 l 1
 41 35 l 1
43 35 m 1
 42 35 l 1
 42 33 l 1
 44 33 l 1
 44 34 l 1
 43 34 l 1
 43 35 l 1
46 35 m 1
 44 35 l 1
 44 34 l 1
 45 34 l 1
 45 33 l 1
 46 33 l 1
 46 35 l 1
49 35 m 1
 47 35 l 1
 47 33 l 1
 49 33 l 1
 49 35 l 1
49 31 m 1
 47 31 l 1
 47 29 l 1
 49 29 l 1
 49 31 l 1
55 43 m 1
 53 43 l 1
 53 41 l 1
 55 41 l 1
 55 43 l 1
58 43 m 1
 56 43 l 1
 56 41 l 1
 57 41 l 1
 57 42 l 1
 58 42 l 1
 58 43 l 1
59 42 m 1
 58 42 l 1
 58 41 l 1
 60 41 l 1
 60 43 l 1
 59 43 l 1
 59 42 l 1
55 39 m 1
 53 39 l 1
 53 37 l 1
 55 37 l 1
 55 39 l 1
63 43 m 1
 61 43 l 1
 61 41 l 1
 63 41 l 1
 63 43 l 1
63 39 m 1
 61 39 l 1
 61 37 l 1
 63 37 l 1
 63 39 l 1
55 35 m 1
 53 35 l 1
 53 33 l 1
 55 33 l 1
 55 35 l 1
55 31 m 1
 53 31 l 1
 53 29 l 1
 55 29 l 1
 55 31 l 1
63 35 m 1
 61 35 l 1
 61 33 l 1
 63 33 l 1
 63 35 l 1
63 31 m 1
 61 31 l 1
 61 29 l 1
 63 29 l 1
 63 31 l 1
31 27 m 1
 29 27 l 1
 29 25 l 1
 31 25 l 1
 31 27 l 1
49 27 m 1
 47 27 l 1
 47 25 l 1
 49 25 l 1
 49 27 l 1
55 27 m 1
 53 27 l 1
 53 25 l 1
 55 25 l 1
 55 27 l 1
58 27 m 1
 56 27 l 1
 56 25 l 1
 57 25 l 1
 57 26 l 1
 58 26 l 1
 58 27 l 1
59 26 m 1
 58 26 l 1
 58 25 l 1
 60 25 l 1
 60 27 l 1
 59 27 l 1
 59 26 l 1
63 27 m 1
 61 27 l 1
 61 25 l 1
 63 25 l 1
 63 27 l 1
EndSplineSet
EndChar

StartChar: custom_4_0_0_1_8
Encoding: 31986 31986 12018
Width: 70
Flags: H
LayerCount: 2
Fore
SplineSet
23 43 m 1
 21 43 l 1
 21 41 l 1
 23 41 l 1
 23 43 l 1
26 43 m 1
 24 43 l 1
 24 41 l 1
 25 41 l 1
 25 42 l 1
 26 42 l 1
 26 43 l 1
27 42 m 1
 26 42 l 1
 26 41 l 1
 28 41 l 1
 28 43 l 1
 27 43 l 1
 27 42 l 1
31 43 m 1
 29 43 l 1
 29 41 l 1
 31 41 l 1
 31 43 l 1
31 39 m 1
 29 39 l 1
 29 37 l 1
 31 37 l 1
 31 39 l 1
36 37 m 1
 34 37 l 1
 34 35 l 1
 36 35 l 1
 36 37 l 1
31 35 m 1
 29 35 l 1
 29 33 l 1
 31 33 l 1
 31 35 l 1
36 33 m 1
 34 33 l 1
 34 31 l 1
 36 31 l 1
 36 33 l 1
31 31 m 1
 29 31 l 1
 29 29 l 1
 31 29 l 1
 31 31 l 1
41 43 m 1
 39 43 l 1
 39 41 l 1
 41 41 l 1
 41 43 l 1
41 39 m 1
 39 39 l 1
 39 37 l 1
 41 37 l 1
 41 39 l 1
49 43 m 1
 47 43 l 1
 47 41 l 1
 49 41 l 1
 49 43 l 1
49 39 m 1
 47 39 l 1
 47 37 l 1
 49 37 l 1
 49 39 l 1
41 35 m 1
 39 35 l 1
 39 33 l 1
 41 33 l 1
 41 35 l 1
43 35 m 1
 42 35 l 1
 42 33 l 1
 44 33 l 1
 44 34 l 1
 43 34 l 1
 43 35 l 1
46 35 m 1
 44 35 l 1
 44 34 l 1
 45 34 l 1
 45 33 l 1
 46 33 l 1
 46 35 l 1
49 35 m 1
 47 35 l 1
 47 33 l 1
 49 33 l 1
 49 35 l 1
49 31 m 1
 47 31 l 1
 47 29 l 1
 49 29 l 1
 49 31 l 1
55 43 m 1
 53 43 l 1
 53 41 l 1
 55 41 l 1
 55 43 l 1
58 43 m 1
 56 43 l 1
 56 41 l 1
 57 41 l 1
 57 42 l 1
 58 42 l 1
 58 43 l 1
59 42 m 1
 58 42 l 1
 58 41 l 1
 60 41 l 1
 60 43 l 1
 59 43 l 1
 59 42 l 1
55 39 m 1
 53 39 l 1
 53 37 l 1
 55 37 l 1
 55 39 l 1
63 43 m 1
 61 43 l 1
 61 41 l 1
 63 41 l 1
 63 43 l 1
63 39 m 1
 61 39 l 1
 61 37 l 1
 63 37 l 1
 63 39 l 1
55 35 m 1
 53 35 l 1
 53 33 l 1
 55 33 l 1
 55 35 l 1
55 31 m 1
 53 31 l 1
 53 29 l 1
 55 29 l 1
 55 31 l 1
63 35 m 1
 61 35 l 1
 61 33 l 1
 63 33 l 1
 63 35 l 1
63 31 m 1
 61 31 l 1
 61 29 l 1
 63 29 l 1
 63 31 l 1
31 27 m 1
 29 27 l 1
 29 25 l 1
 31 25 l 1
 31 27 l 1
49 27 m 1
 47 27 l 1
 47 25 l 1
 49 25 l 1
 49 27 l 1
55 27 m 1
 53 27 l 1
 53 25 l 1
 55 25 l 1
 55 27 l 1
58 27 m 1
 56 27 l 1
 56 25 l 1
 57 25 l 1
 57 26 l 1
 58 26 l 1
 58 27 l 1
59 26 m 1
 58 26 l 1
 58 25 l 1
 60 25 l 1
 60 27 l 1
 59 27 l 1
 59 26 l 1
63 27 m 1
 61 27 l 1
 61 25 l 1
 63 25 l 1
 63 27 l 1
EndSplineSet
EndChar

StartChar: custom_4_0_0_1_9
Encoding: 31987 31987 12019
Width: 70
Flags: H
LayerCount: 2
Fore
SplineSet
23 43 m 1
 21 43 l 1
 21 41 l 1
 23 41 l 1
 23 43 l 1
26 43 m 1
 24 43 l 1
 24 41 l 1
 25 41 l 1
 25 42 l 1
 26 42 l 1
 26 43 l 1
27 42 m 1
 26 42 l 1
 26 41 l 1
 28 41 l 1
 28 43 l 1
 27 43 l 1
 27 42 l 1
31 43 m 1
 29 43 l 1
 29 41 l 1
 31 41 l 1
 31 43 l 1
31 39 m 1
 29 39 l 1
 29 37 l 1
 31 37 l 1
 31 39 l 1
36 37 m 1
 34 37 l 1
 34 35 l 1
 36 35 l 1
 36 37 l 1
31 35 m 1
 29 35 l 1
 29 33 l 1
 31 33 l 1
 31 35 l 1
36 33 m 1
 34 33 l 1
 34 31 l 1
 36 31 l 1
 36 33 l 1
31 31 m 1
 29 31 l 1
 29 29 l 1
 31 29 l 1
 31 31 l 1
41 43 m 1
 39 43 l 1
 39 41 l 1
 41 41 l 1
 41 43 l 1
41 39 m 1
 39 39 l 1
 39 37 l 1
 41 37 l 1
 41 39 l 1
49 43 m 1
 47 43 l 1
 47 41 l 1
 49 41 l 1
 49 43 l 1
49 39 m 1
 47 39 l 1
 47 37 l 1
 49 37 l 1
 49 39 l 1
41 35 m 1
 39 35 l 1
 39 33 l 1
 41 33 l 1
 41 35 l 1
43 35 m 1
 42 35 l 1
 42 33 l 1
 44 33 l 1
 44 34 l 1
 43 34 l 1
 43 35 l 1
46 35 m 1
 44 35 l 1
 44 34 l 1
 45 34 l 1
 45 33 l 1
 46 33 l 1
 46 35 l 1
49 35 m 1
 47 35 l 1
 47 33 l 1
 49 33 l 1
 49 35 l 1
49 31 m 1
 47 31 l 1
 47 29 l 1
 49 29 l 1
 49 31 l 1
55 43 m 1
 53 43 l 1
 53 41 l 1
 55 41 l 1
 55 43 l 1
58 43 m 1
 56 43 l 1
 56 41 l 1
 57 41 l 1
 57 42 l 1
 58 42 l 1
 58 43 l 1
59 42 m 1
 58 42 l 1
 58 41 l 1
 60 41 l 1
 60 43 l 1
 59 43 l 1
 59 42 l 1
55 39 m 1
 53 39 l 1
 53 37 l 1
 55 37 l 1
 55 39 l 1
63 43 m 1
 61 43 l 1
 61 41 l 1
 63 41 l 1
 63 43 l 1
63 39 m 1
 61 39 l 1
 61 37 l 1
 63 37 l 1
 63 39 l 1
55 35 m 1
 53 35 l 1
 53 33 l 1
 55 33 l 1
 55 35 l 1
55 31 m 1
 53 31 l 1
 53 29 l 1
 55 29 l 1
 55 31 l 1
63 35 m 1
 61 35 l 1
 61 33 l 1
 63 33 l 1
 63 35 l 1
63 31 m 1
 61 31 l 1
 61 29 l 1
 63 29 l 1
 63 31 l 1
31 27 m 1
 29 27 l 1
 29 25 l 1
 31 25 l 1
 31 27 l 1
49 27 m 1
 47 27 l 1
 47 25 l 1
 49 25 l 1
 49 27 l 1
55 27 m 1
 53 27 l 1
 53 25 l 1
 55 25 l 1
 55 27 l 1
58 27 m 1
 56 27 l 1
 56 25 l 1
 57 25 l 1
 57 26 l 1
 58 26 l 1
 58 27 l 1
59 26 m 1
 58 26 l 1
 58 25 l 1
 60 25 l 1
 60 27 l 1
 59 27 l 1
 59 26 l 1
63 27 m 1
 61 27 l 1
 61 25 l 1
 63 25 l 1
 63 27 l 1
EndSplineSet
EndChar

StartChar: custom_4_0_0_2_0
Encoding: 31988 31988 12020
Width: 70
Flags: H
LayerCount: 2
Fore
SplineSet
23 43 m 1
 21 43 l 1
 21 41 l 1
 23 41 l 1
 23 43 l 1
26 43 m 1
 24 43 l 1
 24 41 l 1
 25 41 l 1
 25 42 l 1
 26 42 l 1
 26 43 l 1
27 42 m 1
 26 42 l 1
 26 41 l 1
 28 41 l 1
 28 43 l 1
 27 43 l 1
 27 42 l 1
31 43 m 1
 29 43 l 1
 29 41 l 1
 31 41 l 1
 31 43 l 1
31 39 m 1
 29 39 l 1
 29 37 l 1
 31 37 l 1
 31 39 l 1
36 37 m 1
 34 37 l 1
 34 35 l 1
 36 35 l 1
 36 37 l 1
31 35 m 1
 29 35 l 1
 29 33 l 1
 31 33 l 1
 31 35 l 1
36 33 m 1
 34 33 l 1
 34 31 l 1
 36 31 l 1
 36 33 l 1
31 31 m 1
 29 31 l 1
 29 29 l 1
 31 29 l 1
 31 31 l 1
41 43 m 1
 39 43 l 1
 39 41 l 1
 41 41 l 1
 41 43 l 1
41 39 m 1
 39 39 l 1
 39 37 l 1
 41 37 l 1
 41 39 l 1
49 43 m 1
 47 43 l 1
 47 41 l 1
 49 41 l 1
 49 43 l 1
49 39 m 1
 47 39 l 1
 47 37 l 1
 49 37 l 1
 49 39 l 1
41 35 m 1
 39 35 l 1
 39 33 l 1
 41 33 l 1
 41 35 l 1
43 35 m 1
 42 35 l 1
 42 33 l 1
 44 33 l 1
 44 34 l 1
 43 34 l 1
 43 35 l 1
46 35 m 1
 44 35 l 1
 44 34 l 1
 45 34 l 1
 45 33 l 1
 46 33 l 1
 46 35 l 1
49 35 m 1
 47 35 l 1
 47 33 l 1
 49 33 l 1
 49 35 l 1
49 31 m 1
 47 31 l 1
 47 29 l 1
 49 29 l 1
 49 31 l 1
55 43 m 1
 53 43 l 1
 53 41 l 1
 55 41 l 1
 55 43 l 1
58 43 m 1
 56 43 l 1
 56 41 l 1
 57 41 l 1
 57 42 l 1
 58 42 l 1
 58 43 l 1
59 42 m 1
 58 42 l 1
 58 41 l 1
 60 41 l 1
 60 43 l 1
 59 43 l 1
 59 42 l 1
55 39 m 1
 53 39 l 1
 53 37 l 1
 55 37 l 1
 55 39 l 1
63 43 m 1
 61 43 l 1
 61 41 l 1
 63 41 l 1
 63 43 l 1
63 39 m 1
 61 39 l 1
 61 37 l 1
 63 37 l 1
 63 39 l 1
55 35 m 1
 53 35 l 1
 53 33 l 1
 55 33 l 1
 55 35 l 1
55 31 m 1
 53 31 l 1
 53 29 l 1
 55 29 l 1
 55 31 l 1
63 35 m 1
 61 35 l 1
 61 33 l 1
 63 33 l 1
 63 35 l 1
63 31 m 1
 61 31 l 1
 61 29 l 1
 63 29 l 1
 63 31 l 1
31 27 m 1
 29 27 l 1
 29 25 l 1
 31 25 l 1
 31 27 l 1
49 27 m 1
 47 27 l 1
 47 25 l 1
 49 25 l 1
 49 27 l 1
55 27 m 1
 53 27 l 1
 53 25 l 1
 55 25 l 1
 55 27 l 1
58 27 m 1
 56 27 l 1
 56 25 l 1
 57 25 l 1
 57 26 l 1
 58 26 l 1
 58 27 l 1
59 26 m 1
 58 26 l 1
 58 25 l 1
 60 25 l 1
 60 27 l 1
 59 27 l 1
 59 26 l 1
63 27 m 1
 61 27 l 1
 61 25 l 1
 63 25 l 1
 63 27 l 1
EndSplineSet
EndChar

StartChar: custom_4_0_0_2_1
Encoding: 31989 31989 12021
Width: 70
Flags: H
LayerCount: 2
Fore
SplineSet
23 43 m 1
 21 43 l 1
 21 41 l 1
 23 41 l 1
 23 43 l 1
26 43 m 1
 24 43 l 1
 24 41 l 1
 25 41 l 1
 25 42 l 1
 26 42 l 1
 26 43 l 1
27 42 m 1
 26 42 l 1
 26 41 l 1
 28 41 l 1
 28 43 l 1
 27 43 l 1
 27 42 l 1
31 43 m 1
 29 43 l 1
 29 41 l 1
 31 41 l 1
 31 43 l 1
31 39 m 1
 29 39 l 1
 29 37 l 1
 31 37 l 1
 31 39 l 1
36 37 m 1
 34 37 l 1
 34 35 l 1
 36 35 l 1
 36 37 l 1
31 35 m 1
 29 35 l 1
 29 33 l 1
 31 33 l 1
 31 35 l 1
36 33 m 1
 34 33 l 1
 34 31 l 1
 36 31 l 1
 36 33 l 1
31 31 m 1
 29 31 l 1
 29 29 l 1
 31 29 l 1
 31 31 l 1
41 43 m 1
 39 43 l 1
 39 41 l 1
 41 41 l 1
 41 43 l 1
41 39 m 1
 39 39 l 1
 39 37 l 1
 41 37 l 1
 41 39 l 1
49 43 m 1
 47 43 l 1
 47 41 l 1
 49 41 l 1
 49 43 l 1
49 39 m 1
 47 39 l 1
 47 37 l 1
 49 37 l 1
 49 39 l 1
41 35 m 1
 39 35 l 1
 39 33 l 1
 41 33 l 1
 41 35 l 1
43 35 m 1
 42 35 l 1
 42 33 l 1
 44 33 l 1
 44 34 l 1
 43 34 l 1
 43 35 l 1
46 35 m 1
 44 35 l 1
 44 34 l 1
 45 34 l 1
 45 33 l 1
 46 33 l 1
 46 35 l 1
49 35 m 1
 47 35 l 1
 47 33 l 1
 49 33 l 1
 49 35 l 1
49 31 m 1
 47 31 l 1
 47 29 l 1
 49 29 l 1
 49 31 l 1
55 43 m 1
 53 43 l 1
 53 41 l 1
 55 41 l 1
 55 43 l 1
58 43 m 1
 56 43 l 1
 56 41 l 1
 57 41 l 1
 57 42 l 1
 58 42 l 1
 58 43 l 1
59 42 m 1
 58 42 l 1
 58 41 l 1
 60 41 l 1
 60 43 l 1
 59 43 l 1
 59 42 l 1
55 39 m 1
 53 39 l 1
 53 37 l 1
 55 37 l 1
 55 39 l 1
63 43 m 1
 61 43 l 1
 61 41 l 1
 63 41 l 1
 63 43 l 1
63 39 m 1
 61 39 l 1
 61 37 l 1
 63 37 l 1
 63 39 l 1
55 35 m 1
 53 35 l 1
 53 33 l 1
 55 33 l 1
 55 35 l 1
55 31 m 1
 53 31 l 1
 53 29 l 1
 55 29 l 1
 55 31 l 1
63 35 m 1
 61 35 l 1
 61 33 l 1
 63 33 l 1
 63 35 l 1
63 31 m 1
 61 31 l 1
 61 29 l 1
 63 29 l 1
 63 31 l 1
31 27 m 1
 29 27 l 1
 29 25 l 1
 31 25 l 1
 31 27 l 1
49 27 m 1
 47 27 l 1
 47 25 l 1
 49 25 l 1
 49 27 l 1
55 27 m 1
 53 27 l 1
 53 25 l 1
 55 25 l 1
 55 27 l 1
58 27 m 1
 56 27 l 1
 56 25 l 1
 57 25 l 1
 57 26 l 1
 58 26 l 1
 58 27 l 1
59 26 m 1
 58 26 l 1
 58 25 l 1
 60 25 l 1
 60 27 l 1
 59 27 l 1
 59 26 l 1
63 27 m 1
 61 27 l 1
 61 25 l 1
 63 25 l 1
 63 27 l 1
EndSplineSet
EndChar

StartChar: custom_4_0_0_2_2
Encoding: 31990 31990 12022
Width: 70
Flags: H
LayerCount: 2
Fore
SplineSet
23 43 m 1
 21 43 l 1
 21 41 l 1
 23 41 l 1
 23 43 l 1
26 43 m 1
 24 43 l 1
 24 41 l 1
 25 41 l 1
 25 42 l 1
 26 42 l 1
 26 43 l 1
27 42 m 1
 26 42 l 1
 26 41 l 1
 28 41 l 1
 28 43 l 1
 27 43 l 1
 27 42 l 1
31 43 m 1
 29 43 l 1
 29 41 l 1
 31 41 l 1
 31 43 l 1
31 39 m 1
 29 39 l 1
 29 37 l 1
 31 37 l 1
 31 39 l 1
36 37 m 1
 34 37 l 1
 34 35 l 1
 36 35 l 1
 36 37 l 1
31 35 m 1
 29 35 l 1
 29 33 l 1
 31 33 l 1
 31 35 l 1
36 33 m 1
 34 33 l 1
 34 31 l 1
 36 31 l 1
 36 33 l 1
31 31 m 1
 29 31 l 1
 29 29 l 1
 31 29 l 1
 31 31 l 1
41 43 m 1
 39 43 l 1
 39 41 l 1
 41 41 l 1
 41 43 l 1
41 39 m 1
 39 39 l 1
 39 37 l 1
 41 37 l 1
 41 39 l 1
49 43 m 1
 47 43 l 1
 47 41 l 1
 49 41 l 1
 49 43 l 1
49 39 m 1
 47 39 l 1
 47 37 l 1
 49 37 l 1
 49 39 l 1
41 35 m 1
 39 35 l 1
 39 33 l 1
 41 33 l 1
 41 35 l 1
43 35 m 1
 42 35 l 1
 42 33 l 1
 44 33 l 1
 44 34 l 1
 43 34 l 1
 43 35 l 1
46 35 m 1
 44 35 l 1
 44 34 l 1
 45 34 l 1
 45 33 l 1
 46 33 l 1
 46 35 l 1
49 35 m 1
 47 35 l 1
 47 33 l 1
 49 33 l 1
 49 35 l 1
49 31 m 1
 47 31 l 1
 47 29 l 1
 49 29 l 1
 49 31 l 1
55 43 m 1
 53 43 l 1
 53 41 l 1
 55 41 l 1
 55 43 l 1
58 43 m 1
 56 43 l 1
 56 41 l 1
 57 41 l 1
 57 42 l 1
 58 42 l 1
 58 43 l 1
59 42 m 1
 58 42 l 1
 58 41 l 1
 60 41 l 1
 60 43 l 1
 59 43 l 1
 59 42 l 1
55 39 m 1
 53 39 l 1
 53 37 l 1
 55 37 l 1
 55 39 l 1
63 43 m 1
 61 43 l 1
 61 41 l 1
 63 41 l 1
 63 43 l 1
63 39 m 1
 61 39 l 1
 61 37 l 1
 63 37 l 1
 63 39 l 1
55 35 m 1
 53 35 l 1
 53 33 l 1
 55 33 l 1
 55 35 l 1
55 31 m 1
 53 31 l 1
 53 29 l 1
 55 29 l 1
 55 31 l 1
63 35 m 1
 61 35 l 1
 61 33 l 1
 63 33 l 1
 63 35 l 1
63 31 m 1
 61 31 l 1
 61 29 l 1
 63 29 l 1
 63 31 l 1
31 27 m 1
 29 27 l 1
 29 25 l 1
 31 25 l 1
 31 27 l 1
49 27 m 1
 47 27 l 1
 47 25 l 1
 49 25 l 1
 49 27 l 1
55 27 m 1
 53 27 l 1
 53 25 l 1
 55 25 l 1
 55 27 l 1
58 27 m 1
 56 27 l 1
 56 25 l 1
 57 25 l 1
 57 26 l 1
 58 26 l 1
 58 27 l 1
59 26 m 1
 58 26 l 1
 58 25 l 1
 60 25 l 1
 60 27 l 1
 59 27 l 1
 59 26 l 1
63 27 m 1
 61 27 l 1
 61 25 l 1
 63 25 l 1
 63 27 l 1
EndSplineSet
EndChar

StartChar: custom_4_0_0_2_3
Encoding: 31991 31991 12023
Width: 70
Flags: H
LayerCount: 2
Fore
SplineSet
23 43 m 1
 21 43 l 1
 21 41 l 1
 23 41 l 1
 23 43 l 1
26 43 m 1
 24 43 l 1
 24 41 l 1
 25 41 l 1
 25 42 l 1
 26 42 l 1
 26 43 l 1
27 42 m 1
 26 42 l 1
 26 41 l 1
 28 41 l 1
 28 43 l 1
 27 43 l 1
 27 42 l 1
31 43 m 1
 29 43 l 1
 29 41 l 1
 31 41 l 1
 31 43 l 1
31 39 m 1
 29 39 l 1
 29 37 l 1
 31 37 l 1
 31 39 l 1
36 37 m 1
 34 37 l 1
 34 35 l 1
 36 35 l 1
 36 37 l 1
31 35 m 1
 29 35 l 1
 29 33 l 1
 31 33 l 1
 31 35 l 1
36 33 m 1
 34 33 l 1
 34 31 l 1
 36 31 l 1
 36 33 l 1
31 31 m 1
 29 31 l 1
 29 29 l 1
 31 29 l 1
 31 31 l 1
41 43 m 1
 39 43 l 1
 39 41 l 1
 41 41 l 1
 41 43 l 1
41 39 m 1
 39 39 l 1
 39 37 l 1
 41 37 l 1
 41 39 l 1
49 43 m 1
 47 43 l 1
 47 41 l 1
 49 41 l 1
 49 43 l 1
49 39 m 1
 47 39 l 1
 47 37 l 1
 49 37 l 1
 49 39 l 1
41 35 m 1
 39 35 l 1
 39 33 l 1
 41 33 l 1
 41 35 l 1
43 35 m 1
 42 35 l 1
 42 33 l 1
 44 33 l 1
 44 34 l 1
 43 34 l 1
 43 35 l 1
46 35 m 1
 44 35 l 1
 44 34 l 1
 45 34 l 1
 45 33 l 1
 46 33 l 1
 46 35 l 1
49 35 m 1
 47 35 l 1
 47 33 l 1
 49 33 l 1
 49 35 l 1
49 31 m 1
 47 31 l 1
 47 29 l 1
 49 29 l 1
 49 31 l 1
55 43 m 1
 53 43 l 1
 53 41 l 1
 55 41 l 1
 55 43 l 1
58 43 m 1
 56 43 l 1
 56 41 l 1
 57 41 l 1
 57 42 l 1
 58 42 l 1
 58 43 l 1
59 42 m 1
 58 42 l 1
 58 41 l 1
 60 41 l 1
 60 43 l 1
 59 43 l 1
 59 42 l 1
55 39 m 1
 53 39 l 1
 53 37 l 1
 55 37 l 1
 55 39 l 1
63 43 m 1
 61 43 l 1
 61 41 l 1
 63 41 l 1
 63 43 l 1
63 39 m 1
 61 39 l 1
 61 37 l 1
 63 37 l 1
 63 39 l 1
55 35 m 1
 53 35 l 1
 53 33 l 1
 55 33 l 1
 55 35 l 1
55 31 m 1
 53 31 l 1
 53 29 l 1
 55 29 l 1
 55 31 l 1
63 35 m 1
 61 35 l 1
 61 33 l 1
 63 33 l 1
 63 35 l 1
63 31 m 1
 61 31 l 1
 61 29 l 1
 63 29 l 1
 63 31 l 1
31 27 m 1
 29 27 l 1
 29 25 l 1
 31 25 l 1
 31 27 l 1
49 27 m 1
 47 27 l 1
 47 25 l 1
 49 25 l 1
 49 27 l 1
55 27 m 1
 53 27 l 1
 53 25 l 1
 55 25 l 1
 55 27 l 1
58 27 m 1
 56 27 l 1
 56 25 l 1
 57 25 l 1
 57 26 l 1
 58 26 l 1
 58 27 l 1
59 26 m 1
 58 26 l 1
 58 25 l 1
 60 25 l 1
 60 27 l 1
 59 27 l 1
 59 26 l 1
63 27 m 1
 61 27 l 1
 61 25 l 1
 63 25 l 1
 63 27 l 1
EndSplineSet
EndChar

StartChar: custom_4_0_0_2_4
Encoding: 31992 31992 12024
Width: 70
Flags: H
LayerCount: 2
Fore
SplineSet
23 43 m 1
 21 43 l 1
 21 41 l 1
 23 41 l 1
 23 43 l 1
26 43 m 1
 24 43 l 1
 24 41 l 1
 25 41 l 1
 25 42 l 1
 26 42 l 1
 26 43 l 1
27 42 m 1
 26 42 l 1
 26 41 l 1
 28 41 l 1
 28 43 l 1
 27 43 l 1
 27 42 l 1
31 43 m 1
 29 43 l 1
 29 41 l 1
 31 41 l 1
 31 43 l 1
31 39 m 1
 29 39 l 1
 29 37 l 1
 31 37 l 1
 31 39 l 1
36 37 m 1
 34 37 l 1
 34 35 l 1
 36 35 l 1
 36 37 l 1
31 35 m 1
 29 35 l 1
 29 33 l 1
 31 33 l 1
 31 35 l 1
36 33 m 1
 34 33 l 1
 34 31 l 1
 36 31 l 1
 36 33 l 1
31 31 m 1
 29 31 l 1
 29 29 l 1
 31 29 l 1
 31 31 l 1
41 43 m 1
 39 43 l 1
 39 41 l 1
 41 41 l 1
 41 43 l 1
41 39 m 1
 39 39 l 1
 39 37 l 1
 41 37 l 1
 41 39 l 1
49 43 m 1
 47 43 l 1
 47 41 l 1
 49 41 l 1
 49 43 l 1
49 39 m 1
 47 39 l 1
 47 37 l 1
 49 37 l 1
 49 39 l 1
41 35 m 1
 39 35 l 1
 39 33 l 1
 41 33 l 1
 41 35 l 1
43 35 m 1
 42 35 l 1
 42 33 l 1
 44 33 l 1
 44 34 l 1
 43 34 l 1
 43 35 l 1
46 35 m 1
 44 35 l 1
 44 34 l 1
 45 34 l 1
 45 33 l 1
 46 33 l 1
 46 35 l 1
49 35 m 1
 47 35 l 1
 47 33 l 1
 49 33 l 1
 49 35 l 1
49 31 m 1
 47 31 l 1
 47 29 l 1
 49 29 l 1
 49 31 l 1
55 43 m 1
 53 43 l 1
 53 41 l 1
 55 41 l 1
 55 43 l 1
58 43 m 1
 56 43 l 1
 56 41 l 1
 57 41 l 1
 57 42 l 1
 58 42 l 1
 58 43 l 1
59 42 m 1
 58 42 l 1
 58 41 l 1
 60 41 l 1
 60 43 l 1
 59 43 l 1
 59 42 l 1
55 39 m 1
 53 39 l 1
 53 37 l 1
 55 37 l 1
 55 39 l 1
63 43 m 1
 61 43 l 1
 61 41 l 1
 63 41 l 1
 63 43 l 1
63 39 m 1
 61 39 l 1
 61 37 l 1
 63 37 l 1
 63 39 l 1
55 35 m 1
 53 35 l 1
 53 33 l 1
 55 33 l 1
 55 35 l 1
55 31 m 1
 53 31 l 1
 53 29 l 1
 55 29 l 1
 55 31 l 1
63 35 m 1
 61 35 l 1
 61 33 l 1
 63 33 l 1
 63 35 l 1
63 31 m 1
 61 31 l 1
 61 29 l 1
 63 29 l 1
 63 31 l 1
31 27 m 1
 29 27 l 1
 29 25 l 1
 31 25 l 1
 31 27 l 1
49 27 m 1
 47 27 l 1
 47 25 l 1
 49 25 l 1
 49 27 l 1
55 27 m 1
 53 27 l 1
 53 25 l 1
 55 25 l 1
 55 27 l 1
58 27 m 1
 56 27 l 1
 56 25 l 1
 57 25 l 1
 57 26 l 1
 58 26 l 1
 58 27 l 1
59 26 m 1
 58 26 l 1
 58 25 l 1
 60 25 l 1
 60 27 l 1
 59 27 l 1
 59 26 l 1
63 27 m 1
 61 27 l 1
 61 25 l 1
 63 25 l 1
 63 27 l 1
EndSplineSet
EndChar

StartChar: custom_4_0_0_2_5
Encoding: 31993 31993 12025
Width: 70
Flags: H
LayerCount: 2
Fore
SplineSet
23 43 m 1
 21 43 l 1
 21 41 l 1
 23 41 l 1
 23 43 l 1
26 43 m 1
 24 43 l 1
 24 41 l 1
 25 41 l 1
 25 42 l 1
 26 42 l 1
 26 43 l 1
27 42 m 1
 26 42 l 1
 26 41 l 1
 28 41 l 1
 28 43 l 1
 27 43 l 1
 27 42 l 1
31 43 m 1
 29 43 l 1
 29 41 l 1
 31 41 l 1
 31 43 l 1
31 39 m 1
 29 39 l 1
 29 37 l 1
 31 37 l 1
 31 39 l 1
36 37 m 1
 34 37 l 1
 34 35 l 1
 36 35 l 1
 36 37 l 1
31 35 m 1
 29 35 l 1
 29 33 l 1
 31 33 l 1
 31 35 l 1
36 33 m 1
 34 33 l 1
 34 31 l 1
 36 31 l 1
 36 33 l 1
31 31 m 1
 29 31 l 1
 29 29 l 1
 31 29 l 1
 31 31 l 1
41 43 m 1
 39 43 l 1
 39 41 l 1
 41 41 l 1
 41 43 l 1
41 39 m 1
 39 39 l 1
 39 37 l 1
 41 37 l 1
 41 39 l 1
49 43 m 1
 47 43 l 1
 47 41 l 1
 49 41 l 1
 49 43 l 1
49 39 m 1
 47 39 l 1
 47 37 l 1
 49 37 l 1
 49 39 l 1
41 35 m 1
 39 35 l 1
 39 33 l 1
 41 33 l 1
 41 35 l 1
43 35 m 1
 42 35 l 1
 42 33 l 1
 44 33 l 1
 44 34 l 1
 43 34 l 1
 43 35 l 1
46 35 m 1
 44 35 l 1
 44 34 l 1
 45 34 l 1
 45 33 l 1
 46 33 l 1
 46 35 l 1
49 35 m 1
 47 35 l 1
 47 33 l 1
 49 33 l 1
 49 35 l 1
49 31 m 1
 47 31 l 1
 47 29 l 1
 49 29 l 1
 49 31 l 1
55 43 m 1
 53 43 l 1
 53 41 l 1
 55 41 l 1
 55 43 l 1
58 43 m 1
 56 43 l 1
 56 41 l 1
 57 41 l 1
 57 42 l 1
 58 42 l 1
 58 43 l 1
59 42 m 1
 58 42 l 1
 58 41 l 1
 60 41 l 1
 60 43 l 1
 59 43 l 1
 59 42 l 1
55 39 m 1
 53 39 l 1
 53 37 l 1
 55 37 l 1
 55 39 l 1
63 43 m 1
 61 43 l 1
 61 41 l 1
 63 41 l 1
 63 43 l 1
63 39 m 1
 61 39 l 1
 61 37 l 1
 63 37 l 1
 63 39 l 1
55 35 m 1
 53 35 l 1
 53 33 l 1
 55 33 l 1
 55 35 l 1
55 31 m 1
 53 31 l 1
 53 29 l 1
 55 29 l 1
 55 31 l 1
63 35 m 1
 61 35 l 1
 61 33 l 1
 63 33 l 1
 63 35 l 1
63 31 m 1
 61 31 l 1
 61 29 l 1
 63 29 l 1
 63 31 l 1
31 27 m 1
 29 27 l 1
 29 25 l 1
 31 25 l 1
 31 27 l 1
49 27 m 1
 47 27 l 1
 47 25 l 1
 49 25 l 1
 49 27 l 1
55 27 m 1
 53 27 l 1
 53 25 l 1
 55 25 l 1
 55 27 l 1
58 27 m 1
 56 27 l 1
 56 25 l 1
 57 25 l 1
 57 26 l 1
 58 26 l 1
 58 27 l 1
59 26 m 1
 58 26 l 1
 58 25 l 1
 60 25 l 1
 60 27 l 1
 59 27 l 1
 59 26 l 1
63 27 m 1
 61 27 l 1
 61 25 l 1
 63 25 l 1
 63 27 l 1
EndSplineSet
EndChar

StartChar: custom_4_0_0_2_6
Encoding: 31994 31994 12026
Width: 70
Flags: H
LayerCount: 2
Fore
SplineSet
23 43 m 1
 21 43 l 1
 21 41 l 1
 23 41 l 1
 23 43 l 1
26 43 m 1
 24 43 l 1
 24 41 l 1
 25 41 l 1
 25 42 l 1
 26 42 l 1
 26 43 l 1
27 42 m 1
 26 42 l 1
 26 41 l 1
 28 41 l 1
 28 43 l 1
 27 43 l 1
 27 42 l 1
31 43 m 1
 29 43 l 1
 29 41 l 1
 31 41 l 1
 31 43 l 1
31 39 m 1
 29 39 l 1
 29 37 l 1
 31 37 l 1
 31 39 l 1
36 37 m 1
 34 37 l 1
 34 35 l 1
 36 35 l 1
 36 37 l 1
31 35 m 1
 29 35 l 1
 29 33 l 1
 31 33 l 1
 31 35 l 1
36 33 m 1
 34 33 l 1
 34 31 l 1
 36 31 l 1
 36 33 l 1
31 31 m 1
 29 31 l 1
 29 29 l 1
 31 29 l 1
 31 31 l 1
41 43 m 1
 39 43 l 1
 39 41 l 1
 41 41 l 1
 41 43 l 1
41 39 m 1
 39 39 l 1
 39 37 l 1
 41 37 l 1
 41 39 l 1
49 43 m 1
 47 43 l 1
 47 41 l 1
 49 41 l 1
 49 43 l 1
49 39 m 1
 47 39 l 1
 47 37 l 1
 49 37 l 1
 49 39 l 1
41 35 m 1
 39 35 l 1
 39 33 l 1
 41 33 l 1
 41 35 l 1
43 35 m 1
 42 35 l 1
 42 33 l 1
 44 33 l 1
 44 34 l 1
 43 34 l 1
 43 35 l 1
46 35 m 1
 44 35 l 1
 44 34 l 1
 45 34 l 1
 45 33 l 1
 46 33 l 1
 46 35 l 1
49 35 m 1
 47 35 l 1
 47 33 l 1
 49 33 l 1
 49 35 l 1
49 31 m 1
 47 31 l 1
 47 29 l 1
 49 29 l 1
 49 31 l 1
55 43 m 1
 53 43 l 1
 53 41 l 1
 55 41 l 1
 55 43 l 1
58 43 m 1
 56 43 l 1
 56 41 l 1
 57 41 l 1
 57 42 l 1
 58 42 l 1
 58 43 l 1
59 42 m 1
 58 42 l 1
 58 41 l 1
 60 41 l 1
 60 43 l 1
 59 43 l 1
 59 42 l 1
55 39 m 1
 53 39 l 1
 53 37 l 1
 55 37 l 1
 55 39 l 1
63 43 m 1
 61 43 l 1
 61 41 l 1
 63 41 l 1
 63 43 l 1
63 39 m 1
 61 39 l 1
 61 37 l 1
 63 37 l 1
 63 39 l 1
55 35 m 1
 53 35 l 1
 53 33 l 1
 55 33 l 1
 55 35 l 1
55 31 m 1
 53 31 l 1
 53 29 l 1
 55 29 l 1
 55 31 l 1
63 35 m 1
 61 35 l 1
 61 33 l 1
 63 33 l 1
 63 35 l 1
63 31 m 1
 61 31 l 1
 61 29 l 1
 63 29 l 1
 63 31 l 1
31 27 m 1
 29 27 l 1
 29 25 l 1
 31 25 l 1
 31 27 l 1
49 27 m 1
 47 27 l 1
 47 25 l 1
 49 25 l 1
 49 27 l 1
55 27 m 1
 53 27 l 1
 53 25 l 1
 55 25 l 1
 55 27 l 1
58 27 m 1
 56 27 l 1
 56 25 l 1
 57 25 l 1
 57 26 l 1
 58 26 l 1
 58 27 l 1
59 26 m 1
 58 26 l 1
 58 25 l 1
 60 25 l 1
 60 27 l 1
 59 27 l 1
 59 26 l 1
63 27 m 1
 61 27 l 1
 61 25 l 1
 63 25 l 1
 63 27 l 1
EndSplineSet
EndChar

StartChar: custom_4_0_0_2_7
Encoding: 31995 31995 12027
Width: 70
Flags: H
LayerCount: 2
Fore
SplineSet
23 43 m 1
 21 43 l 1
 21 41 l 1
 23 41 l 1
 23 43 l 1
26 43 m 1
 24 43 l 1
 24 41 l 1
 25 41 l 1
 25 42 l 1
 26 42 l 1
 26 43 l 1
27 42 m 1
 26 42 l 1
 26 41 l 1
 28 41 l 1
 28 43 l 1
 27 43 l 1
 27 42 l 1
31 43 m 1
 29 43 l 1
 29 41 l 1
 31 41 l 1
 31 43 l 1
31 39 m 1
 29 39 l 1
 29 37 l 1
 31 37 l 1
 31 39 l 1
36 37 m 1
 34 37 l 1
 34 35 l 1
 36 35 l 1
 36 37 l 1
31 35 m 1
 29 35 l 1
 29 33 l 1
 31 33 l 1
 31 35 l 1
36 33 m 1
 34 33 l 1
 34 31 l 1
 36 31 l 1
 36 33 l 1
31 31 m 1
 29 31 l 1
 29 29 l 1
 31 29 l 1
 31 31 l 1
41 43 m 1
 39 43 l 1
 39 41 l 1
 41 41 l 1
 41 43 l 1
41 39 m 1
 39 39 l 1
 39 37 l 1
 41 37 l 1
 41 39 l 1
49 43 m 1
 47 43 l 1
 47 41 l 1
 49 41 l 1
 49 43 l 1
49 39 m 1
 47 39 l 1
 47 37 l 1
 49 37 l 1
 49 39 l 1
41 35 m 1
 39 35 l 1
 39 33 l 1
 41 33 l 1
 41 35 l 1
43 35 m 1
 42 35 l 1
 42 33 l 1
 44 33 l 1
 44 34 l 1
 43 34 l 1
 43 35 l 1
46 35 m 1
 44 35 l 1
 44 34 l 1
 45 34 l 1
 45 33 l 1
 46 33 l 1
 46 35 l 1
49 35 m 1
 47 35 l 1
 47 33 l 1
 49 33 l 1
 49 35 l 1
49 31 m 1
 47 31 l 1
 47 29 l 1
 49 29 l 1
 49 31 l 1
55 43 m 1
 53 43 l 1
 53 41 l 1
 55 41 l 1
 55 43 l 1
58 43 m 1
 56 43 l 1
 56 41 l 1
 57 41 l 1
 57 42 l 1
 58 42 l 1
 58 43 l 1
59 42 m 1
 58 42 l 1
 58 41 l 1
 60 41 l 1
 60 43 l 1
 59 43 l 1
 59 42 l 1
55 39 m 1
 53 39 l 1
 53 37 l 1
 55 37 l 1
 55 39 l 1
63 43 m 1
 61 43 l 1
 61 41 l 1
 63 41 l 1
 63 43 l 1
63 39 m 1
 61 39 l 1
 61 37 l 1
 63 37 l 1
 63 39 l 1
55 35 m 1
 53 35 l 1
 53 33 l 1
 55 33 l 1
 55 35 l 1
55 31 m 1
 53 31 l 1
 53 29 l 1
 55 29 l 1
 55 31 l 1
63 35 m 1
 61 35 l 1
 61 33 l 1
 63 33 l 1
 63 35 l 1
63 31 m 1
 61 31 l 1
 61 29 l 1
 63 29 l 1
 63 31 l 1
31 27 m 1
 29 27 l 1
 29 25 l 1
 31 25 l 1
 31 27 l 1
49 27 m 1
 47 27 l 1
 47 25 l 1
 49 25 l 1
 49 27 l 1
55 27 m 1
 53 27 l 1
 53 25 l 1
 55 25 l 1
 55 27 l 1
58 27 m 1
 56 27 l 1
 56 25 l 1
 57 25 l 1
 57 26 l 1
 58 26 l 1
 58 27 l 1
59 26 m 1
 58 26 l 1
 58 25 l 1
 60 25 l 1
 60 27 l 1
 59 27 l 1
 59 26 l 1
63 27 m 1
 61 27 l 1
 61 25 l 1
 63 25 l 1
 63 27 l 1
EndSplineSet
EndChar

StartChar: custom_4_0_0_2_8
Encoding: 31996 31996 12028
Width: 70
Flags: H
LayerCount: 2
Fore
SplineSet
23 43 m 1
 21 43 l 1
 21 41 l 1
 23 41 l 1
 23 43 l 1
26 43 m 1
 24 43 l 1
 24 41 l 1
 25 41 l 1
 25 42 l 1
 26 42 l 1
 26 43 l 1
27 42 m 1
 26 42 l 1
 26 41 l 1
 28 41 l 1
 28 43 l 1
 27 43 l 1
 27 42 l 1
31 43 m 1
 29 43 l 1
 29 41 l 1
 31 41 l 1
 31 43 l 1
31 39 m 1
 29 39 l 1
 29 37 l 1
 31 37 l 1
 31 39 l 1
36 37 m 1
 34 37 l 1
 34 35 l 1
 36 35 l 1
 36 37 l 1
31 35 m 1
 29 35 l 1
 29 33 l 1
 31 33 l 1
 31 35 l 1
36 33 m 1
 34 33 l 1
 34 31 l 1
 36 31 l 1
 36 33 l 1
31 31 m 1
 29 31 l 1
 29 29 l 1
 31 29 l 1
 31 31 l 1
41 43 m 1
 39 43 l 1
 39 41 l 1
 41 41 l 1
 41 43 l 1
41 39 m 1
 39 39 l 1
 39 37 l 1
 41 37 l 1
 41 39 l 1
49 43 m 1
 47 43 l 1
 47 41 l 1
 49 41 l 1
 49 43 l 1
49 39 m 1
 47 39 l 1
 47 37 l 1
 49 37 l 1
 49 39 l 1
41 35 m 1
 39 35 l 1
 39 33 l 1
 41 33 l 1
 41 35 l 1
43 35 m 1
 42 35 l 1
 42 33 l 1
 44 33 l 1
 44 34 l 1
 43 34 l 1
 43 35 l 1
46 35 m 1
 44 35 l 1
 44 34 l 1
 45 34 l 1
 45 33 l 1
 46 33 l 1
 46 35 l 1
49 35 m 1
 47 35 l 1
 47 33 l 1
 49 33 l 1
 49 35 l 1
49 31 m 1
 47 31 l 1
 47 29 l 1
 49 29 l 1
 49 31 l 1
55 43 m 1
 53 43 l 1
 53 41 l 1
 55 41 l 1
 55 43 l 1
58 43 m 1
 56 43 l 1
 56 41 l 1
 57 41 l 1
 57 42 l 1
 58 42 l 1
 58 43 l 1
59 42 m 1
 58 42 l 1
 58 41 l 1
 60 41 l 1
 60 43 l 1
 59 43 l 1
 59 42 l 1
55 39 m 1
 53 39 l 1
 53 37 l 1
 55 37 l 1
 55 39 l 1
63 43 m 1
 61 43 l 1
 61 41 l 1
 63 41 l 1
 63 43 l 1
63 39 m 1
 61 39 l 1
 61 37 l 1
 63 37 l 1
 63 39 l 1
55 35 m 1
 53 35 l 1
 53 33 l 1
 55 33 l 1
 55 35 l 1
55 31 m 1
 53 31 l 1
 53 29 l 1
 55 29 l 1
 55 31 l 1
63 35 m 1
 61 35 l 1
 61 33 l 1
 63 33 l 1
 63 35 l 1
63 31 m 1
 61 31 l 1
 61 29 l 1
 63 29 l 1
 63 31 l 1
31 27 m 1
 29 27 l 1
 29 25 l 1
 31 25 l 1
 31 27 l 1
49 27 m 1
 47 27 l 1
 47 25 l 1
 49 25 l 1
 49 27 l 1
55 27 m 1
 53 27 l 1
 53 25 l 1
 55 25 l 1
 55 27 l 1
58 27 m 1
 56 27 l 1
 56 25 l 1
 57 25 l 1
 57 26 l 1
 58 26 l 1
 58 27 l 1
59 26 m 1
 58 26 l 1
 58 25 l 1
 60 25 l 1
 60 27 l 1
 59 27 l 1
 59 26 l 1
63 27 m 1
 61 27 l 1
 61 25 l 1
 63 25 l 1
 63 27 l 1
EndSplineSet
EndChar

StartChar: custom_4_0_0_2_9
Encoding: 31997 31997 12029
Width: 70
Flags: H
LayerCount: 2
Fore
SplineSet
23 43 m 1
 21 43 l 1
 21 41 l 1
 23 41 l 1
 23 43 l 1
26 43 m 1
 24 43 l 1
 24 41 l 1
 25 41 l 1
 25 42 l 1
 26 42 l 1
 26 43 l 1
27 42 m 1
 26 42 l 1
 26 41 l 1
 28 41 l 1
 28 43 l 1
 27 43 l 1
 27 42 l 1
31 43 m 1
 29 43 l 1
 29 41 l 1
 31 41 l 1
 31 43 l 1
31 39 m 1
 29 39 l 1
 29 37 l 1
 31 37 l 1
 31 39 l 1
36 37 m 1
 34 37 l 1
 34 35 l 1
 36 35 l 1
 36 37 l 1
31 35 m 1
 29 35 l 1
 29 33 l 1
 31 33 l 1
 31 35 l 1
36 33 m 1
 34 33 l 1
 34 31 l 1
 36 31 l 1
 36 33 l 1
31 31 m 1
 29 31 l 1
 29 29 l 1
 31 29 l 1
 31 31 l 1
41 43 m 1
 39 43 l 1
 39 41 l 1
 41 41 l 1
 41 43 l 1
41 39 m 1
 39 39 l 1
 39 37 l 1
 41 37 l 1
 41 39 l 1
49 43 m 1
 47 43 l 1
 47 41 l 1
 49 41 l 1
 49 43 l 1
49 39 m 1
 47 39 l 1
 47 37 l 1
 49 37 l 1
 49 39 l 1
41 35 m 1
 39 35 l 1
 39 33 l 1
 41 33 l 1
 41 35 l 1
43 35 m 1
 42 35 l 1
 42 33 l 1
 44 33 l 1
 44 34 l 1
 43 34 l 1
 43 35 l 1
46 35 m 1
 44 35 l 1
 44 34 l 1
 45 34 l 1
 45 33 l 1
 46 33 l 1
 46 35 l 1
49 35 m 1
 47 35 l 1
 47 33 l 1
 49 33 l 1
 49 35 l 1
49 31 m 1
 47 31 l 1
 47 29 l 1
 49 29 l 1
 49 31 l 1
55 43 m 1
 53 43 l 1
 53 41 l 1
 55 41 l 1
 55 43 l 1
58 43 m 1
 56 43 l 1
 56 41 l 1
 57 41 l 1
 57 42 l 1
 58 42 l 1
 58 43 l 1
59 42 m 1
 58 42 l 1
 58 41 l 1
 60 41 l 1
 60 43 l 1
 59 43 l 1
 59 42 l 1
55 39 m 1
 53 39 l 1
 53 37 l 1
 55 37 l 1
 55 39 l 1
63 43 m 1
 61 43 l 1
 61 41 l 1
 63 41 l 1
 63 43 l 1
63 39 m 1
 61 39 l 1
 61 37 l 1
 63 37 l 1
 63 39 l 1
55 35 m 1
 53 35 l 1
 53 33 l 1
 55 33 l 1
 55 35 l 1
55 31 m 1
 53 31 l 1
 53 29 l 1
 55 29 l 1
 55 31 l 1
63 35 m 1
 61 35 l 1
 61 33 l 1
 63 33 l 1
 63 35 l 1
63 31 m 1
 61 31 l 1
 61 29 l 1
 63 29 l 1
 63 31 l 1
31 27 m 1
 29 27 l 1
 29 25 l 1
 31 25 l 1
 31 27 l 1
49 27 m 1
 47 27 l 1
 47 25 l 1
 49 25 l 1
 49 27 l 1
55 27 m 1
 53 27 l 1
 53 25 l 1
 55 25 l 1
 55 27 l 1
58 27 m 1
 56 27 l 1
 56 25 l 1
 57 25 l 1
 57 26 l 1
 58 26 l 1
 58 27 l 1
59 26 m 1
 58 26 l 1
 58 25 l 1
 60 25 l 1
 60 27 l 1
 59 27 l 1
 59 26 l 1
63 27 m 1
 61 27 l 1
 61 25 l 1
 63 25 l 1
 63 27 l 1
EndSplineSet
EndChar

StartChar: custom_4_0_0_3_0
Encoding: 31998 31998 12030
Width: 70
Flags: H
LayerCount: 2
Fore
SplineSet
23 43 m 1
 21 43 l 1
 21 41 l 1
 23 41 l 1
 23 43 l 1
26 43 m 1
 24 43 l 1
 24 41 l 1
 25 41 l 1
 25 42 l 1
 26 42 l 1
 26 43 l 1
27 42 m 1
 26 42 l 1
 26 41 l 1
 28 41 l 1
 28 43 l 1
 27 43 l 1
 27 42 l 1
31 43 m 1
 29 43 l 1
 29 41 l 1
 31 41 l 1
 31 43 l 1
31 39 m 1
 29 39 l 1
 29 37 l 1
 31 37 l 1
 31 39 l 1
36 37 m 1
 34 37 l 1
 34 35 l 1
 36 35 l 1
 36 37 l 1
31 35 m 1
 29 35 l 1
 29 33 l 1
 31 33 l 1
 31 35 l 1
36 33 m 1
 34 33 l 1
 34 31 l 1
 36 31 l 1
 36 33 l 1
31 31 m 1
 29 31 l 1
 29 29 l 1
 31 29 l 1
 31 31 l 1
41 43 m 1
 39 43 l 1
 39 41 l 1
 41 41 l 1
 41 43 l 1
41 39 m 1
 39 39 l 1
 39 37 l 1
 41 37 l 1
 41 39 l 1
49 43 m 1
 47 43 l 1
 47 41 l 1
 49 41 l 1
 49 43 l 1
49 39 m 1
 47 39 l 1
 47 37 l 1
 49 37 l 1
 49 39 l 1
41 35 m 1
 39 35 l 1
 39 33 l 1
 41 33 l 1
 41 35 l 1
43 35 m 1
 42 35 l 1
 42 33 l 1
 44 33 l 1
 44 34 l 1
 43 34 l 1
 43 35 l 1
46 35 m 1
 44 35 l 1
 44 34 l 1
 45 34 l 1
 45 33 l 1
 46 33 l 1
 46 35 l 1
49 35 m 1
 47 35 l 1
 47 33 l 1
 49 33 l 1
 49 35 l 1
49 31 m 1
 47 31 l 1
 47 29 l 1
 49 29 l 1
 49 31 l 1
55 43 m 1
 53 43 l 1
 53 41 l 1
 55 41 l 1
 55 43 l 1
58 43 m 1
 56 43 l 1
 56 41 l 1
 57 41 l 1
 57 42 l 1
 58 42 l 1
 58 43 l 1
59 42 m 1
 58 42 l 1
 58 41 l 1
 60 41 l 1
 60 43 l 1
 59 43 l 1
 59 42 l 1
55 39 m 1
 53 39 l 1
 53 37 l 1
 55 37 l 1
 55 39 l 1
63 43 m 1
 61 43 l 1
 61 41 l 1
 63 41 l 1
 63 43 l 1
63 39 m 1
 61 39 l 1
 61 37 l 1
 63 37 l 1
 63 39 l 1
55 35 m 1
 53 35 l 1
 53 33 l 1
 55 33 l 1
 55 35 l 1
55 31 m 1
 53 31 l 1
 53 29 l 1
 55 29 l 1
 55 31 l 1
63 35 m 1
 61 35 l 1
 61 33 l 1
 63 33 l 1
 63 35 l 1
63 31 m 1
 61 31 l 1
 61 29 l 1
 63 29 l 1
 63 31 l 1
31 27 m 1
 29 27 l 1
 29 25 l 1
 31 25 l 1
 31 27 l 1
49 27 m 1
 47 27 l 1
 47 25 l 1
 49 25 l 1
 49 27 l 1
55 27 m 1
 53 27 l 1
 53 25 l 1
 55 25 l 1
 55 27 l 1
58 27 m 1
 56 27 l 1
 56 25 l 1
 57 25 l 1
 57 26 l 1
 58 26 l 1
 58 27 l 1
59 26 m 1
 58 26 l 1
 58 25 l 1
 60 25 l 1
 60 27 l 1
 59 27 l 1
 59 26 l 1
63 27 m 1
 61 27 l 1
 61 25 l 1
 63 25 l 1
 63 27 l 1
EndSplineSet
EndChar

StartChar: custom_4_0_0_3_1
Encoding: 31999 31999 12031
Width: 70
Flags: H
LayerCount: 2
Fore
SplineSet
23 43 m 1
 21 43 l 1
 21 41 l 1
 23 41 l 1
 23 43 l 1
26 43 m 1
 24 43 l 1
 24 41 l 1
 25 41 l 1
 25 42 l 1
 26 42 l 1
 26 43 l 1
27 42 m 1
 26 42 l 1
 26 41 l 1
 28 41 l 1
 28 43 l 1
 27 43 l 1
 27 42 l 1
31 43 m 1
 29 43 l 1
 29 41 l 1
 31 41 l 1
 31 43 l 1
31 39 m 1
 29 39 l 1
 29 37 l 1
 31 37 l 1
 31 39 l 1
36 37 m 1
 34 37 l 1
 34 35 l 1
 36 35 l 1
 36 37 l 1
31 35 m 1
 29 35 l 1
 29 33 l 1
 31 33 l 1
 31 35 l 1
36 33 m 1
 34 33 l 1
 34 31 l 1
 36 31 l 1
 36 33 l 1
31 31 m 1
 29 31 l 1
 29 29 l 1
 31 29 l 1
 31 31 l 1
41 43 m 1
 39 43 l 1
 39 41 l 1
 41 41 l 1
 41 43 l 1
41 39 m 1
 39 39 l 1
 39 37 l 1
 41 37 l 1
 41 39 l 1
49 43 m 1
 47 43 l 1
 47 41 l 1
 49 41 l 1
 49 43 l 1
49 39 m 1
 47 39 l 1
 47 37 l 1
 49 37 l 1
 49 39 l 1
41 35 m 1
 39 35 l 1
 39 33 l 1
 41 33 l 1
 41 35 l 1
43 35 m 1
 42 35 l 1
 42 33 l 1
 44 33 l 1
 44 34 l 1
 43 34 l 1
 43 35 l 1
46 35 m 1
 44 35 l 1
 44 34 l 1
 45 34 l 1
 45 33 l 1
 46 33 l 1
 46 35 l 1
49 35 m 1
 47 35 l 1
 47 33 l 1
 49 33 l 1
 49 35 l 1
49 31 m 1
 47 31 l 1
 47 29 l 1
 49 29 l 1
 49 31 l 1
55 43 m 1
 53 43 l 1
 53 41 l 1
 55 41 l 1
 55 43 l 1
58 43 m 1
 56 43 l 1
 56 41 l 1
 57 41 l 1
 57 42 l 1
 58 42 l 1
 58 43 l 1
59 42 m 1
 58 42 l 1
 58 41 l 1
 60 41 l 1
 60 43 l 1
 59 43 l 1
 59 42 l 1
55 39 m 1
 53 39 l 1
 53 37 l 1
 55 37 l 1
 55 39 l 1
63 43 m 1
 61 43 l 1
 61 41 l 1
 63 41 l 1
 63 43 l 1
63 39 m 1
 61 39 l 1
 61 37 l 1
 63 37 l 1
 63 39 l 1
55 35 m 1
 53 35 l 1
 53 33 l 1
 55 33 l 1
 55 35 l 1
55 31 m 1
 53 31 l 1
 53 29 l 1
 55 29 l 1
 55 31 l 1
63 35 m 1
 61 35 l 1
 61 33 l 1
 63 33 l 1
 63 35 l 1
63 31 m 1
 61 31 l 1
 61 29 l 1
 63 29 l 1
 63 31 l 1
31 27 m 1
 29 27 l 1
 29 25 l 1
 31 25 l 1
 31 27 l 1
49 27 m 1
 47 27 l 1
 47 25 l 1
 49 25 l 1
 49 27 l 1
55 27 m 1
 53 27 l 1
 53 25 l 1
 55 25 l 1
 55 27 l 1
58 27 m 1
 56 27 l 1
 56 25 l 1
 57 25 l 1
 57 26 l 1
 58 26 l 1
 58 27 l 1
59 26 m 1
 58 26 l 1
 58 25 l 1
 60 25 l 1
 60 27 l 1
 59 27 l 1
 59 26 l 1
63 27 m 1
 61 27 l 1
 61 25 l 1
 63 25 l 1
 63 27 l 1
EndSplineSet
EndChar

StartChar: custom_4_0_0_3_2
Encoding: 32000 32000 12032
Width: 70
Flags: H
LayerCount: 2
Fore
SplineSet
23 43 m 1
 21 43 l 1
 21 41 l 1
 23 41 l 1
 23 43 l 1
26 43 m 1
 24 43 l 1
 24 41 l 1
 25 41 l 1
 25 42 l 1
 26 42 l 1
 26 43 l 1
27 42 m 1
 26 42 l 1
 26 41 l 1
 28 41 l 1
 28 43 l 1
 27 43 l 1
 27 42 l 1
31 43 m 1
 29 43 l 1
 29 41 l 1
 31 41 l 1
 31 43 l 1
31 39 m 1
 29 39 l 1
 29 37 l 1
 31 37 l 1
 31 39 l 1
36 37 m 1
 34 37 l 1
 34 35 l 1
 36 35 l 1
 36 37 l 1
31 35 m 1
 29 35 l 1
 29 33 l 1
 31 33 l 1
 31 35 l 1
36 33 m 1
 34 33 l 1
 34 31 l 1
 36 31 l 1
 36 33 l 1
31 31 m 1
 29 31 l 1
 29 29 l 1
 31 29 l 1
 31 31 l 1
41 43 m 1
 39 43 l 1
 39 41 l 1
 41 41 l 1
 41 43 l 1
41 39 m 1
 39 39 l 1
 39 37 l 1
 41 37 l 1
 41 39 l 1
49 43 m 1
 47 43 l 1
 47 41 l 1
 49 41 l 1
 49 43 l 1
49 39 m 1
 47 39 l 1
 47 37 l 1
 49 37 l 1
 49 39 l 1
41 35 m 1
 39 35 l 1
 39 33 l 1
 41 33 l 1
 41 35 l 1
43 35 m 1
 42 35 l 1
 42 33 l 1
 44 33 l 1
 44 34 l 1
 43 34 l 1
 43 35 l 1
46 35 m 1
 44 35 l 1
 44 34 l 1
 45 34 l 1
 45 33 l 1
 46 33 l 1
 46 35 l 1
49 35 m 1
 47 35 l 1
 47 33 l 1
 49 33 l 1
 49 35 l 1
49 31 m 1
 47 31 l 1
 47 29 l 1
 49 29 l 1
 49 31 l 1
55 43 m 1
 53 43 l 1
 53 41 l 1
 55 41 l 1
 55 43 l 1
58 43 m 1
 56 43 l 1
 56 41 l 1
 57 41 l 1
 57 42 l 1
 58 42 l 1
 58 43 l 1
59 42 m 1
 58 42 l 1
 58 41 l 1
 60 41 l 1
 60 43 l 1
 59 43 l 1
 59 42 l 1
55 39 m 1
 53 39 l 1
 53 37 l 1
 55 37 l 1
 55 39 l 1
63 43 m 1
 61 43 l 1
 61 41 l 1
 63 41 l 1
 63 43 l 1
63 39 m 1
 61 39 l 1
 61 37 l 1
 63 37 l 1
 63 39 l 1
55 35 m 1
 53 35 l 1
 53 33 l 1
 55 33 l 1
 55 35 l 1
55 31 m 1
 53 31 l 1
 53 29 l 1
 55 29 l 1
 55 31 l 1
63 35 m 1
 61 35 l 1
 61 33 l 1
 63 33 l 1
 63 35 l 1
63 31 m 1
 61 31 l 1
 61 29 l 1
 63 29 l 1
 63 31 l 1
31 27 m 1
 29 27 l 1
 29 25 l 1
 31 25 l 1
 31 27 l 1
49 27 m 1
 47 27 l 1
 47 25 l 1
 49 25 l 1
 49 27 l 1
55 27 m 1
 53 27 l 1
 53 25 l 1
 55 25 l 1
 55 27 l 1
58 27 m 1
 56 27 l 1
 56 25 l 1
 57 25 l 1
 57 26 l 1
 58 26 l 1
 58 27 l 1
59 26 m 1
 58 26 l 1
 58 25 l 1
 60 25 l 1
 60 27 l 1
 59 27 l 1
 59 26 l 1
63 27 m 1
 61 27 l 1
 61 25 l 1
 63 25 l 1
 63 27 l 1
EndSplineSet
EndChar

StartChar: custom_4_0_0_3_3
Encoding: 32001 32001 12033
Width: 70
Flags: H
LayerCount: 2
Fore
SplineSet
23 43 m 1
 21 43 l 1
 21 41 l 1
 23 41 l 1
 23 43 l 1
26 43 m 1
 24 43 l 1
 24 41 l 1
 25 41 l 1
 25 42 l 1
 26 42 l 1
 26 43 l 1
27 42 m 1
 26 42 l 1
 26 41 l 1
 28 41 l 1
 28 43 l 1
 27 43 l 1
 27 42 l 1
31 43 m 1
 29 43 l 1
 29 41 l 1
 31 41 l 1
 31 43 l 1
31 39 m 1
 29 39 l 1
 29 37 l 1
 31 37 l 1
 31 39 l 1
36 37 m 1
 34 37 l 1
 34 35 l 1
 36 35 l 1
 36 37 l 1
31 35 m 1
 29 35 l 1
 29 33 l 1
 31 33 l 1
 31 35 l 1
36 33 m 1
 34 33 l 1
 34 31 l 1
 36 31 l 1
 36 33 l 1
31 31 m 1
 29 31 l 1
 29 29 l 1
 31 29 l 1
 31 31 l 1
41 43 m 1
 39 43 l 1
 39 41 l 1
 41 41 l 1
 41 43 l 1
41 39 m 1
 39 39 l 1
 39 37 l 1
 41 37 l 1
 41 39 l 1
49 43 m 1
 47 43 l 1
 47 41 l 1
 49 41 l 1
 49 43 l 1
49 39 m 1
 47 39 l 1
 47 37 l 1
 49 37 l 1
 49 39 l 1
41 35 m 1
 39 35 l 1
 39 33 l 1
 41 33 l 1
 41 35 l 1
43 35 m 1
 42 35 l 1
 42 33 l 1
 44 33 l 1
 44 34 l 1
 43 34 l 1
 43 35 l 1
46 35 m 1
 44 35 l 1
 44 34 l 1
 45 34 l 1
 45 33 l 1
 46 33 l 1
 46 35 l 1
49 35 m 1
 47 35 l 1
 47 33 l 1
 49 33 l 1
 49 35 l 1
49 31 m 1
 47 31 l 1
 47 29 l 1
 49 29 l 1
 49 31 l 1
55 43 m 1
 53 43 l 1
 53 41 l 1
 55 41 l 1
 55 43 l 1
58 43 m 1
 56 43 l 1
 56 41 l 1
 57 41 l 1
 57 42 l 1
 58 42 l 1
 58 43 l 1
59 42 m 1
 58 42 l 1
 58 41 l 1
 60 41 l 1
 60 43 l 1
 59 43 l 1
 59 42 l 1
55 39 m 1
 53 39 l 1
 53 37 l 1
 55 37 l 1
 55 39 l 1
63 43 m 1
 61 43 l 1
 61 41 l 1
 63 41 l 1
 63 43 l 1
63 39 m 1
 61 39 l 1
 61 37 l 1
 63 37 l 1
 63 39 l 1
55 35 m 1
 53 35 l 1
 53 33 l 1
 55 33 l 1
 55 35 l 1
55 31 m 1
 53 31 l 1
 53 29 l 1
 55 29 l 1
 55 31 l 1
63 35 m 1
 61 35 l 1
 61 33 l 1
 63 33 l 1
 63 35 l 1
63 31 m 1
 61 31 l 1
 61 29 l 1
 63 29 l 1
 63 31 l 1
31 27 m 1
 29 27 l 1
 29 25 l 1
 31 25 l 1
 31 27 l 1
49 27 m 1
 47 27 l 1
 47 25 l 1
 49 25 l 1
 49 27 l 1
55 27 m 1
 53 27 l 1
 53 25 l 1
 55 25 l 1
 55 27 l 1
58 27 m 1
 56 27 l 1
 56 25 l 1
 57 25 l 1
 57 26 l 1
 58 26 l 1
 58 27 l 1
59 26 m 1
 58 26 l 1
 58 25 l 1
 60 25 l 1
 60 27 l 1
 59 27 l 1
 59 26 l 1
63 27 m 1
 61 27 l 1
 61 25 l 1
 63 25 l 1
 63 27 l 1
EndSplineSet
EndChar

StartChar: custom_4_0_0_3_4
Encoding: 32002 32002 12034
Width: 70
Flags: H
LayerCount: 2
Fore
SplineSet
23 43 m 1
 21 43 l 1
 21 41 l 1
 23 41 l 1
 23 43 l 1
26 43 m 1
 24 43 l 1
 24 41 l 1
 25 41 l 1
 25 42 l 1
 26 42 l 1
 26 43 l 1
27 42 m 1
 26 42 l 1
 26 41 l 1
 28 41 l 1
 28 43 l 1
 27 43 l 1
 27 42 l 1
31 43 m 1
 29 43 l 1
 29 41 l 1
 31 41 l 1
 31 43 l 1
31 39 m 1
 29 39 l 1
 29 37 l 1
 31 37 l 1
 31 39 l 1
36 37 m 1
 34 37 l 1
 34 35 l 1
 36 35 l 1
 36 37 l 1
31 35 m 1
 29 35 l 1
 29 33 l 1
 31 33 l 1
 31 35 l 1
36 33 m 1
 34 33 l 1
 34 31 l 1
 36 31 l 1
 36 33 l 1
31 31 m 1
 29 31 l 1
 29 29 l 1
 31 29 l 1
 31 31 l 1
41 43 m 1
 39 43 l 1
 39 41 l 1
 41 41 l 1
 41 43 l 1
41 39 m 1
 39 39 l 1
 39 37 l 1
 41 37 l 1
 41 39 l 1
49 43 m 1
 47 43 l 1
 47 41 l 1
 49 41 l 1
 49 43 l 1
49 39 m 1
 47 39 l 1
 47 37 l 1
 49 37 l 1
 49 39 l 1
41 35 m 1
 39 35 l 1
 39 33 l 1
 41 33 l 1
 41 35 l 1
43 35 m 1
 42 35 l 1
 42 33 l 1
 44 33 l 1
 44 34 l 1
 43 34 l 1
 43 35 l 1
46 35 m 1
 44 35 l 1
 44 34 l 1
 45 34 l 1
 45 33 l 1
 46 33 l 1
 46 35 l 1
49 35 m 1
 47 35 l 1
 47 33 l 1
 49 33 l 1
 49 35 l 1
49 31 m 1
 47 31 l 1
 47 29 l 1
 49 29 l 1
 49 31 l 1
55 43 m 1
 53 43 l 1
 53 41 l 1
 55 41 l 1
 55 43 l 1
58 43 m 1
 56 43 l 1
 56 41 l 1
 57 41 l 1
 57 42 l 1
 58 42 l 1
 58 43 l 1
59 42 m 1
 58 42 l 1
 58 41 l 1
 60 41 l 1
 60 43 l 1
 59 43 l 1
 59 42 l 1
55 39 m 1
 53 39 l 1
 53 37 l 1
 55 37 l 1
 55 39 l 1
63 43 m 1
 61 43 l 1
 61 41 l 1
 63 41 l 1
 63 43 l 1
63 39 m 1
 61 39 l 1
 61 37 l 1
 63 37 l 1
 63 39 l 1
55 35 m 1
 53 35 l 1
 53 33 l 1
 55 33 l 1
 55 35 l 1
55 31 m 1
 53 31 l 1
 53 29 l 1
 55 29 l 1
 55 31 l 1
63 35 m 1
 61 35 l 1
 61 33 l 1
 63 33 l 1
 63 35 l 1
63 31 m 1
 61 31 l 1
 61 29 l 1
 63 29 l 1
 63 31 l 1
31 27 m 1
 29 27 l 1
 29 25 l 1
 31 25 l 1
 31 27 l 1
49 27 m 1
 47 27 l 1
 47 25 l 1
 49 25 l 1
 49 27 l 1
55 27 m 1
 53 27 l 1
 53 25 l 1
 55 25 l 1
 55 27 l 1
58 27 m 1
 56 27 l 1
 56 25 l 1
 57 25 l 1
 57 26 l 1
 58 26 l 1
 58 27 l 1
59 26 m 1
 58 26 l 1
 58 25 l 1
 60 25 l 1
 60 27 l 1
 59 27 l 1
 59 26 l 1
63 27 m 1
 61 27 l 1
 61 25 l 1
 63 25 l 1
 63 27 l 1
EndSplineSet
EndChar

StartChar: custom_4_0_0_3_5
Encoding: 32003 32003 12035
Width: 70
Flags: H
LayerCount: 2
Fore
SplineSet
23 43 m 1
 21 43 l 1
 21 41 l 1
 23 41 l 1
 23 43 l 1
26 43 m 1
 24 43 l 1
 24 41 l 1
 25 41 l 1
 25 42 l 1
 26 42 l 1
 26 43 l 1
27 42 m 1
 26 42 l 1
 26 41 l 1
 28 41 l 1
 28 43 l 1
 27 43 l 1
 27 42 l 1
31 43 m 1
 29 43 l 1
 29 41 l 1
 31 41 l 1
 31 43 l 1
31 39 m 1
 29 39 l 1
 29 37 l 1
 31 37 l 1
 31 39 l 1
36 37 m 1
 34 37 l 1
 34 35 l 1
 36 35 l 1
 36 37 l 1
31 35 m 1
 29 35 l 1
 29 33 l 1
 31 33 l 1
 31 35 l 1
36 33 m 1
 34 33 l 1
 34 31 l 1
 36 31 l 1
 36 33 l 1
31 31 m 1
 29 31 l 1
 29 29 l 1
 31 29 l 1
 31 31 l 1
41 43 m 1
 39 43 l 1
 39 41 l 1
 41 41 l 1
 41 43 l 1
41 39 m 1
 39 39 l 1
 39 37 l 1
 41 37 l 1
 41 39 l 1
49 43 m 1
 47 43 l 1
 47 41 l 1
 49 41 l 1
 49 43 l 1
49 39 m 1
 47 39 l 1
 47 37 l 1
 49 37 l 1
 49 39 l 1
41 35 m 1
 39 35 l 1
 39 33 l 1
 41 33 l 1
 41 35 l 1
43 35 m 1
 42 35 l 1
 42 33 l 1
 44 33 l 1
 44 34 l 1
 43 34 l 1
 43 35 l 1
46 35 m 1
 44 35 l 1
 44 34 l 1
 45 34 l 1
 45 33 l 1
 46 33 l 1
 46 35 l 1
49 35 m 1
 47 35 l 1
 47 33 l 1
 49 33 l 1
 49 35 l 1
49 31 m 1
 47 31 l 1
 47 29 l 1
 49 29 l 1
 49 31 l 1
55 43 m 1
 53 43 l 1
 53 41 l 1
 55 41 l 1
 55 43 l 1
58 43 m 1
 56 43 l 1
 56 41 l 1
 57 41 l 1
 57 42 l 1
 58 42 l 1
 58 43 l 1
59 42 m 1
 58 42 l 1
 58 41 l 1
 60 41 l 1
 60 43 l 1
 59 43 l 1
 59 42 l 1
55 39 m 1
 53 39 l 1
 53 37 l 1
 55 37 l 1
 55 39 l 1
63 43 m 1
 61 43 l 1
 61 41 l 1
 63 41 l 1
 63 43 l 1
63 39 m 1
 61 39 l 1
 61 37 l 1
 63 37 l 1
 63 39 l 1
55 35 m 1
 53 35 l 1
 53 33 l 1
 55 33 l 1
 55 35 l 1
55 31 m 1
 53 31 l 1
 53 29 l 1
 55 29 l 1
 55 31 l 1
63 35 m 1
 61 35 l 1
 61 33 l 1
 63 33 l 1
 63 35 l 1
63 31 m 1
 61 31 l 1
 61 29 l 1
 63 29 l 1
 63 31 l 1
31 27 m 1
 29 27 l 1
 29 25 l 1
 31 25 l 1
 31 27 l 1
49 27 m 1
 47 27 l 1
 47 25 l 1
 49 25 l 1
 49 27 l 1
55 27 m 1
 53 27 l 1
 53 25 l 1
 55 25 l 1
 55 27 l 1
58 27 m 1
 56 27 l 1
 56 25 l 1
 57 25 l 1
 57 26 l 1
 58 26 l 1
 58 27 l 1
59 26 m 1
 58 26 l 1
 58 25 l 1
 60 25 l 1
 60 27 l 1
 59 27 l 1
 59 26 l 1
63 27 m 1
 61 27 l 1
 61 25 l 1
 63 25 l 1
 63 27 l 1
EndSplineSet
EndChar

StartChar: custom_4_0_0_3_6
Encoding: 32004 32004 12036
Width: 70
Flags: H
LayerCount: 2
Fore
SplineSet
23 43 m 1
 21 43 l 1
 21 41 l 1
 23 41 l 1
 23 43 l 1
26 43 m 1
 24 43 l 1
 24 41 l 1
 25 41 l 1
 25 42 l 1
 26 42 l 1
 26 43 l 1
27 42 m 1
 26 42 l 1
 26 41 l 1
 28 41 l 1
 28 43 l 1
 27 43 l 1
 27 42 l 1
31 43 m 1
 29 43 l 1
 29 41 l 1
 31 41 l 1
 31 43 l 1
31 39 m 1
 29 39 l 1
 29 37 l 1
 31 37 l 1
 31 39 l 1
36 37 m 1
 34 37 l 1
 34 35 l 1
 36 35 l 1
 36 37 l 1
31 35 m 1
 29 35 l 1
 29 33 l 1
 31 33 l 1
 31 35 l 1
36 33 m 1
 34 33 l 1
 34 31 l 1
 36 31 l 1
 36 33 l 1
31 31 m 1
 29 31 l 1
 29 29 l 1
 31 29 l 1
 31 31 l 1
41 43 m 1
 39 43 l 1
 39 41 l 1
 41 41 l 1
 41 43 l 1
41 39 m 1
 39 39 l 1
 39 37 l 1
 41 37 l 1
 41 39 l 1
49 43 m 1
 47 43 l 1
 47 41 l 1
 49 41 l 1
 49 43 l 1
49 39 m 1
 47 39 l 1
 47 37 l 1
 49 37 l 1
 49 39 l 1
41 35 m 1
 39 35 l 1
 39 33 l 1
 41 33 l 1
 41 35 l 1
43 35 m 1
 42 35 l 1
 42 33 l 1
 44 33 l 1
 44 34 l 1
 43 34 l 1
 43 35 l 1
46 35 m 1
 44 35 l 1
 44 34 l 1
 45 34 l 1
 45 33 l 1
 46 33 l 1
 46 35 l 1
49 35 m 1
 47 35 l 1
 47 33 l 1
 49 33 l 1
 49 35 l 1
49 31 m 1
 47 31 l 1
 47 29 l 1
 49 29 l 1
 49 31 l 1
55 43 m 1
 53 43 l 1
 53 41 l 1
 55 41 l 1
 55 43 l 1
58 43 m 1
 56 43 l 1
 56 41 l 1
 57 41 l 1
 57 42 l 1
 58 42 l 1
 58 43 l 1
59 42 m 1
 58 42 l 1
 58 41 l 1
 60 41 l 1
 60 43 l 1
 59 43 l 1
 59 42 l 1
55 39 m 1
 53 39 l 1
 53 37 l 1
 55 37 l 1
 55 39 l 1
63 43 m 1
 61 43 l 1
 61 41 l 1
 63 41 l 1
 63 43 l 1
63 39 m 1
 61 39 l 1
 61 37 l 1
 63 37 l 1
 63 39 l 1
55 35 m 1
 53 35 l 1
 53 33 l 1
 55 33 l 1
 55 35 l 1
55 31 m 1
 53 31 l 1
 53 29 l 1
 55 29 l 1
 55 31 l 1
63 35 m 1
 61 35 l 1
 61 33 l 1
 63 33 l 1
 63 35 l 1
63 31 m 1
 61 31 l 1
 61 29 l 1
 63 29 l 1
 63 31 l 1
31 27 m 1
 29 27 l 1
 29 25 l 1
 31 25 l 1
 31 27 l 1
49 27 m 1
 47 27 l 1
 47 25 l 1
 49 25 l 1
 49 27 l 1
55 27 m 1
 53 27 l 1
 53 25 l 1
 55 25 l 1
 55 27 l 1
58 27 m 1
 56 27 l 1
 56 25 l 1
 57 25 l 1
 57 26 l 1
 58 26 l 1
 58 27 l 1
59 26 m 1
 58 26 l 1
 58 25 l 1
 60 25 l 1
 60 27 l 1
 59 27 l 1
 59 26 l 1
63 27 m 1
 61 27 l 1
 61 25 l 1
 63 25 l 1
 63 27 l 1
EndSplineSet
EndChar

StartChar: custom_4_0_0_3_7
Encoding: 32005 32005 12037
Width: 70
Flags: H
LayerCount: 2
Fore
SplineSet
23 43 m 1
 21 43 l 1
 21 41 l 1
 23 41 l 1
 23 43 l 1
26 43 m 1
 24 43 l 1
 24 41 l 1
 25 41 l 1
 25 42 l 1
 26 42 l 1
 26 43 l 1
27 42 m 1
 26 42 l 1
 26 41 l 1
 28 41 l 1
 28 43 l 1
 27 43 l 1
 27 42 l 1
31 43 m 1
 29 43 l 1
 29 41 l 1
 31 41 l 1
 31 43 l 1
31 39 m 1
 29 39 l 1
 29 37 l 1
 31 37 l 1
 31 39 l 1
36 37 m 1
 34 37 l 1
 34 35 l 1
 36 35 l 1
 36 37 l 1
31 35 m 1
 29 35 l 1
 29 33 l 1
 31 33 l 1
 31 35 l 1
36 33 m 1
 34 33 l 1
 34 31 l 1
 36 31 l 1
 36 33 l 1
31 31 m 1
 29 31 l 1
 29 29 l 1
 31 29 l 1
 31 31 l 1
41 43 m 1
 39 43 l 1
 39 41 l 1
 41 41 l 1
 41 43 l 1
41 39 m 1
 39 39 l 1
 39 37 l 1
 41 37 l 1
 41 39 l 1
49 43 m 1
 47 43 l 1
 47 41 l 1
 49 41 l 1
 49 43 l 1
49 39 m 1
 47 39 l 1
 47 37 l 1
 49 37 l 1
 49 39 l 1
41 35 m 1
 39 35 l 1
 39 33 l 1
 41 33 l 1
 41 35 l 1
43 35 m 1
 42 35 l 1
 42 33 l 1
 44 33 l 1
 44 34 l 1
 43 34 l 1
 43 35 l 1
46 35 m 1
 44 35 l 1
 44 34 l 1
 45 34 l 1
 45 33 l 1
 46 33 l 1
 46 35 l 1
49 35 m 1
 47 35 l 1
 47 33 l 1
 49 33 l 1
 49 35 l 1
49 31 m 1
 47 31 l 1
 47 29 l 1
 49 29 l 1
 49 31 l 1
55 43 m 1
 53 43 l 1
 53 41 l 1
 55 41 l 1
 55 43 l 1
58 43 m 1
 56 43 l 1
 56 41 l 1
 57 41 l 1
 57 42 l 1
 58 42 l 1
 58 43 l 1
59 42 m 1
 58 42 l 1
 58 41 l 1
 60 41 l 1
 60 43 l 1
 59 43 l 1
 59 42 l 1
55 39 m 1
 53 39 l 1
 53 37 l 1
 55 37 l 1
 55 39 l 1
63 43 m 1
 61 43 l 1
 61 41 l 1
 63 41 l 1
 63 43 l 1
63 39 m 1
 61 39 l 1
 61 37 l 1
 63 37 l 1
 63 39 l 1
55 35 m 1
 53 35 l 1
 53 33 l 1
 55 33 l 1
 55 35 l 1
55 31 m 1
 53 31 l 1
 53 29 l 1
 55 29 l 1
 55 31 l 1
63 35 m 1
 61 35 l 1
 61 33 l 1
 63 33 l 1
 63 35 l 1
63 31 m 1
 61 31 l 1
 61 29 l 1
 63 29 l 1
 63 31 l 1
31 27 m 1
 29 27 l 1
 29 25 l 1
 31 25 l 1
 31 27 l 1
49 27 m 1
 47 27 l 1
 47 25 l 1
 49 25 l 1
 49 27 l 1
55 27 m 1
 53 27 l 1
 53 25 l 1
 55 25 l 1
 55 27 l 1
58 27 m 1
 56 27 l 1
 56 25 l 1
 57 25 l 1
 57 26 l 1
 58 26 l 1
 58 27 l 1
59 26 m 1
 58 26 l 1
 58 25 l 1
 60 25 l 1
 60 27 l 1
 59 27 l 1
 59 26 l 1
63 27 m 1
 61 27 l 1
 61 25 l 1
 63 25 l 1
 63 27 l 1
EndSplineSet
EndChar

StartChar: custom_4_0_0_3_8
Encoding: 32006 32006 12038
Width: 70
Flags: H
LayerCount: 2
Fore
SplineSet
23 43 m 1
 21 43 l 1
 21 41 l 1
 23 41 l 1
 23 43 l 1
26 43 m 1
 24 43 l 1
 24 41 l 1
 25 41 l 1
 25 42 l 1
 26 42 l 1
 26 43 l 1
27 42 m 1
 26 42 l 1
 26 41 l 1
 28 41 l 1
 28 43 l 1
 27 43 l 1
 27 42 l 1
31 43 m 1
 29 43 l 1
 29 41 l 1
 31 41 l 1
 31 43 l 1
31 39 m 1
 29 39 l 1
 29 37 l 1
 31 37 l 1
 31 39 l 1
36 37 m 1
 34 37 l 1
 34 35 l 1
 36 35 l 1
 36 37 l 1
31 35 m 1
 29 35 l 1
 29 33 l 1
 31 33 l 1
 31 35 l 1
36 33 m 1
 34 33 l 1
 34 31 l 1
 36 31 l 1
 36 33 l 1
31 31 m 1
 29 31 l 1
 29 29 l 1
 31 29 l 1
 31 31 l 1
41 43 m 1
 39 43 l 1
 39 41 l 1
 41 41 l 1
 41 43 l 1
41 39 m 1
 39 39 l 1
 39 37 l 1
 41 37 l 1
 41 39 l 1
49 43 m 1
 47 43 l 1
 47 41 l 1
 49 41 l 1
 49 43 l 1
49 39 m 1
 47 39 l 1
 47 37 l 1
 49 37 l 1
 49 39 l 1
41 35 m 1
 39 35 l 1
 39 33 l 1
 41 33 l 1
 41 35 l 1
43 35 m 1
 42 35 l 1
 42 33 l 1
 44 33 l 1
 44 34 l 1
 43 34 l 1
 43 35 l 1
46 35 m 1
 44 35 l 1
 44 34 l 1
 45 34 l 1
 45 33 l 1
 46 33 l 1
 46 35 l 1
49 35 m 1
 47 35 l 1
 47 33 l 1
 49 33 l 1
 49 35 l 1
49 31 m 1
 47 31 l 1
 47 29 l 1
 49 29 l 1
 49 31 l 1
55 43 m 1
 53 43 l 1
 53 41 l 1
 55 41 l 1
 55 43 l 1
58 43 m 1
 56 43 l 1
 56 41 l 1
 57 41 l 1
 57 42 l 1
 58 42 l 1
 58 43 l 1
59 42 m 1
 58 42 l 1
 58 41 l 1
 60 41 l 1
 60 43 l 1
 59 43 l 1
 59 42 l 1
55 39 m 1
 53 39 l 1
 53 37 l 1
 55 37 l 1
 55 39 l 1
63 43 m 1
 61 43 l 1
 61 41 l 1
 63 41 l 1
 63 43 l 1
63 39 m 1
 61 39 l 1
 61 37 l 1
 63 37 l 1
 63 39 l 1
55 35 m 1
 53 35 l 1
 53 33 l 1
 55 33 l 1
 55 35 l 1
55 31 m 1
 53 31 l 1
 53 29 l 1
 55 29 l 1
 55 31 l 1
63 35 m 1
 61 35 l 1
 61 33 l 1
 63 33 l 1
 63 35 l 1
63 31 m 1
 61 31 l 1
 61 29 l 1
 63 29 l 1
 63 31 l 1
31 27 m 1
 29 27 l 1
 29 25 l 1
 31 25 l 1
 31 27 l 1
49 27 m 1
 47 27 l 1
 47 25 l 1
 49 25 l 1
 49 27 l 1
55 27 m 1
 53 27 l 1
 53 25 l 1
 55 25 l 1
 55 27 l 1
58 27 m 1
 56 27 l 1
 56 25 l 1
 57 25 l 1
 57 26 l 1
 58 26 l 1
 58 27 l 1
59 26 m 1
 58 26 l 1
 58 25 l 1
 60 25 l 1
 60 27 l 1
 59 27 l 1
 59 26 l 1
63 27 m 1
 61 27 l 1
 61 25 l 1
 63 25 l 1
 63 27 l 1
EndSplineSet
EndChar

StartChar: custom_4_0_0_3_9
Encoding: 32007 32007 12039
Width: 70
Flags: H
LayerCount: 2
Fore
SplineSet
23 43 m 1
 21 43 l 1
 21 41 l 1
 23 41 l 1
 23 43 l 1
26 43 m 1
 24 43 l 1
 24 41 l 1
 25 41 l 1
 25 42 l 1
 26 42 l 1
 26 43 l 1
27 42 m 1
 26 42 l 1
 26 41 l 1
 28 41 l 1
 28 43 l 1
 27 43 l 1
 27 42 l 1
31 43 m 1
 29 43 l 1
 29 41 l 1
 31 41 l 1
 31 43 l 1
31 39 m 1
 29 39 l 1
 29 37 l 1
 31 37 l 1
 31 39 l 1
36 37 m 1
 34 37 l 1
 34 35 l 1
 36 35 l 1
 36 37 l 1
31 35 m 1
 29 35 l 1
 29 33 l 1
 31 33 l 1
 31 35 l 1
36 33 m 1
 34 33 l 1
 34 31 l 1
 36 31 l 1
 36 33 l 1
31 31 m 1
 29 31 l 1
 29 29 l 1
 31 29 l 1
 31 31 l 1
41 43 m 1
 39 43 l 1
 39 41 l 1
 41 41 l 1
 41 43 l 1
41 39 m 1
 39 39 l 1
 39 37 l 1
 41 37 l 1
 41 39 l 1
49 43 m 1
 47 43 l 1
 47 41 l 1
 49 41 l 1
 49 43 l 1
49 39 m 1
 47 39 l 1
 47 37 l 1
 49 37 l 1
 49 39 l 1
41 35 m 1
 39 35 l 1
 39 33 l 1
 41 33 l 1
 41 35 l 1
43 35 m 1
 42 35 l 1
 42 33 l 1
 44 33 l 1
 44 34 l 1
 43 34 l 1
 43 35 l 1
46 35 m 1
 44 35 l 1
 44 34 l 1
 45 34 l 1
 45 33 l 1
 46 33 l 1
 46 35 l 1
49 35 m 1
 47 35 l 1
 47 33 l 1
 49 33 l 1
 49 35 l 1
49 31 m 1
 47 31 l 1
 47 29 l 1
 49 29 l 1
 49 31 l 1
55 43 m 1
 53 43 l 1
 53 41 l 1
 55 41 l 1
 55 43 l 1
58 43 m 1
 56 43 l 1
 56 41 l 1
 57 41 l 1
 57 42 l 1
 58 42 l 1
 58 43 l 1
59 42 m 1
 58 42 l 1
 58 41 l 1
 60 41 l 1
 60 43 l 1
 59 43 l 1
 59 42 l 1
55 39 m 1
 53 39 l 1
 53 37 l 1
 55 37 l 1
 55 39 l 1
63 43 m 1
 61 43 l 1
 61 41 l 1
 63 41 l 1
 63 43 l 1
63 39 m 1
 61 39 l 1
 61 37 l 1
 63 37 l 1
 63 39 l 1
55 35 m 1
 53 35 l 1
 53 33 l 1
 55 33 l 1
 55 35 l 1
55 31 m 1
 53 31 l 1
 53 29 l 1
 55 29 l 1
 55 31 l 1
63 35 m 1
 61 35 l 1
 61 33 l 1
 63 33 l 1
 63 35 l 1
63 31 m 1
 61 31 l 1
 61 29 l 1
 63 29 l 1
 63 31 l 1
31 27 m 1
 29 27 l 1
 29 25 l 1
 31 25 l 1
 31 27 l 1
49 27 m 1
 47 27 l 1
 47 25 l 1
 49 25 l 1
 49 27 l 1
55 27 m 1
 53 27 l 1
 53 25 l 1
 55 25 l 1
 55 27 l 1
58 27 m 1
 56 27 l 1
 56 25 l 1
 57 25 l 1
 57 26 l 1
 58 26 l 1
 58 27 l 1
59 26 m 1
 58 26 l 1
 58 25 l 1
 60 25 l 1
 60 27 l 1
 59 27 l 1
 59 26 l 1
63 27 m 1
 61 27 l 1
 61 25 l 1
 63 25 l 1
 63 27 l 1
EndSplineSet
EndChar

StartChar: custom_4_0_0_4_0
Encoding: 32008 32008 12040
Width: 70
Flags: H
LayerCount: 2
Fore
SplineSet
23 43 m 1
 21 43 l 1
 21 41 l 1
 23 41 l 1
 23 43 l 1
26 43 m 1
 24 43 l 1
 24 41 l 1
 25 41 l 1
 25 42 l 1
 26 42 l 1
 26 43 l 1
27 42 m 1
 26 42 l 1
 26 41 l 1
 28 41 l 1
 28 43 l 1
 27 43 l 1
 27 42 l 1
31 43 m 1
 29 43 l 1
 29 41 l 1
 31 41 l 1
 31 43 l 1
31 39 m 1
 29 39 l 1
 29 37 l 1
 31 37 l 1
 31 39 l 1
36 37 m 1
 34 37 l 1
 34 35 l 1
 36 35 l 1
 36 37 l 1
31 35 m 1
 29 35 l 1
 29 33 l 1
 31 33 l 1
 31 35 l 1
36 33 m 1
 34 33 l 1
 34 31 l 1
 36 31 l 1
 36 33 l 1
31 31 m 1
 29 31 l 1
 29 29 l 1
 31 29 l 1
 31 31 l 1
41 43 m 1
 39 43 l 1
 39 41 l 1
 41 41 l 1
 41 43 l 1
41 39 m 1
 39 39 l 1
 39 37 l 1
 41 37 l 1
 41 39 l 1
49 43 m 1
 47 43 l 1
 47 41 l 1
 49 41 l 1
 49 43 l 1
49 39 m 1
 47 39 l 1
 47 37 l 1
 49 37 l 1
 49 39 l 1
41 35 m 1
 39 35 l 1
 39 33 l 1
 41 33 l 1
 41 35 l 1
43 35 m 1
 42 35 l 1
 42 33 l 1
 44 33 l 1
 44 34 l 1
 43 34 l 1
 43 35 l 1
46 35 m 1
 44 35 l 1
 44 34 l 1
 45 34 l 1
 45 33 l 1
 46 33 l 1
 46 35 l 1
49 35 m 1
 47 35 l 1
 47 33 l 1
 49 33 l 1
 49 35 l 1
49 31 m 1
 47 31 l 1
 47 29 l 1
 49 29 l 1
 49 31 l 1
55 43 m 1
 53 43 l 1
 53 41 l 1
 55 41 l 1
 55 43 l 1
58 43 m 1
 56 43 l 1
 56 41 l 1
 57 41 l 1
 57 42 l 1
 58 42 l 1
 58 43 l 1
59 42 m 1
 58 42 l 1
 58 41 l 1
 60 41 l 1
 60 43 l 1
 59 43 l 1
 59 42 l 1
55 39 m 1
 53 39 l 1
 53 37 l 1
 55 37 l 1
 55 39 l 1
63 43 m 1
 61 43 l 1
 61 41 l 1
 63 41 l 1
 63 43 l 1
63 39 m 1
 61 39 l 1
 61 37 l 1
 63 37 l 1
 63 39 l 1
55 35 m 1
 53 35 l 1
 53 33 l 1
 55 33 l 1
 55 35 l 1
55 31 m 1
 53 31 l 1
 53 29 l 1
 55 29 l 1
 55 31 l 1
63 35 m 1
 61 35 l 1
 61 33 l 1
 63 33 l 1
 63 35 l 1
63 31 m 1
 61 31 l 1
 61 29 l 1
 63 29 l 1
 63 31 l 1
31 27 m 1
 29 27 l 1
 29 25 l 1
 31 25 l 1
 31 27 l 1
49 27 m 1
 47 27 l 1
 47 25 l 1
 49 25 l 1
 49 27 l 1
55 27 m 1
 53 27 l 1
 53 25 l 1
 55 25 l 1
 55 27 l 1
58 27 m 1
 56 27 l 1
 56 25 l 1
 57 25 l 1
 57 26 l 1
 58 26 l 1
 58 27 l 1
59 26 m 1
 58 26 l 1
 58 25 l 1
 60 25 l 1
 60 27 l 1
 59 27 l 1
 59 26 l 1
63 27 m 1
 61 27 l 1
 61 25 l 1
 63 25 l 1
 63 27 l 1
EndSplineSet
EndChar

StartChar: custom_4_0_0_4_1
Encoding: 32009 32009 12041
Width: 70
Flags: H
LayerCount: 2
Fore
SplineSet
23 43 m 1
 21 43 l 1
 21 41 l 1
 23 41 l 1
 23 43 l 1
26 43 m 1
 24 43 l 1
 24 41 l 1
 25 41 l 1
 25 42 l 1
 26 42 l 1
 26 43 l 1
27 42 m 1
 26 42 l 1
 26 41 l 1
 28 41 l 1
 28 43 l 1
 27 43 l 1
 27 42 l 1
31 43 m 1
 29 43 l 1
 29 41 l 1
 31 41 l 1
 31 43 l 1
31 39 m 1
 29 39 l 1
 29 37 l 1
 31 37 l 1
 31 39 l 1
36 37 m 1
 34 37 l 1
 34 35 l 1
 36 35 l 1
 36 37 l 1
31 35 m 1
 29 35 l 1
 29 33 l 1
 31 33 l 1
 31 35 l 1
36 33 m 1
 34 33 l 1
 34 31 l 1
 36 31 l 1
 36 33 l 1
31 31 m 1
 29 31 l 1
 29 29 l 1
 31 29 l 1
 31 31 l 1
41 43 m 1
 39 43 l 1
 39 41 l 1
 41 41 l 1
 41 43 l 1
41 39 m 1
 39 39 l 1
 39 37 l 1
 41 37 l 1
 41 39 l 1
49 43 m 1
 47 43 l 1
 47 41 l 1
 49 41 l 1
 49 43 l 1
49 39 m 1
 47 39 l 1
 47 37 l 1
 49 37 l 1
 49 39 l 1
41 35 m 1
 39 35 l 1
 39 33 l 1
 41 33 l 1
 41 35 l 1
43 35 m 1
 42 35 l 1
 42 33 l 1
 44 33 l 1
 44 34 l 1
 43 34 l 1
 43 35 l 1
46 35 m 1
 44 35 l 1
 44 34 l 1
 45 34 l 1
 45 33 l 1
 46 33 l 1
 46 35 l 1
49 35 m 1
 47 35 l 1
 47 33 l 1
 49 33 l 1
 49 35 l 1
49 31 m 1
 47 31 l 1
 47 29 l 1
 49 29 l 1
 49 31 l 1
55 43 m 1
 53 43 l 1
 53 41 l 1
 55 41 l 1
 55 43 l 1
58 43 m 1
 56 43 l 1
 56 41 l 1
 57 41 l 1
 57 42 l 1
 58 42 l 1
 58 43 l 1
59 42 m 1
 58 42 l 1
 58 41 l 1
 60 41 l 1
 60 43 l 1
 59 43 l 1
 59 42 l 1
55 39 m 1
 53 39 l 1
 53 37 l 1
 55 37 l 1
 55 39 l 1
63 43 m 1
 61 43 l 1
 61 41 l 1
 63 41 l 1
 63 43 l 1
63 39 m 1
 61 39 l 1
 61 37 l 1
 63 37 l 1
 63 39 l 1
55 35 m 1
 53 35 l 1
 53 33 l 1
 55 33 l 1
 55 35 l 1
55 31 m 1
 53 31 l 1
 53 29 l 1
 55 29 l 1
 55 31 l 1
63 35 m 1
 61 35 l 1
 61 33 l 1
 63 33 l 1
 63 35 l 1
63 31 m 1
 61 31 l 1
 61 29 l 1
 63 29 l 1
 63 31 l 1
31 27 m 1
 29 27 l 1
 29 25 l 1
 31 25 l 1
 31 27 l 1
49 27 m 1
 47 27 l 1
 47 25 l 1
 49 25 l 1
 49 27 l 1
55 27 m 1
 53 27 l 1
 53 25 l 1
 55 25 l 1
 55 27 l 1
58 27 m 1
 56 27 l 1
 56 25 l 1
 57 25 l 1
 57 26 l 1
 58 26 l 1
 58 27 l 1
59 26 m 1
 58 26 l 1
 58 25 l 1
 60 25 l 1
 60 27 l 1
 59 27 l 1
 59 26 l 1
63 27 m 1
 61 27 l 1
 61 25 l 1
 63 25 l 1
 63 27 l 1
EndSplineSet
EndChar

StartChar: custom_4_0_0_4_2
Encoding: 32010 32010 12042
Width: 70
Flags: H
LayerCount: 2
Fore
SplineSet
23 43 m 1
 21 43 l 1
 21 41 l 1
 23 41 l 1
 23 43 l 1
26 43 m 1
 24 43 l 1
 24 41 l 1
 25 41 l 1
 25 42 l 1
 26 42 l 1
 26 43 l 1
27 42 m 1
 26 42 l 1
 26 41 l 1
 28 41 l 1
 28 43 l 1
 27 43 l 1
 27 42 l 1
31 43 m 1
 29 43 l 1
 29 41 l 1
 31 41 l 1
 31 43 l 1
31 39 m 1
 29 39 l 1
 29 37 l 1
 31 37 l 1
 31 39 l 1
36 37 m 1
 34 37 l 1
 34 35 l 1
 36 35 l 1
 36 37 l 1
31 35 m 1
 29 35 l 1
 29 33 l 1
 31 33 l 1
 31 35 l 1
36 33 m 1
 34 33 l 1
 34 31 l 1
 36 31 l 1
 36 33 l 1
31 31 m 1
 29 31 l 1
 29 29 l 1
 31 29 l 1
 31 31 l 1
41 43 m 1
 39 43 l 1
 39 41 l 1
 41 41 l 1
 41 43 l 1
41 39 m 1
 39 39 l 1
 39 37 l 1
 41 37 l 1
 41 39 l 1
49 43 m 1
 47 43 l 1
 47 41 l 1
 49 41 l 1
 49 43 l 1
49 39 m 1
 47 39 l 1
 47 37 l 1
 49 37 l 1
 49 39 l 1
41 35 m 1
 39 35 l 1
 39 33 l 1
 41 33 l 1
 41 35 l 1
43 35 m 1
 42 35 l 1
 42 33 l 1
 44 33 l 1
 44 34 l 1
 43 34 l 1
 43 35 l 1
46 35 m 1
 44 35 l 1
 44 34 l 1
 45 34 l 1
 45 33 l 1
 46 33 l 1
 46 35 l 1
49 35 m 1
 47 35 l 1
 47 33 l 1
 49 33 l 1
 49 35 l 1
49 31 m 1
 47 31 l 1
 47 29 l 1
 49 29 l 1
 49 31 l 1
55 43 m 1
 53 43 l 1
 53 41 l 1
 55 41 l 1
 55 43 l 1
58 43 m 1
 56 43 l 1
 56 41 l 1
 57 41 l 1
 57 42 l 1
 58 42 l 1
 58 43 l 1
59 42 m 1
 58 42 l 1
 58 41 l 1
 60 41 l 1
 60 43 l 1
 59 43 l 1
 59 42 l 1
55 39 m 1
 53 39 l 1
 53 37 l 1
 55 37 l 1
 55 39 l 1
63 43 m 1
 61 43 l 1
 61 41 l 1
 63 41 l 1
 63 43 l 1
63 39 m 1
 61 39 l 1
 61 37 l 1
 63 37 l 1
 63 39 l 1
55 35 m 1
 53 35 l 1
 53 33 l 1
 55 33 l 1
 55 35 l 1
55 31 m 1
 53 31 l 1
 53 29 l 1
 55 29 l 1
 55 31 l 1
63 35 m 1
 61 35 l 1
 61 33 l 1
 63 33 l 1
 63 35 l 1
63 31 m 1
 61 31 l 1
 61 29 l 1
 63 29 l 1
 63 31 l 1
31 27 m 1
 29 27 l 1
 29 25 l 1
 31 25 l 1
 31 27 l 1
49 27 m 1
 47 27 l 1
 47 25 l 1
 49 25 l 1
 49 27 l 1
55 27 m 1
 53 27 l 1
 53 25 l 1
 55 25 l 1
 55 27 l 1
58 27 m 1
 56 27 l 1
 56 25 l 1
 57 25 l 1
 57 26 l 1
 58 26 l 1
 58 27 l 1
59 26 m 1
 58 26 l 1
 58 25 l 1
 60 25 l 1
 60 27 l 1
 59 27 l 1
 59 26 l 1
63 27 m 1
 61 27 l 1
 61 25 l 1
 63 25 l 1
 63 27 l 1
EndSplineSet
EndChar

StartChar: custom_4_0_0_4_3
Encoding: 32011 32011 12043
Width: 70
Flags: H
LayerCount: 2
Fore
SplineSet
23 43 m 1
 21 43 l 1
 21 41 l 1
 23 41 l 1
 23 43 l 1
26 43 m 1
 24 43 l 1
 24 41 l 1
 25 41 l 1
 25 42 l 1
 26 42 l 1
 26 43 l 1
27 42 m 1
 26 42 l 1
 26 41 l 1
 28 41 l 1
 28 43 l 1
 27 43 l 1
 27 42 l 1
31 43 m 1
 29 43 l 1
 29 41 l 1
 31 41 l 1
 31 43 l 1
31 39 m 1
 29 39 l 1
 29 37 l 1
 31 37 l 1
 31 39 l 1
36 37 m 1
 34 37 l 1
 34 35 l 1
 36 35 l 1
 36 37 l 1
31 35 m 1
 29 35 l 1
 29 33 l 1
 31 33 l 1
 31 35 l 1
36 33 m 1
 34 33 l 1
 34 31 l 1
 36 31 l 1
 36 33 l 1
31 31 m 1
 29 31 l 1
 29 29 l 1
 31 29 l 1
 31 31 l 1
41 43 m 1
 39 43 l 1
 39 41 l 1
 41 41 l 1
 41 43 l 1
41 39 m 1
 39 39 l 1
 39 37 l 1
 41 37 l 1
 41 39 l 1
49 43 m 1
 47 43 l 1
 47 41 l 1
 49 41 l 1
 49 43 l 1
49 39 m 1
 47 39 l 1
 47 37 l 1
 49 37 l 1
 49 39 l 1
41 35 m 1
 39 35 l 1
 39 33 l 1
 41 33 l 1
 41 35 l 1
43 35 m 1
 42 35 l 1
 42 33 l 1
 44 33 l 1
 44 34 l 1
 43 34 l 1
 43 35 l 1
46 35 m 1
 44 35 l 1
 44 34 l 1
 45 34 l 1
 45 33 l 1
 46 33 l 1
 46 35 l 1
49 35 m 1
 47 35 l 1
 47 33 l 1
 49 33 l 1
 49 35 l 1
49 31 m 1
 47 31 l 1
 47 29 l 1
 49 29 l 1
 49 31 l 1
55 43 m 1
 53 43 l 1
 53 41 l 1
 55 41 l 1
 55 43 l 1
58 43 m 1
 56 43 l 1
 56 41 l 1
 57 41 l 1
 57 42 l 1
 58 42 l 1
 58 43 l 1
59 42 m 1
 58 42 l 1
 58 41 l 1
 60 41 l 1
 60 43 l 1
 59 43 l 1
 59 42 l 1
55 39 m 1
 53 39 l 1
 53 37 l 1
 55 37 l 1
 55 39 l 1
63 43 m 1
 61 43 l 1
 61 41 l 1
 63 41 l 1
 63 43 l 1
63 39 m 1
 61 39 l 1
 61 37 l 1
 63 37 l 1
 63 39 l 1
55 35 m 1
 53 35 l 1
 53 33 l 1
 55 33 l 1
 55 35 l 1
55 31 m 1
 53 31 l 1
 53 29 l 1
 55 29 l 1
 55 31 l 1
63 35 m 1
 61 35 l 1
 61 33 l 1
 63 33 l 1
 63 35 l 1
63 31 m 1
 61 31 l 1
 61 29 l 1
 63 29 l 1
 63 31 l 1
31 27 m 1
 29 27 l 1
 29 25 l 1
 31 25 l 1
 31 27 l 1
49 27 m 1
 47 27 l 1
 47 25 l 1
 49 25 l 1
 49 27 l 1
55 27 m 1
 53 27 l 1
 53 25 l 1
 55 25 l 1
 55 27 l 1
58 27 m 1
 56 27 l 1
 56 25 l 1
 57 25 l 1
 57 26 l 1
 58 26 l 1
 58 27 l 1
59 26 m 1
 58 26 l 1
 58 25 l 1
 60 25 l 1
 60 27 l 1
 59 27 l 1
 59 26 l 1
63 27 m 1
 61 27 l 1
 61 25 l 1
 63 25 l 1
 63 27 l 1
EndSplineSet
EndChar

StartChar: custom_4_0_0_4_4
Encoding: 32012 32012 12044
Width: 70
Flags: H
LayerCount: 2
Fore
SplineSet
23 43 m 1
 21 43 l 1
 21 41 l 1
 23 41 l 1
 23 43 l 1
26 43 m 1
 24 43 l 1
 24 41 l 1
 25 41 l 1
 25 42 l 1
 26 42 l 1
 26 43 l 1
27 42 m 1
 26 42 l 1
 26 41 l 1
 28 41 l 1
 28 43 l 1
 27 43 l 1
 27 42 l 1
31 43 m 1
 29 43 l 1
 29 41 l 1
 31 41 l 1
 31 43 l 1
31 39 m 1
 29 39 l 1
 29 37 l 1
 31 37 l 1
 31 39 l 1
36 37 m 1
 34 37 l 1
 34 35 l 1
 36 35 l 1
 36 37 l 1
31 35 m 1
 29 35 l 1
 29 33 l 1
 31 33 l 1
 31 35 l 1
36 33 m 1
 34 33 l 1
 34 31 l 1
 36 31 l 1
 36 33 l 1
31 31 m 1
 29 31 l 1
 29 29 l 1
 31 29 l 1
 31 31 l 1
41 43 m 1
 39 43 l 1
 39 41 l 1
 41 41 l 1
 41 43 l 1
41 39 m 1
 39 39 l 1
 39 37 l 1
 41 37 l 1
 41 39 l 1
49 43 m 1
 47 43 l 1
 47 41 l 1
 49 41 l 1
 49 43 l 1
49 39 m 1
 47 39 l 1
 47 37 l 1
 49 37 l 1
 49 39 l 1
41 35 m 1
 39 35 l 1
 39 33 l 1
 41 33 l 1
 41 35 l 1
43 35 m 1
 42 35 l 1
 42 33 l 1
 44 33 l 1
 44 34 l 1
 43 34 l 1
 43 35 l 1
46 35 m 1
 44 35 l 1
 44 34 l 1
 45 34 l 1
 45 33 l 1
 46 33 l 1
 46 35 l 1
49 35 m 1
 47 35 l 1
 47 33 l 1
 49 33 l 1
 49 35 l 1
49 31 m 1
 47 31 l 1
 47 29 l 1
 49 29 l 1
 49 31 l 1
55 43 m 1
 53 43 l 1
 53 41 l 1
 55 41 l 1
 55 43 l 1
58 43 m 1
 56 43 l 1
 56 41 l 1
 57 41 l 1
 57 42 l 1
 58 42 l 1
 58 43 l 1
59 42 m 1
 58 42 l 1
 58 41 l 1
 60 41 l 1
 60 43 l 1
 59 43 l 1
 59 42 l 1
55 39 m 1
 53 39 l 1
 53 37 l 1
 55 37 l 1
 55 39 l 1
63 43 m 1
 61 43 l 1
 61 41 l 1
 63 41 l 1
 63 43 l 1
63 39 m 1
 61 39 l 1
 61 37 l 1
 63 37 l 1
 63 39 l 1
55 35 m 1
 53 35 l 1
 53 33 l 1
 55 33 l 1
 55 35 l 1
55 31 m 1
 53 31 l 1
 53 29 l 1
 55 29 l 1
 55 31 l 1
63 35 m 1
 61 35 l 1
 61 33 l 1
 63 33 l 1
 63 35 l 1
63 31 m 1
 61 31 l 1
 61 29 l 1
 63 29 l 1
 63 31 l 1
31 27 m 1
 29 27 l 1
 29 25 l 1
 31 25 l 1
 31 27 l 1
49 27 m 1
 47 27 l 1
 47 25 l 1
 49 25 l 1
 49 27 l 1
55 27 m 1
 53 27 l 1
 53 25 l 1
 55 25 l 1
 55 27 l 1
58 27 m 1
 56 27 l 1
 56 25 l 1
 57 25 l 1
 57 26 l 1
 58 26 l 1
 58 27 l 1
59 26 m 1
 58 26 l 1
 58 25 l 1
 60 25 l 1
 60 27 l 1
 59 27 l 1
 59 26 l 1
63 27 m 1
 61 27 l 1
 61 25 l 1
 63 25 l 1
 63 27 l 1
EndSplineSet
EndChar

StartChar: custom_4_0_0_4_5
Encoding: 32013 32013 12045
Width: 70
Flags: H
LayerCount: 2
Fore
SplineSet
23 43 m 1
 21 43 l 1
 21 41 l 1
 23 41 l 1
 23 43 l 1
26 43 m 1
 24 43 l 1
 24 41 l 1
 25 41 l 1
 25 42 l 1
 26 42 l 1
 26 43 l 1
27 42 m 1
 26 42 l 1
 26 41 l 1
 28 41 l 1
 28 43 l 1
 27 43 l 1
 27 42 l 1
31 43 m 1
 29 43 l 1
 29 41 l 1
 31 41 l 1
 31 43 l 1
31 39 m 1
 29 39 l 1
 29 37 l 1
 31 37 l 1
 31 39 l 1
36 37 m 1
 34 37 l 1
 34 35 l 1
 36 35 l 1
 36 37 l 1
31 35 m 1
 29 35 l 1
 29 33 l 1
 31 33 l 1
 31 35 l 1
36 33 m 1
 34 33 l 1
 34 31 l 1
 36 31 l 1
 36 33 l 1
31 31 m 1
 29 31 l 1
 29 29 l 1
 31 29 l 1
 31 31 l 1
41 43 m 1
 39 43 l 1
 39 41 l 1
 41 41 l 1
 41 43 l 1
41 39 m 1
 39 39 l 1
 39 37 l 1
 41 37 l 1
 41 39 l 1
49 43 m 1
 47 43 l 1
 47 41 l 1
 49 41 l 1
 49 43 l 1
49 39 m 1
 47 39 l 1
 47 37 l 1
 49 37 l 1
 49 39 l 1
41 35 m 1
 39 35 l 1
 39 33 l 1
 41 33 l 1
 41 35 l 1
43 35 m 1
 42 35 l 1
 42 33 l 1
 44 33 l 1
 44 34 l 1
 43 34 l 1
 43 35 l 1
46 35 m 1
 44 35 l 1
 44 34 l 1
 45 34 l 1
 45 33 l 1
 46 33 l 1
 46 35 l 1
49 35 m 1
 47 35 l 1
 47 33 l 1
 49 33 l 1
 49 35 l 1
49 31 m 1
 47 31 l 1
 47 29 l 1
 49 29 l 1
 49 31 l 1
55 43 m 1
 53 43 l 1
 53 41 l 1
 55 41 l 1
 55 43 l 1
58 43 m 1
 56 43 l 1
 56 41 l 1
 57 41 l 1
 57 42 l 1
 58 42 l 1
 58 43 l 1
59 42 m 1
 58 42 l 1
 58 41 l 1
 60 41 l 1
 60 43 l 1
 59 43 l 1
 59 42 l 1
55 39 m 1
 53 39 l 1
 53 37 l 1
 55 37 l 1
 55 39 l 1
63 43 m 1
 61 43 l 1
 61 41 l 1
 63 41 l 1
 63 43 l 1
63 39 m 1
 61 39 l 1
 61 37 l 1
 63 37 l 1
 63 39 l 1
55 35 m 1
 53 35 l 1
 53 33 l 1
 55 33 l 1
 55 35 l 1
55 31 m 1
 53 31 l 1
 53 29 l 1
 55 29 l 1
 55 31 l 1
63 35 m 1
 61 35 l 1
 61 33 l 1
 63 33 l 1
 63 35 l 1
63 31 m 1
 61 31 l 1
 61 29 l 1
 63 29 l 1
 63 31 l 1
31 27 m 1
 29 27 l 1
 29 25 l 1
 31 25 l 1
 31 27 l 1
49 27 m 1
 47 27 l 1
 47 25 l 1
 49 25 l 1
 49 27 l 1
55 27 m 1
 53 27 l 1
 53 25 l 1
 55 25 l 1
 55 27 l 1
58 27 m 1
 56 27 l 1
 56 25 l 1
 57 25 l 1
 57 26 l 1
 58 26 l 1
 58 27 l 1
59 26 m 1
 58 26 l 1
 58 25 l 1
 60 25 l 1
 60 27 l 1
 59 27 l 1
 59 26 l 1
63 27 m 1
 61 27 l 1
 61 25 l 1
 63 25 l 1
 63 27 l 1
EndSplineSet
EndChar

StartChar: custom_4_0_0_4_6
Encoding: 32014 32014 12046
Width: 70
Flags: H
LayerCount: 2
Fore
SplineSet
23 43 m 1
 21 43 l 1
 21 41 l 1
 23 41 l 1
 23 43 l 1
26 43 m 1
 24 43 l 1
 24 41 l 1
 25 41 l 1
 25 42 l 1
 26 42 l 1
 26 43 l 1
27 42 m 1
 26 42 l 1
 26 41 l 1
 28 41 l 1
 28 43 l 1
 27 43 l 1
 27 42 l 1
31 43 m 1
 29 43 l 1
 29 41 l 1
 31 41 l 1
 31 43 l 1
31 39 m 1
 29 39 l 1
 29 37 l 1
 31 37 l 1
 31 39 l 1
36 37 m 1
 34 37 l 1
 34 35 l 1
 36 35 l 1
 36 37 l 1
31 35 m 1
 29 35 l 1
 29 33 l 1
 31 33 l 1
 31 35 l 1
36 33 m 1
 34 33 l 1
 34 31 l 1
 36 31 l 1
 36 33 l 1
31 31 m 1
 29 31 l 1
 29 29 l 1
 31 29 l 1
 31 31 l 1
41 43 m 1
 39 43 l 1
 39 41 l 1
 41 41 l 1
 41 43 l 1
41 39 m 1
 39 39 l 1
 39 37 l 1
 41 37 l 1
 41 39 l 1
49 43 m 1
 47 43 l 1
 47 41 l 1
 49 41 l 1
 49 43 l 1
49 39 m 1
 47 39 l 1
 47 37 l 1
 49 37 l 1
 49 39 l 1
41 35 m 1
 39 35 l 1
 39 33 l 1
 41 33 l 1
 41 35 l 1
43 35 m 1
 42 35 l 1
 42 33 l 1
 44 33 l 1
 44 34 l 1
 43 34 l 1
 43 35 l 1
46 35 m 1
 44 35 l 1
 44 34 l 1
 45 34 l 1
 45 33 l 1
 46 33 l 1
 46 35 l 1
49 35 m 1
 47 35 l 1
 47 33 l 1
 49 33 l 1
 49 35 l 1
49 31 m 1
 47 31 l 1
 47 29 l 1
 49 29 l 1
 49 31 l 1
55 43 m 1
 53 43 l 1
 53 41 l 1
 55 41 l 1
 55 43 l 1
58 43 m 1
 56 43 l 1
 56 41 l 1
 57 41 l 1
 57 42 l 1
 58 42 l 1
 58 43 l 1
59 42 m 1
 58 42 l 1
 58 41 l 1
 60 41 l 1
 60 43 l 1
 59 43 l 1
 59 42 l 1
55 39 m 1
 53 39 l 1
 53 37 l 1
 55 37 l 1
 55 39 l 1
63 43 m 1
 61 43 l 1
 61 41 l 1
 63 41 l 1
 63 43 l 1
63 39 m 1
 61 39 l 1
 61 37 l 1
 63 37 l 1
 63 39 l 1
55 35 m 1
 53 35 l 1
 53 33 l 1
 55 33 l 1
 55 35 l 1
55 31 m 1
 53 31 l 1
 53 29 l 1
 55 29 l 1
 55 31 l 1
63 35 m 1
 61 35 l 1
 61 33 l 1
 63 33 l 1
 63 35 l 1
63 31 m 1
 61 31 l 1
 61 29 l 1
 63 29 l 1
 63 31 l 1
31 27 m 1
 29 27 l 1
 29 25 l 1
 31 25 l 1
 31 27 l 1
49 27 m 1
 47 27 l 1
 47 25 l 1
 49 25 l 1
 49 27 l 1
55 27 m 1
 53 27 l 1
 53 25 l 1
 55 25 l 1
 55 27 l 1
58 27 m 1
 56 27 l 1
 56 25 l 1
 57 25 l 1
 57 26 l 1
 58 26 l 1
 58 27 l 1
59 26 m 1
 58 26 l 1
 58 25 l 1
 60 25 l 1
 60 27 l 1
 59 27 l 1
 59 26 l 1
63 27 m 1
 61 27 l 1
 61 25 l 1
 63 25 l 1
 63 27 l 1
EndSplineSet
EndChar

StartChar: custom_4_0_0_4_7
Encoding: 32015 32015 12047
Width: 70
Flags: H
LayerCount: 2
Fore
SplineSet
23 43 m 1
 21 43 l 1
 21 41 l 1
 23 41 l 1
 23 43 l 1
26 43 m 1
 24 43 l 1
 24 41 l 1
 25 41 l 1
 25 42 l 1
 26 42 l 1
 26 43 l 1
27 42 m 1
 26 42 l 1
 26 41 l 1
 28 41 l 1
 28 43 l 1
 27 43 l 1
 27 42 l 1
31 43 m 1
 29 43 l 1
 29 41 l 1
 31 41 l 1
 31 43 l 1
31 39 m 1
 29 39 l 1
 29 37 l 1
 31 37 l 1
 31 39 l 1
36 37 m 1
 34 37 l 1
 34 35 l 1
 36 35 l 1
 36 37 l 1
31 35 m 1
 29 35 l 1
 29 33 l 1
 31 33 l 1
 31 35 l 1
36 33 m 1
 34 33 l 1
 34 31 l 1
 36 31 l 1
 36 33 l 1
31 31 m 1
 29 31 l 1
 29 29 l 1
 31 29 l 1
 31 31 l 1
41 43 m 1
 39 43 l 1
 39 41 l 1
 41 41 l 1
 41 43 l 1
41 39 m 1
 39 39 l 1
 39 37 l 1
 41 37 l 1
 41 39 l 1
49 43 m 1
 47 43 l 1
 47 41 l 1
 49 41 l 1
 49 43 l 1
49 39 m 1
 47 39 l 1
 47 37 l 1
 49 37 l 1
 49 39 l 1
41 35 m 1
 39 35 l 1
 39 33 l 1
 41 33 l 1
 41 35 l 1
43 35 m 1
 42 35 l 1
 42 33 l 1
 44 33 l 1
 44 34 l 1
 43 34 l 1
 43 35 l 1
46 35 m 1
 44 35 l 1
 44 34 l 1
 45 34 l 1
 45 33 l 1
 46 33 l 1
 46 35 l 1
49 35 m 1
 47 35 l 1
 47 33 l 1
 49 33 l 1
 49 35 l 1
49 31 m 1
 47 31 l 1
 47 29 l 1
 49 29 l 1
 49 31 l 1
55 43 m 1
 53 43 l 1
 53 41 l 1
 55 41 l 1
 55 43 l 1
58 43 m 1
 56 43 l 1
 56 41 l 1
 57 41 l 1
 57 42 l 1
 58 42 l 1
 58 43 l 1
59 42 m 1
 58 42 l 1
 58 41 l 1
 60 41 l 1
 60 43 l 1
 59 43 l 1
 59 42 l 1
55 39 m 1
 53 39 l 1
 53 37 l 1
 55 37 l 1
 55 39 l 1
63 43 m 1
 61 43 l 1
 61 41 l 1
 63 41 l 1
 63 43 l 1
63 39 m 1
 61 39 l 1
 61 37 l 1
 63 37 l 1
 63 39 l 1
55 35 m 1
 53 35 l 1
 53 33 l 1
 55 33 l 1
 55 35 l 1
55 31 m 1
 53 31 l 1
 53 29 l 1
 55 29 l 1
 55 31 l 1
63 35 m 1
 61 35 l 1
 61 33 l 1
 63 33 l 1
 63 35 l 1
63 31 m 1
 61 31 l 1
 61 29 l 1
 63 29 l 1
 63 31 l 1
31 27 m 1
 29 27 l 1
 29 25 l 1
 31 25 l 1
 31 27 l 1
49 27 m 1
 47 27 l 1
 47 25 l 1
 49 25 l 1
 49 27 l 1
55 27 m 1
 53 27 l 1
 53 25 l 1
 55 25 l 1
 55 27 l 1
58 27 m 1
 56 27 l 1
 56 25 l 1
 57 25 l 1
 57 26 l 1
 58 26 l 1
 58 27 l 1
59 26 m 1
 58 26 l 1
 58 25 l 1
 60 25 l 1
 60 27 l 1
 59 27 l 1
 59 26 l 1
63 27 m 1
 61 27 l 1
 61 25 l 1
 63 25 l 1
 63 27 l 1
EndSplineSet
EndChar

StartChar: custom_4_0_0_4_8
Encoding: 32016 32016 12048
Width: 70
Flags: H
LayerCount: 2
Fore
SplineSet
23 43 m 1
 21 43 l 1
 21 41 l 1
 23 41 l 1
 23 43 l 1
26 43 m 1
 24 43 l 1
 24 41 l 1
 25 41 l 1
 25 42 l 1
 26 42 l 1
 26 43 l 1
27 42 m 1
 26 42 l 1
 26 41 l 1
 28 41 l 1
 28 43 l 1
 27 43 l 1
 27 42 l 1
31 43 m 1
 29 43 l 1
 29 41 l 1
 31 41 l 1
 31 43 l 1
31 39 m 1
 29 39 l 1
 29 37 l 1
 31 37 l 1
 31 39 l 1
36 37 m 1
 34 37 l 1
 34 35 l 1
 36 35 l 1
 36 37 l 1
31 35 m 1
 29 35 l 1
 29 33 l 1
 31 33 l 1
 31 35 l 1
36 33 m 1
 34 33 l 1
 34 31 l 1
 36 31 l 1
 36 33 l 1
31 31 m 1
 29 31 l 1
 29 29 l 1
 31 29 l 1
 31 31 l 1
41 43 m 1
 39 43 l 1
 39 41 l 1
 41 41 l 1
 41 43 l 1
41 39 m 1
 39 39 l 1
 39 37 l 1
 41 37 l 1
 41 39 l 1
49 43 m 1
 47 43 l 1
 47 41 l 1
 49 41 l 1
 49 43 l 1
49 39 m 1
 47 39 l 1
 47 37 l 1
 49 37 l 1
 49 39 l 1
41 35 m 1
 39 35 l 1
 39 33 l 1
 41 33 l 1
 41 35 l 1
43 35 m 1
 42 35 l 1
 42 33 l 1
 44 33 l 1
 44 34 l 1
 43 34 l 1
 43 35 l 1
46 35 m 1
 44 35 l 1
 44 34 l 1
 45 34 l 1
 45 33 l 1
 46 33 l 1
 46 35 l 1
49 35 m 1
 47 35 l 1
 47 33 l 1
 49 33 l 1
 49 35 l 1
49 31 m 1
 47 31 l 1
 47 29 l 1
 49 29 l 1
 49 31 l 1
55 43 m 1
 53 43 l 1
 53 41 l 1
 55 41 l 1
 55 43 l 1
58 43 m 1
 56 43 l 1
 56 41 l 1
 57 41 l 1
 57 42 l 1
 58 42 l 1
 58 43 l 1
59 42 m 1
 58 42 l 1
 58 41 l 1
 60 41 l 1
 60 43 l 1
 59 43 l 1
 59 42 l 1
55 39 m 1
 53 39 l 1
 53 37 l 1
 55 37 l 1
 55 39 l 1
63 43 m 1
 61 43 l 1
 61 41 l 1
 63 41 l 1
 63 43 l 1
63 39 m 1
 61 39 l 1
 61 37 l 1
 63 37 l 1
 63 39 l 1
55 35 m 1
 53 35 l 1
 53 33 l 1
 55 33 l 1
 55 35 l 1
55 31 m 1
 53 31 l 1
 53 29 l 1
 55 29 l 1
 55 31 l 1
63 35 m 1
 61 35 l 1
 61 33 l 1
 63 33 l 1
 63 35 l 1
63 31 m 1
 61 31 l 1
 61 29 l 1
 63 29 l 1
 63 31 l 1
31 27 m 1
 29 27 l 1
 29 25 l 1
 31 25 l 1
 31 27 l 1
49 27 m 1
 47 27 l 1
 47 25 l 1
 49 25 l 1
 49 27 l 1
55 27 m 1
 53 27 l 1
 53 25 l 1
 55 25 l 1
 55 27 l 1
58 27 m 1
 56 27 l 1
 56 25 l 1
 57 25 l 1
 57 26 l 1
 58 26 l 1
 58 27 l 1
59 26 m 1
 58 26 l 1
 58 25 l 1
 60 25 l 1
 60 27 l 1
 59 27 l 1
 59 26 l 1
63 27 m 1
 61 27 l 1
 61 25 l 1
 63 25 l 1
 63 27 l 1
EndSplineSet
EndChar

StartChar: custom_4_0_0_4_9
Encoding: 32017 32017 12049
Width: 70
Flags: H
LayerCount: 2
Fore
SplineSet
23 43 m 1
 21 43 l 1
 21 41 l 1
 23 41 l 1
 23 43 l 1
26 43 m 1
 24 43 l 1
 24 41 l 1
 25 41 l 1
 25 42 l 1
 26 42 l 1
 26 43 l 1
27 42 m 1
 26 42 l 1
 26 41 l 1
 28 41 l 1
 28 43 l 1
 27 43 l 1
 27 42 l 1
31 43 m 1
 29 43 l 1
 29 41 l 1
 31 41 l 1
 31 43 l 1
31 39 m 1
 29 39 l 1
 29 37 l 1
 31 37 l 1
 31 39 l 1
36 37 m 1
 34 37 l 1
 34 35 l 1
 36 35 l 1
 36 37 l 1
31 35 m 1
 29 35 l 1
 29 33 l 1
 31 33 l 1
 31 35 l 1
36 33 m 1
 34 33 l 1
 34 31 l 1
 36 31 l 1
 36 33 l 1
31 31 m 1
 29 31 l 1
 29 29 l 1
 31 29 l 1
 31 31 l 1
41 43 m 1
 39 43 l 1
 39 41 l 1
 41 41 l 1
 41 43 l 1
41 39 m 1
 39 39 l 1
 39 37 l 1
 41 37 l 1
 41 39 l 1
49 43 m 1
 47 43 l 1
 47 41 l 1
 49 41 l 1
 49 43 l 1
49 39 m 1
 47 39 l 1
 47 37 l 1
 49 37 l 1
 49 39 l 1
41 35 m 1
 39 35 l 1
 39 33 l 1
 41 33 l 1
 41 35 l 1
43 35 m 1
 42 35 l 1
 42 33 l 1
 44 33 l 1
 44 34 l 1
 43 34 l 1
 43 35 l 1
46 35 m 1
 44 35 l 1
 44 34 l 1
 45 34 l 1
 45 33 l 1
 46 33 l 1
 46 35 l 1
49 35 m 1
 47 35 l 1
 47 33 l 1
 49 33 l 1
 49 35 l 1
49 31 m 1
 47 31 l 1
 47 29 l 1
 49 29 l 1
 49 31 l 1
55 43 m 1
 53 43 l 1
 53 41 l 1
 55 41 l 1
 55 43 l 1
58 43 m 1
 56 43 l 1
 56 41 l 1
 57 41 l 1
 57 42 l 1
 58 42 l 1
 58 43 l 1
59 42 m 1
 58 42 l 1
 58 41 l 1
 60 41 l 1
 60 43 l 1
 59 43 l 1
 59 42 l 1
55 39 m 1
 53 39 l 1
 53 37 l 1
 55 37 l 1
 55 39 l 1
63 43 m 1
 61 43 l 1
 61 41 l 1
 63 41 l 1
 63 43 l 1
63 39 m 1
 61 39 l 1
 61 37 l 1
 63 37 l 1
 63 39 l 1
55 35 m 1
 53 35 l 1
 53 33 l 1
 55 33 l 1
 55 35 l 1
55 31 m 1
 53 31 l 1
 53 29 l 1
 55 29 l 1
 55 31 l 1
63 35 m 1
 61 35 l 1
 61 33 l 1
 63 33 l 1
 63 35 l 1
63 31 m 1
 61 31 l 1
 61 29 l 1
 63 29 l 1
 63 31 l 1
31 27 m 1
 29 27 l 1
 29 25 l 1
 31 25 l 1
 31 27 l 1
49 27 m 1
 47 27 l 1
 47 25 l 1
 49 25 l 1
 49 27 l 1
55 27 m 1
 53 27 l 1
 53 25 l 1
 55 25 l 1
 55 27 l 1
58 27 m 1
 56 27 l 1
 56 25 l 1
 57 25 l 1
 57 26 l 1
 58 26 l 1
 58 27 l 1
59 26 m 1
 58 26 l 1
 58 25 l 1
 60 25 l 1
 60 27 l 1
 59 27 l 1
 59 26 l 1
63 27 m 1
 61 27 l 1
 61 25 l 1
 63 25 l 1
 63 27 l 1
EndSplineSet
EndChar

StartChar: custom_4_0_0_5_0
Encoding: 32018 32018 12050
Width: 70
Flags: H
LayerCount: 2
Fore
SplineSet
23 43 m 1
 21 43 l 1
 21 41 l 1
 23 41 l 1
 23 43 l 1
26 43 m 1
 24 43 l 1
 24 41 l 1
 25 41 l 1
 25 42 l 1
 26 42 l 1
 26 43 l 1
27 42 m 1
 26 42 l 1
 26 41 l 1
 28 41 l 1
 28 43 l 1
 27 43 l 1
 27 42 l 1
31 43 m 1
 29 43 l 1
 29 41 l 1
 31 41 l 1
 31 43 l 1
31 39 m 1
 29 39 l 1
 29 37 l 1
 31 37 l 1
 31 39 l 1
36 37 m 1
 34 37 l 1
 34 35 l 1
 36 35 l 1
 36 37 l 1
31 35 m 1
 29 35 l 1
 29 33 l 1
 31 33 l 1
 31 35 l 1
36 33 m 1
 34 33 l 1
 34 31 l 1
 36 31 l 1
 36 33 l 1
31 31 m 1
 29 31 l 1
 29 29 l 1
 31 29 l 1
 31 31 l 1
41 43 m 1
 39 43 l 1
 39 41 l 1
 41 41 l 1
 41 43 l 1
41 39 m 1
 39 39 l 1
 39 37 l 1
 41 37 l 1
 41 39 l 1
49 43 m 1
 47 43 l 1
 47 41 l 1
 49 41 l 1
 49 43 l 1
49 39 m 1
 47 39 l 1
 47 37 l 1
 49 37 l 1
 49 39 l 1
41 35 m 1
 39 35 l 1
 39 33 l 1
 41 33 l 1
 41 35 l 1
43 35 m 1
 42 35 l 1
 42 33 l 1
 44 33 l 1
 44 34 l 1
 43 34 l 1
 43 35 l 1
46 35 m 1
 44 35 l 1
 44 34 l 1
 45 34 l 1
 45 33 l 1
 46 33 l 1
 46 35 l 1
49 35 m 1
 47 35 l 1
 47 33 l 1
 49 33 l 1
 49 35 l 1
49 31 m 1
 47 31 l 1
 47 29 l 1
 49 29 l 1
 49 31 l 1
55 43 m 1
 53 43 l 1
 53 41 l 1
 55 41 l 1
 55 43 l 1
58 43 m 1
 56 43 l 1
 56 41 l 1
 57 41 l 1
 57 42 l 1
 58 42 l 1
 58 43 l 1
59 42 m 1
 58 42 l 1
 58 41 l 1
 60 41 l 1
 60 43 l 1
 59 43 l 1
 59 42 l 1
55 39 m 1
 53 39 l 1
 53 37 l 1
 55 37 l 1
 55 39 l 1
63 43 m 1
 61 43 l 1
 61 41 l 1
 63 41 l 1
 63 43 l 1
63 39 m 1
 61 39 l 1
 61 37 l 1
 63 37 l 1
 63 39 l 1
55 35 m 1
 53 35 l 1
 53 33 l 1
 55 33 l 1
 55 35 l 1
55 31 m 1
 53 31 l 1
 53 29 l 1
 55 29 l 1
 55 31 l 1
63 35 m 1
 61 35 l 1
 61 33 l 1
 63 33 l 1
 63 35 l 1
63 31 m 1
 61 31 l 1
 61 29 l 1
 63 29 l 1
 63 31 l 1
31 27 m 1
 29 27 l 1
 29 25 l 1
 31 25 l 1
 31 27 l 1
49 27 m 1
 47 27 l 1
 47 25 l 1
 49 25 l 1
 49 27 l 1
55 27 m 1
 53 27 l 1
 53 25 l 1
 55 25 l 1
 55 27 l 1
58 27 m 1
 56 27 l 1
 56 25 l 1
 57 25 l 1
 57 26 l 1
 58 26 l 1
 58 27 l 1
59 26 m 1
 58 26 l 1
 58 25 l 1
 60 25 l 1
 60 27 l 1
 59 27 l 1
 59 26 l 1
63 27 m 1
 61 27 l 1
 61 25 l 1
 63 25 l 1
 63 27 l 1
EndSplineSet
EndChar

StartChar: custom_4_0_0_5_1
Encoding: 32019 32019 12051
Width: 70
Flags: H
LayerCount: 2
Fore
SplineSet
23 43 m 1
 21 43 l 1
 21 41 l 1
 23 41 l 1
 23 43 l 1
26 43 m 1
 24 43 l 1
 24 41 l 1
 25 41 l 1
 25 42 l 1
 26 42 l 1
 26 43 l 1
27 42 m 1
 26 42 l 1
 26 41 l 1
 28 41 l 1
 28 43 l 1
 27 43 l 1
 27 42 l 1
31 43 m 1
 29 43 l 1
 29 41 l 1
 31 41 l 1
 31 43 l 1
31 39 m 1
 29 39 l 1
 29 37 l 1
 31 37 l 1
 31 39 l 1
36 37 m 1
 34 37 l 1
 34 35 l 1
 36 35 l 1
 36 37 l 1
31 35 m 1
 29 35 l 1
 29 33 l 1
 31 33 l 1
 31 35 l 1
36 33 m 1
 34 33 l 1
 34 31 l 1
 36 31 l 1
 36 33 l 1
31 31 m 1
 29 31 l 1
 29 29 l 1
 31 29 l 1
 31 31 l 1
41 43 m 1
 39 43 l 1
 39 41 l 1
 41 41 l 1
 41 43 l 1
41 39 m 1
 39 39 l 1
 39 37 l 1
 41 37 l 1
 41 39 l 1
49 43 m 1
 47 43 l 1
 47 41 l 1
 49 41 l 1
 49 43 l 1
49 39 m 1
 47 39 l 1
 47 37 l 1
 49 37 l 1
 49 39 l 1
41 35 m 1
 39 35 l 1
 39 33 l 1
 41 33 l 1
 41 35 l 1
43 35 m 1
 42 35 l 1
 42 33 l 1
 44 33 l 1
 44 34 l 1
 43 34 l 1
 43 35 l 1
46 35 m 1
 44 35 l 1
 44 34 l 1
 45 34 l 1
 45 33 l 1
 46 33 l 1
 46 35 l 1
49 35 m 1
 47 35 l 1
 47 33 l 1
 49 33 l 1
 49 35 l 1
49 31 m 1
 47 31 l 1
 47 29 l 1
 49 29 l 1
 49 31 l 1
55 43 m 1
 53 43 l 1
 53 41 l 1
 55 41 l 1
 55 43 l 1
58 43 m 1
 56 43 l 1
 56 41 l 1
 57 41 l 1
 57 42 l 1
 58 42 l 1
 58 43 l 1
59 42 m 1
 58 42 l 1
 58 41 l 1
 60 41 l 1
 60 43 l 1
 59 43 l 1
 59 42 l 1
55 39 m 1
 53 39 l 1
 53 37 l 1
 55 37 l 1
 55 39 l 1
63 43 m 1
 61 43 l 1
 61 41 l 1
 63 41 l 1
 63 43 l 1
63 39 m 1
 61 39 l 1
 61 37 l 1
 63 37 l 1
 63 39 l 1
55 35 m 1
 53 35 l 1
 53 33 l 1
 55 33 l 1
 55 35 l 1
55 31 m 1
 53 31 l 1
 53 29 l 1
 55 29 l 1
 55 31 l 1
63 35 m 1
 61 35 l 1
 61 33 l 1
 63 33 l 1
 63 35 l 1
63 31 m 1
 61 31 l 1
 61 29 l 1
 63 29 l 1
 63 31 l 1
31 27 m 1
 29 27 l 1
 29 25 l 1
 31 25 l 1
 31 27 l 1
49 27 m 1
 47 27 l 1
 47 25 l 1
 49 25 l 1
 49 27 l 1
55 27 m 1
 53 27 l 1
 53 25 l 1
 55 25 l 1
 55 27 l 1
58 27 m 1
 56 27 l 1
 56 25 l 1
 57 25 l 1
 57 26 l 1
 58 26 l 1
 58 27 l 1
59 26 m 1
 58 26 l 1
 58 25 l 1
 60 25 l 1
 60 27 l 1
 59 27 l 1
 59 26 l 1
63 27 m 1
 61 27 l 1
 61 25 l 1
 63 25 l 1
 63 27 l 1
EndSplineSet
EndChar

StartChar: custom_4_0_0_5_2
Encoding: 32020 32020 12052
Width: 70
Flags: H
LayerCount: 2
Fore
SplineSet
23 43 m 1
 21 43 l 1
 21 41 l 1
 23 41 l 1
 23 43 l 1
26 43 m 1
 24 43 l 1
 24 41 l 1
 25 41 l 1
 25 42 l 1
 26 42 l 1
 26 43 l 1
27 42 m 1
 26 42 l 1
 26 41 l 1
 28 41 l 1
 28 43 l 1
 27 43 l 1
 27 42 l 1
31 43 m 1
 29 43 l 1
 29 41 l 1
 31 41 l 1
 31 43 l 1
31 39 m 1
 29 39 l 1
 29 37 l 1
 31 37 l 1
 31 39 l 1
36 37 m 1
 34 37 l 1
 34 35 l 1
 36 35 l 1
 36 37 l 1
31 35 m 1
 29 35 l 1
 29 33 l 1
 31 33 l 1
 31 35 l 1
36 33 m 1
 34 33 l 1
 34 31 l 1
 36 31 l 1
 36 33 l 1
31 31 m 1
 29 31 l 1
 29 29 l 1
 31 29 l 1
 31 31 l 1
41 43 m 1
 39 43 l 1
 39 41 l 1
 41 41 l 1
 41 43 l 1
41 39 m 1
 39 39 l 1
 39 37 l 1
 41 37 l 1
 41 39 l 1
49 43 m 1
 47 43 l 1
 47 41 l 1
 49 41 l 1
 49 43 l 1
49 39 m 1
 47 39 l 1
 47 37 l 1
 49 37 l 1
 49 39 l 1
41 35 m 1
 39 35 l 1
 39 33 l 1
 41 33 l 1
 41 35 l 1
43 35 m 1
 42 35 l 1
 42 33 l 1
 44 33 l 1
 44 34 l 1
 43 34 l 1
 43 35 l 1
46 35 m 1
 44 35 l 1
 44 34 l 1
 45 34 l 1
 45 33 l 1
 46 33 l 1
 46 35 l 1
49 35 m 1
 47 35 l 1
 47 33 l 1
 49 33 l 1
 49 35 l 1
49 31 m 1
 47 31 l 1
 47 29 l 1
 49 29 l 1
 49 31 l 1
55 43 m 1
 53 43 l 1
 53 41 l 1
 55 41 l 1
 55 43 l 1
58 43 m 1
 56 43 l 1
 56 41 l 1
 57 41 l 1
 57 42 l 1
 58 42 l 1
 58 43 l 1
59 42 m 1
 58 42 l 1
 58 41 l 1
 60 41 l 1
 60 43 l 1
 59 43 l 1
 59 42 l 1
55 39 m 1
 53 39 l 1
 53 37 l 1
 55 37 l 1
 55 39 l 1
63 43 m 1
 61 43 l 1
 61 41 l 1
 63 41 l 1
 63 43 l 1
63 39 m 1
 61 39 l 1
 61 37 l 1
 63 37 l 1
 63 39 l 1
55 35 m 1
 53 35 l 1
 53 33 l 1
 55 33 l 1
 55 35 l 1
55 31 m 1
 53 31 l 1
 53 29 l 1
 55 29 l 1
 55 31 l 1
63 35 m 1
 61 35 l 1
 61 33 l 1
 63 33 l 1
 63 35 l 1
63 31 m 1
 61 31 l 1
 61 29 l 1
 63 29 l 1
 63 31 l 1
31 27 m 1
 29 27 l 1
 29 25 l 1
 31 25 l 1
 31 27 l 1
49 27 m 1
 47 27 l 1
 47 25 l 1
 49 25 l 1
 49 27 l 1
55 27 m 1
 53 27 l 1
 53 25 l 1
 55 25 l 1
 55 27 l 1
58 27 m 1
 56 27 l 1
 56 25 l 1
 57 25 l 1
 57 26 l 1
 58 26 l 1
 58 27 l 1
59 26 m 1
 58 26 l 1
 58 25 l 1
 60 25 l 1
 60 27 l 1
 59 27 l 1
 59 26 l 1
63 27 m 1
 61 27 l 1
 61 25 l 1
 63 25 l 1
 63 27 l 1
EndSplineSet
EndChar

StartChar: custom_4_0_0_5_3
Encoding: 32021 32021 12053
Width: 70
Flags: H
LayerCount: 2
Fore
SplineSet
23 43 m 1
 21 43 l 1
 21 41 l 1
 23 41 l 1
 23 43 l 1
26 43 m 1
 24 43 l 1
 24 41 l 1
 25 41 l 1
 25 42 l 1
 26 42 l 1
 26 43 l 1
27 42 m 1
 26 42 l 1
 26 41 l 1
 28 41 l 1
 28 43 l 1
 27 43 l 1
 27 42 l 1
31 43 m 1
 29 43 l 1
 29 41 l 1
 31 41 l 1
 31 43 l 1
31 39 m 1
 29 39 l 1
 29 37 l 1
 31 37 l 1
 31 39 l 1
36 37 m 1
 34 37 l 1
 34 35 l 1
 36 35 l 1
 36 37 l 1
31 35 m 1
 29 35 l 1
 29 33 l 1
 31 33 l 1
 31 35 l 1
36 33 m 1
 34 33 l 1
 34 31 l 1
 36 31 l 1
 36 33 l 1
31 31 m 1
 29 31 l 1
 29 29 l 1
 31 29 l 1
 31 31 l 1
41 43 m 1
 39 43 l 1
 39 41 l 1
 41 41 l 1
 41 43 l 1
41 39 m 1
 39 39 l 1
 39 37 l 1
 41 37 l 1
 41 39 l 1
49 43 m 1
 47 43 l 1
 47 41 l 1
 49 41 l 1
 49 43 l 1
49 39 m 1
 47 39 l 1
 47 37 l 1
 49 37 l 1
 49 39 l 1
41 35 m 1
 39 35 l 1
 39 33 l 1
 41 33 l 1
 41 35 l 1
43 35 m 1
 42 35 l 1
 42 33 l 1
 44 33 l 1
 44 34 l 1
 43 34 l 1
 43 35 l 1
46 35 m 1
 44 35 l 1
 44 34 l 1
 45 34 l 1
 45 33 l 1
 46 33 l 1
 46 35 l 1
49 35 m 1
 47 35 l 1
 47 33 l 1
 49 33 l 1
 49 35 l 1
49 31 m 1
 47 31 l 1
 47 29 l 1
 49 29 l 1
 49 31 l 1
55 43 m 1
 53 43 l 1
 53 41 l 1
 55 41 l 1
 55 43 l 1
58 43 m 1
 56 43 l 1
 56 41 l 1
 57 41 l 1
 57 42 l 1
 58 42 l 1
 58 43 l 1
59 42 m 1
 58 42 l 1
 58 41 l 1
 60 41 l 1
 60 43 l 1
 59 43 l 1
 59 42 l 1
55 39 m 1
 53 39 l 1
 53 37 l 1
 55 37 l 1
 55 39 l 1
63 43 m 1
 61 43 l 1
 61 41 l 1
 63 41 l 1
 63 43 l 1
63 39 m 1
 61 39 l 1
 61 37 l 1
 63 37 l 1
 63 39 l 1
55 35 m 1
 53 35 l 1
 53 33 l 1
 55 33 l 1
 55 35 l 1
55 31 m 1
 53 31 l 1
 53 29 l 1
 55 29 l 1
 55 31 l 1
63 35 m 1
 61 35 l 1
 61 33 l 1
 63 33 l 1
 63 35 l 1
63 31 m 1
 61 31 l 1
 61 29 l 1
 63 29 l 1
 63 31 l 1
31 27 m 1
 29 27 l 1
 29 25 l 1
 31 25 l 1
 31 27 l 1
49 27 m 1
 47 27 l 1
 47 25 l 1
 49 25 l 1
 49 27 l 1
55 27 m 1
 53 27 l 1
 53 25 l 1
 55 25 l 1
 55 27 l 1
58 27 m 1
 56 27 l 1
 56 25 l 1
 57 25 l 1
 57 26 l 1
 58 26 l 1
 58 27 l 1
59 26 m 1
 58 26 l 1
 58 25 l 1
 60 25 l 1
 60 27 l 1
 59 27 l 1
 59 26 l 1
63 27 m 1
 61 27 l 1
 61 25 l 1
 63 25 l 1
 63 27 l 1
EndSplineSet
EndChar

StartChar: custom_4_0_0_5_4
Encoding: 32022 32022 12054
Width: 70
Flags: H
LayerCount: 2
Fore
SplineSet
23 43 m 1
 21 43 l 1
 21 41 l 1
 23 41 l 1
 23 43 l 1
26 43 m 1
 24 43 l 1
 24 41 l 1
 25 41 l 1
 25 42 l 1
 26 42 l 1
 26 43 l 1
27 42 m 1
 26 42 l 1
 26 41 l 1
 28 41 l 1
 28 43 l 1
 27 43 l 1
 27 42 l 1
31 43 m 1
 29 43 l 1
 29 41 l 1
 31 41 l 1
 31 43 l 1
31 39 m 1
 29 39 l 1
 29 37 l 1
 31 37 l 1
 31 39 l 1
36 37 m 1
 34 37 l 1
 34 35 l 1
 36 35 l 1
 36 37 l 1
31 35 m 1
 29 35 l 1
 29 33 l 1
 31 33 l 1
 31 35 l 1
36 33 m 1
 34 33 l 1
 34 31 l 1
 36 31 l 1
 36 33 l 1
31 31 m 1
 29 31 l 1
 29 29 l 1
 31 29 l 1
 31 31 l 1
41 43 m 1
 39 43 l 1
 39 41 l 1
 41 41 l 1
 41 43 l 1
41 39 m 1
 39 39 l 1
 39 37 l 1
 41 37 l 1
 41 39 l 1
49 43 m 1
 47 43 l 1
 47 41 l 1
 49 41 l 1
 49 43 l 1
49 39 m 1
 47 39 l 1
 47 37 l 1
 49 37 l 1
 49 39 l 1
41 35 m 1
 39 35 l 1
 39 33 l 1
 41 33 l 1
 41 35 l 1
43 35 m 1
 42 35 l 1
 42 33 l 1
 44 33 l 1
 44 34 l 1
 43 34 l 1
 43 35 l 1
46 35 m 1
 44 35 l 1
 44 34 l 1
 45 34 l 1
 45 33 l 1
 46 33 l 1
 46 35 l 1
49 35 m 1
 47 35 l 1
 47 33 l 1
 49 33 l 1
 49 35 l 1
49 31 m 1
 47 31 l 1
 47 29 l 1
 49 29 l 1
 49 31 l 1
55 43 m 1
 53 43 l 1
 53 41 l 1
 55 41 l 1
 55 43 l 1
58 43 m 1
 56 43 l 1
 56 41 l 1
 57 41 l 1
 57 42 l 1
 58 42 l 1
 58 43 l 1
59 42 m 1
 58 42 l 1
 58 41 l 1
 60 41 l 1
 60 43 l 1
 59 43 l 1
 59 42 l 1
55 39 m 1
 53 39 l 1
 53 37 l 1
 55 37 l 1
 55 39 l 1
63 43 m 1
 61 43 l 1
 61 41 l 1
 63 41 l 1
 63 43 l 1
63 39 m 1
 61 39 l 1
 61 37 l 1
 63 37 l 1
 63 39 l 1
55 35 m 1
 53 35 l 1
 53 33 l 1
 55 33 l 1
 55 35 l 1
55 31 m 1
 53 31 l 1
 53 29 l 1
 55 29 l 1
 55 31 l 1
63 35 m 1
 61 35 l 1
 61 33 l 1
 63 33 l 1
 63 35 l 1
63 31 m 1
 61 31 l 1
 61 29 l 1
 63 29 l 1
 63 31 l 1
31 27 m 1
 29 27 l 1
 29 25 l 1
 31 25 l 1
 31 27 l 1
49 27 m 1
 47 27 l 1
 47 25 l 1
 49 25 l 1
 49 27 l 1
55 27 m 1
 53 27 l 1
 53 25 l 1
 55 25 l 1
 55 27 l 1
58 27 m 1
 56 27 l 1
 56 25 l 1
 57 25 l 1
 57 26 l 1
 58 26 l 1
 58 27 l 1
59 26 m 1
 58 26 l 1
 58 25 l 1
 60 25 l 1
 60 27 l 1
 59 27 l 1
 59 26 l 1
63 27 m 1
 61 27 l 1
 61 25 l 1
 63 25 l 1
 63 27 l 1
EndSplineSet
EndChar

StartChar: custom_4_0_0_5_5
Encoding: 32023 32023 12055
Width: 70
Flags: H
LayerCount: 2
Fore
SplineSet
23 43 m 1
 21 43 l 1
 21 41 l 1
 23 41 l 1
 23 43 l 1
26 43 m 1
 24 43 l 1
 24 41 l 1
 25 41 l 1
 25 42 l 1
 26 42 l 1
 26 43 l 1
27 42 m 1
 26 42 l 1
 26 41 l 1
 28 41 l 1
 28 43 l 1
 27 43 l 1
 27 42 l 1
31 43 m 1
 29 43 l 1
 29 41 l 1
 31 41 l 1
 31 43 l 1
31 39 m 1
 29 39 l 1
 29 37 l 1
 31 37 l 1
 31 39 l 1
36 37 m 1
 34 37 l 1
 34 35 l 1
 36 35 l 1
 36 37 l 1
31 35 m 1
 29 35 l 1
 29 33 l 1
 31 33 l 1
 31 35 l 1
36 33 m 1
 34 33 l 1
 34 31 l 1
 36 31 l 1
 36 33 l 1
31 31 m 1
 29 31 l 1
 29 29 l 1
 31 29 l 1
 31 31 l 1
41 43 m 1
 39 43 l 1
 39 41 l 1
 41 41 l 1
 41 43 l 1
41 39 m 1
 39 39 l 1
 39 37 l 1
 41 37 l 1
 41 39 l 1
49 43 m 1
 47 43 l 1
 47 41 l 1
 49 41 l 1
 49 43 l 1
49 39 m 1
 47 39 l 1
 47 37 l 1
 49 37 l 1
 49 39 l 1
41 35 m 1
 39 35 l 1
 39 33 l 1
 41 33 l 1
 41 35 l 1
43 35 m 1
 42 35 l 1
 42 33 l 1
 44 33 l 1
 44 34 l 1
 43 34 l 1
 43 35 l 1
46 35 m 1
 44 35 l 1
 44 34 l 1
 45 34 l 1
 45 33 l 1
 46 33 l 1
 46 35 l 1
49 35 m 1
 47 35 l 1
 47 33 l 1
 49 33 l 1
 49 35 l 1
49 31 m 1
 47 31 l 1
 47 29 l 1
 49 29 l 1
 49 31 l 1
55 43 m 1
 53 43 l 1
 53 41 l 1
 55 41 l 1
 55 43 l 1
58 43 m 1
 56 43 l 1
 56 41 l 1
 57 41 l 1
 57 42 l 1
 58 42 l 1
 58 43 l 1
59 42 m 1
 58 42 l 1
 58 41 l 1
 60 41 l 1
 60 43 l 1
 59 43 l 1
 59 42 l 1
55 39 m 1
 53 39 l 1
 53 37 l 1
 55 37 l 1
 55 39 l 1
63 43 m 1
 61 43 l 1
 61 41 l 1
 63 41 l 1
 63 43 l 1
63 39 m 1
 61 39 l 1
 61 37 l 1
 63 37 l 1
 63 39 l 1
55 35 m 1
 53 35 l 1
 53 33 l 1
 55 33 l 1
 55 35 l 1
55 31 m 1
 53 31 l 1
 53 29 l 1
 55 29 l 1
 55 31 l 1
63 35 m 1
 61 35 l 1
 61 33 l 1
 63 33 l 1
 63 35 l 1
63 31 m 1
 61 31 l 1
 61 29 l 1
 63 29 l 1
 63 31 l 1
31 27 m 1
 29 27 l 1
 29 25 l 1
 31 25 l 1
 31 27 l 1
49 27 m 1
 47 27 l 1
 47 25 l 1
 49 25 l 1
 49 27 l 1
55 27 m 1
 53 27 l 1
 53 25 l 1
 55 25 l 1
 55 27 l 1
58 27 m 1
 56 27 l 1
 56 25 l 1
 57 25 l 1
 57 26 l 1
 58 26 l 1
 58 27 l 1
59 26 m 1
 58 26 l 1
 58 25 l 1
 60 25 l 1
 60 27 l 1
 59 27 l 1
 59 26 l 1
63 27 m 1
 61 27 l 1
 61 25 l 1
 63 25 l 1
 63 27 l 1
EndSplineSet
EndChar

StartChar: custom_4_0_0_5_6
Encoding: 32024 32024 12056
Width: 70
Flags: H
LayerCount: 2
Fore
SplineSet
23 43 m 1
 21 43 l 1
 21 41 l 1
 23 41 l 1
 23 43 l 1
26 43 m 1
 24 43 l 1
 24 41 l 1
 25 41 l 1
 25 42 l 1
 26 42 l 1
 26 43 l 1
27 42 m 1
 26 42 l 1
 26 41 l 1
 28 41 l 1
 28 43 l 1
 27 43 l 1
 27 42 l 1
31 43 m 1
 29 43 l 1
 29 41 l 1
 31 41 l 1
 31 43 l 1
31 39 m 1
 29 39 l 1
 29 37 l 1
 31 37 l 1
 31 39 l 1
36 37 m 1
 34 37 l 1
 34 35 l 1
 36 35 l 1
 36 37 l 1
31 35 m 1
 29 35 l 1
 29 33 l 1
 31 33 l 1
 31 35 l 1
36 33 m 1
 34 33 l 1
 34 31 l 1
 36 31 l 1
 36 33 l 1
31 31 m 1
 29 31 l 1
 29 29 l 1
 31 29 l 1
 31 31 l 1
41 43 m 1
 39 43 l 1
 39 41 l 1
 41 41 l 1
 41 43 l 1
41 39 m 1
 39 39 l 1
 39 37 l 1
 41 37 l 1
 41 39 l 1
49 43 m 1
 47 43 l 1
 47 41 l 1
 49 41 l 1
 49 43 l 1
49 39 m 1
 47 39 l 1
 47 37 l 1
 49 37 l 1
 49 39 l 1
41 35 m 1
 39 35 l 1
 39 33 l 1
 41 33 l 1
 41 35 l 1
43 35 m 1
 42 35 l 1
 42 33 l 1
 44 33 l 1
 44 34 l 1
 43 34 l 1
 43 35 l 1
46 35 m 1
 44 35 l 1
 44 34 l 1
 45 34 l 1
 45 33 l 1
 46 33 l 1
 46 35 l 1
49 35 m 1
 47 35 l 1
 47 33 l 1
 49 33 l 1
 49 35 l 1
49 31 m 1
 47 31 l 1
 47 29 l 1
 49 29 l 1
 49 31 l 1
55 43 m 1
 53 43 l 1
 53 41 l 1
 55 41 l 1
 55 43 l 1
58 43 m 1
 56 43 l 1
 56 41 l 1
 57 41 l 1
 57 42 l 1
 58 42 l 1
 58 43 l 1
59 42 m 1
 58 42 l 1
 58 41 l 1
 60 41 l 1
 60 43 l 1
 59 43 l 1
 59 42 l 1
55 39 m 1
 53 39 l 1
 53 37 l 1
 55 37 l 1
 55 39 l 1
63 43 m 1
 61 43 l 1
 61 41 l 1
 63 41 l 1
 63 43 l 1
63 39 m 1
 61 39 l 1
 61 37 l 1
 63 37 l 1
 63 39 l 1
55 35 m 1
 53 35 l 1
 53 33 l 1
 55 33 l 1
 55 35 l 1
55 31 m 1
 53 31 l 1
 53 29 l 1
 55 29 l 1
 55 31 l 1
63 35 m 1
 61 35 l 1
 61 33 l 1
 63 33 l 1
 63 35 l 1
63 31 m 1
 61 31 l 1
 61 29 l 1
 63 29 l 1
 63 31 l 1
31 27 m 1
 29 27 l 1
 29 25 l 1
 31 25 l 1
 31 27 l 1
49 27 m 1
 47 27 l 1
 47 25 l 1
 49 25 l 1
 49 27 l 1
55 27 m 1
 53 27 l 1
 53 25 l 1
 55 25 l 1
 55 27 l 1
58 27 m 1
 56 27 l 1
 56 25 l 1
 57 25 l 1
 57 26 l 1
 58 26 l 1
 58 27 l 1
59 26 m 1
 58 26 l 1
 58 25 l 1
 60 25 l 1
 60 27 l 1
 59 27 l 1
 59 26 l 1
63 27 m 1
 61 27 l 1
 61 25 l 1
 63 25 l 1
 63 27 l 1
EndSplineSet
EndChar

StartChar: custom_4_0_0_5_7
Encoding: 32025 32025 12057
Width: 70
Flags: H
LayerCount: 2
Fore
SplineSet
23 43 m 1
 21 43 l 1
 21 41 l 1
 23 41 l 1
 23 43 l 1
26 43 m 1
 24 43 l 1
 24 41 l 1
 25 41 l 1
 25 42 l 1
 26 42 l 1
 26 43 l 1
27 42 m 1
 26 42 l 1
 26 41 l 1
 28 41 l 1
 28 43 l 1
 27 43 l 1
 27 42 l 1
31 43 m 1
 29 43 l 1
 29 41 l 1
 31 41 l 1
 31 43 l 1
31 39 m 1
 29 39 l 1
 29 37 l 1
 31 37 l 1
 31 39 l 1
36 37 m 1
 34 37 l 1
 34 35 l 1
 36 35 l 1
 36 37 l 1
31 35 m 1
 29 35 l 1
 29 33 l 1
 31 33 l 1
 31 35 l 1
36 33 m 1
 34 33 l 1
 34 31 l 1
 36 31 l 1
 36 33 l 1
31 31 m 1
 29 31 l 1
 29 29 l 1
 31 29 l 1
 31 31 l 1
41 43 m 1
 39 43 l 1
 39 41 l 1
 41 41 l 1
 41 43 l 1
41 39 m 1
 39 39 l 1
 39 37 l 1
 41 37 l 1
 41 39 l 1
49 43 m 1
 47 43 l 1
 47 41 l 1
 49 41 l 1
 49 43 l 1
49 39 m 1
 47 39 l 1
 47 37 l 1
 49 37 l 1
 49 39 l 1
41 35 m 1
 39 35 l 1
 39 33 l 1
 41 33 l 1
 41 35 l 1
43 35 m 1
 42 35 l 1
 42 33 l 1
 44 33 l 1
 44 34 l 1
 43 34 l 1
 43 35 l 1
46 35 m 1
 44 35 l 1
 44 34 l 1
 45 34 l 1
 45 33 l 1
 46 33 l 1
 46 35 l 1
49 35 m 1
 47 35 l 1
 47 33 l 1
 49 33 l 1
 49 35 l 1
49 31 m 1
 47 31 l 1
 47 29 l 1
 49 29 l 1
 49 31 l 1
55 43 m 1
 53 43 l 1
 53 41 l 1
 55 41 l 1
 55 43 l 1
58 43 m 1
 56 43 l 1
 56 41 l 1
 57 41 l 1
 57 42 l 1
 58 42 l 1
 58 43 l 1
59 42 m 1
 58 42 l 1
 58 41 l 1
 60 41 l 1
 60 43 l 1
 59 43 l 1
 59 42 l 1
55 39 m 1
 53 39 l 1
 53 37 l 1
 55 37 l 1
 55 39 l 1
63 43 m 1
 61 43 l 1
 61 41 l 1
 63 41 l 1
 63 43 l 1
63 39 m 1
 61 39 l 1
 61 37 l 1
 63 37 l 1
 63 39 l 1
55 35 m 1
 53 35 l 1
 53 33 l 1
 55 33 l 1
 55 35 l 1
55 31 m 1
 53 31 l 1
 53 29 l 1
 55 29 l 1
 55 31 l 1
63 35 m 1
 61 35 l 1
 61 33 l 1
 63 33 l 1
 63 35 l 1
63 31 m 1
 61 31 l 1
 61 29 l 1
 63 29 l 1
 63 31 l 1
31 27 m 1
 29 27 l 1
 29 25 l 1
 31 25 l 1
 31 27 l 1
49 27 m 1
 47 27 l 1
 47 25 l 1
 49 25 l 1
 49 27 l 1
55 27 m 1
 53 27 l 1
 53 25 l 1
 55 25 l 1
 55 27 l 1
58 27 m 1
 56 27 l 1
 56 25 l 1
 57 25 l 1
 57 26 l 1
 58 26 l 1
 58 27 l 1
59 26 m 1
 58 26 l 1
 58 25 l 1
 60 25 l 1
 60 27 l 1
 59 27 l 1
 59 26 l 1
63 27 m 1
 61 27 l 1
 61 25 l 1
 63 25 l 1
 63 27 l 1
EndSplineSet
EndChar

StartChar: custom_4_0_0_5_8
Encoding: 32026 32026 12058
Width: 70
Flags: H
LayerCount: 2
Fore
SplineSet
23 43 m 1
 21 43 l 1
 21 41 l 1
 23 41 l 1
 23 43 l 1
26 43 m 1
 24 43 l 1
 24 41 l 1
 25 41 l 1
 25 42 l 1
 26 42 l 1
 26 43 l 1
27 42 m 1
 26 42 l 1
 26 41 l 1
 28 41 l 1
 28 43 l 1
 27 43 l 1
 27 42 l 1
31 43 m 1
 29 43 l 1
 29 41 l 1
 31 41 l 1
 31 43 l 1
31 39 m 1
 29 39 l 1
 29 37 l 1
 31 37 l 1
 31 39 l 1
36 37 m 1
 34 37 l 1
 34 35 l 1
 36 35 l 1
 36 37 l 1
31 35 m 1
 29 35 l 1
 29 33 l 1
 31 33 l 1
 31 35 l 1
36 33 m 1
 34 33 l 1
 34 31 l 1
 36 31 l 1
 36 33 l 1
31 31 m 1
 29 31 l 1
 29 29 l 1
 31 29 l 1
 31 31 l 1
41 43 m 1
 39 43 l 1
 39 41 l 1
 41 41 l 1
 41 43 l 1
41 39 m 1
 39 39 l 1
 39 37 l 1
 41 37 l 1
 41 39 l 1
49 43 m 1
 47 43 l 1
 47 41 l 1
 49 41 l 1
 49 43 l 1
49 39 m 1
 47 39 l 1
 47 37 l 1
 49 37 l 1
 49 39 l 1
41 35 m 1
 39 35 l 1
 39 33 l 1
 41 33 l 1
 41 35 l 1
43 35 m 1
 42 35 l 1
 42 33 l 1
 44 33 l 1
 44 34 l 1
 43 34 l 1
 43 35 l 1
46 35 m 1
 44 35 l 1
 44 34 l 1
 45 34 l 1
 45 33 l 1
 46 33 l 1
 46 35 l 1
49 35 m 1
 47 35 l 1
 47 33 l 1
 49 33 l 1
 49 35 l 1
49 31 m 1
 47 31 l 1
 47 29 l 1
 49 29 l 1
 49 31 l 1
55 43 m 1
 53 43 l 1
 53 41 l 1
 55 41 l 1
 55 43 l 1
58 43 m 1
 56 43 l 1
 56 41 l 1
 57 41 l 1
 57 42 l 1
 58 42 l 1
 58 43 l 1
59 42 m 1
 58 42 l 1
 58 41 l 1
 60 41 l 1
 60 43 l 1
 59 43 l 1
 59 42 l 1
55 39 m 1
 53 39 l 1
 53 37 l 1
 55 37 l 1
 55 39 l 1
63 43 m 1
 61 43 l 1
 61 41 l 1
 63 41 l 1
 63 43 l 1
63 39 m 1
 61 39 l 1
 61 37 l 1
 63 37 l 1
 63 39 l 1
55 35 m 1
 53 35 l 1
 53 33 l 1
 55 33 l 1
 55 35 l 1
55 31 m 1
 53 31 l 1
 53 29 l 1
 55 29 l 1
 55 31 l 1
63 35 m 1
 61 35 l 1
 61 33 l 1
 63 33 l 1
 63 35 l 1
63 31 m 1
 61 31 l 1
 61 29 l 1
 63 29 l 1
 63 31 l 1
31 27 m 1
 29 27 l 1
 29 25 l 1
 31 25 l 1
 31 27 l 1
49 27 m 1
 47 27 l 1
 47 25 l 1
 49 25 l 1
 49 27 l 1
55 27 m 1
 53 27 l 1
 53 25 l 1
 55 25 l 1
 55 27 l 1
58 27 m 1
 56 27 l 1
 56 25 l 1
 57 25 l 1
 57 26 l 1
 58 26 l 1
 58 27 l 1
59 26 m 1
 58 26 l 1
 58 25 l 1
 60 25 l 1
 60 27 l 1
 59 27 l 1
 59 26 l 1
63 27 m 1
 61 27 l 1
 61 25 l 1
 63 25 l 1
 63 27 l 1
EndSplineSet
EndChar

StartChar: custom_4_0_0_5_9
Encoding: 32027 32027 12059
Width: 70
Flags: H
LayerCount: 2
Fore
SplineSet
23 43 m 1
 21 43 l 1
 21 41 l 1
 23 41 l 1
 23 43 l 1
26 43 m 1
 24 43 l 1
 24 41 l 1
 25 41 l 1
 25 42 l 1
 26 42 l 1
 26 43 l 1
27 42 m 1
 26 42 l 1
 26 41 l 1
 28 41 l 1
 28 43 l 1
 27 43 l 1
 27 42 l 1
31 43 m 1
 29 43 l 1
 29 41 l 1
 31 41 l 1
 31 43 l 1
31 39 m 1
 29 39 l 1
 29 37 l 1
 31 37 l 1
 31 39 l 1
36 37 m 1
 34 37 l 1
 34 35 l 1
 36 35 l 1
 36 37 l 1
31 35 m 1
 29 35 l 1
 29 33 l 1
 31 33 l 1
 31 35 l 1
36 33 m 1
 34 33 l 1
 34 31 l 1
 36 31 l 1
 36 33 l 1
31 31 m 1
 29 31 l 1
 29 29 l 1
 31 29 l 1
 31 31 l 1
41 43 m 1
 39 43 l 1
 39 41 l 1
 41 41 l 1
 41 43 l 1
41 39 m 1
 39 39 l 1
 39 37 l 1
 41 37 l 1
 41 39 l 1
49 43 m 1
 47 43 l 1
 47 41 l 1
 49 41 l 1
 49 43 l 1
49 39 m 1
 47 39 l 1
 47 37 l 1
 49 37 l 1
 49 39 l 1
41 35 m 1
 39 35 l 1
 39 33 l 1
 41 33 l 1
 41 35 l 1
43 35 m 1
 42 35 l 1
 42 33 l 1
 44 33 l 1
 44 34 l 1
 43 34 l 1
 43 35 l 1
46 35 m 1
 44 35 l 1
 44 34 l 1
 45 34 l 1
 45 33 l 1
 46 33 l 1
 46 35 l 1
49 35 m 1
 47 35 l 1
 47 33 l 1
 49 33 l 1
 49 35 l 1
49 31 m 1
 47 31 l 1
 47 29 l 1
 49 29 l 1
 49 31 l 1
55 43 m 1
 53 43 l 1
 53 41 l 1
 55 41 l 1
 55 43 l 1
58 43 m 1
 56 43 l 1
 56 41 l 1
 57 41 l 1
 57 42 l 1
 58 42 l 1
 58 43 l 1
59 42 m 1
 58 42 l 1
 58 41 l 1
 60 41 l 1
 60 43 l 1
 59 43 l 1
 59 42 l 1
55 39 m 1
 53 39 l 1
 53 37 l 1
 55 37 l 1
 55 39 l 1
63 43 m 1
 61 43 l 1
 61 41 l 1
 63 41 l 1
 63 43 l 1
63 39 m 1
 61 39 l 1
 61 37 l 1
 63 37 l 1
 63 39 l 1
55 35 m 1
 53 35 l 1
 53 33 l 1
 55 33 l 1
 55 35 l 1
55 31 m 1
 53 31 l 1
 53 29 l 1
 55 29 l 1
 55 31 l 1
63 35 m 1
 61 35 l 1
 61 33 l 1
 63 33 l 1
 63 35 l 1
63 31 m 1
 61 31 l 1
 61 29 l 1
 63 29 l 1
 63 31 l 1
31 27 m 1
 29 27 l 1
 29 25 l 1
 31 25 l 1
 31 27 l 1
49 27 m 1
 47 27 l 1
 47 25 l 1
 49 25 l 1
 49 27 l 1
55 27 m 1
 53 27 l 1
 53 25 l 1
 55 25 l 1
 55 27 l 1
58 27 m 1
 56 27 l 1
 56 25 l 1
 57 25 l 1
 57 26 l 1
 58 26 l 1
 58 27 l 1
59 26 m 1
 58 26 l 1
 58 25 l 1
 60 25 l 1
 60 27 l 1
 59 27 l 1
 59 26 l 1
63 27 m 1
 61 27 l 1
 61 25 l 1
 63 25 l 1
 63 27 l 1
EndSplineSet
EndChar

StartChar: custom_4_0_0_6_0
Encoding: 32028 32028 12060
Width: 70
Flags: H
LayerCount: 2
Fore
SplineSet
23 43 m 1
 21 43 l 1
 21 41 l 1
 23 41 l 1
 23 43 l 1
26 43 m 1
 24 43 l 1
 24 41 l 1
 25 41 l 1
 25 42 l 1
 26 42 l 1
 26 43 l 1
27 42 m 1
 26 42 l 1
 26 41 l 1
 28 41 l 1
 28 43 l 1
 27 43 l 1
 27 42 l 1
31 43 m 1
 29 43 l 1
 29 41 l 1
 31 41 l 1
 31 43 l 1
31 39 m 1
 29 39 l 1
 29 37 l 1
 31 37 l 1
 31 39 l 1
36 37 m 1
 34 37 l 1
 34 35 l 1
 36 35 l 1
 36 37 l 1
31 35 m 1
 29 35 l 1
 29 33 l 1
 31 33 l 1
 31 35 l 1
36 33 m 1
 34 33 l 1
 34 31 l 1
 36 31 l 1
 36 33 l 1
31 31 m 1
 29 31 l 1
 29 29 l 1
 31 29 l 1
 31 31 l 1
41 43 m 1
 39 43 l 1
 39 41 l 1
 41 41 l 1
 41 43 l 1
41 39 m 1
 39 39 l 1
 39 37 l 1
 41 37 l 1
 41 39 l 1
49 43 m 1
 47 43 l 1
 47 41 l 1
 49 41 l 1
 49 43 l 1
49 39 m 1
 47 39 l 1
 47 37 l 1
 49 37 l 1
 49 39 l 1
41 35 m 1
 39 35 l 1
 39 33 l 1
 41 33 l 1
 41 35 l 1
43 35 m 1
 42 35 l 1
 42 33 l 1
 44 33 l 1
 44 34 l 1
 43 34 l 1
 43 35 l 1
46 35 m 1
 44 35 l 1
 44 34 l 1
 45 34 l 1
 45 33 l 1
 46 33 l 1
 46 35 l 1
49 35 m 1
 47 35 l 1
 47 33 l 1
 49 33 l 1
 49 35 l 1
49 31 m 1
 47 31 l 1
 47 29 l 1
 49 29 l 1
 49 31 l 1
55 43 m 1
 53 43 l 1
 53 41 l 1
 55 41 l 1
 55 43 l 1
58 43 m 1
 56 43 l 1
 56 41 l 1
 57 41 l 1
 57 42 l 1
 58 42 l 1
 58 43 l 1
59 42 m 1
 58 42 l 1
 58 41 l 1
 60 41 l 1
 60 43 l 1
 59 43 l 1
 59 42 l 1
55 39 m 1
 53 39 l 1
 53 37 l 1
 55 37 l 1
 55 39 l 1
63 43 m 1
 61 43 l 1
 61 41 l 1
 63 41 l 1
 63 43 l 1
63 39 m 1
 61 39 l 1
 61 37 l 1
 63 37 l 1
 63 39 l 1
55 35 m 1
 53 35 l 1
 53 33 l 1
 55 33 l 1
 55 35 l 1
55 31 m 1
 53 31 l 1
 53 29 l 1
 55 29 l 1
 55 31 l 1
63 35 m 1
 61 35 l 1
 61 33 l 1
 63 33 l 1
 63 35 l 1
63 31 m 1
 61 31 l 1
 61 29 l 1
 63 29 l 1
 63 31 l 1
31 27 m 1
 29 27 l 1
 29 25 l 1
 31 25 l 1
 31 27 l 1
49 27 m 1
 47 27 l 1
 47 25 l 1
 49 25 l 1
 49 27 l 1
55 27 m 1
 53 27 l 1
 53 25 l 1
 55 25 l 1
 55 27 l 1
58 27 m 1
 56 27 l 1
 56 25 l 1
 57 25 l 1
 57 26 l 1
 58 26 l 1
 58 27 l 1
59 26 m 1
 58 26 l 1
 58 25 l 1
 60 25 l 1
 60 27 l 1
 59 27 l 1
 59 26 l 1
63 27 m 1
 61 27 l 1
 61 25 l 1
 63 25 l 1
 63 27 l 1
EndSplineSet
EndChar

StartChar: custom_4_0_0_6_1
Encoding: 32029 32029 12061
Width: 70
Flags: H
LayerCount: 2
Fore
SplineSet
23 43 m 1
 21 43 l 1
 21 41 l 1
 23 41 l 1
 23 43 l 1
26 43 m 1
 24 43 l 1
 24 41 l 1
 25 41 l 1
 25 42 l 1
 26 42 l 1
 26 43 l 1
27 42 m 1
 26 42 l 1
 26 41 l 1
 28 41 l 1
 28 43 l 1
 27 43 l 1
 27 42 l 1
31 43 m 1
 29 43 l 1
 29 41 l 1
 31 41 l 1
 31 43 l 1
31 39 m 1
 29 39 l 1
 29 37 l 1
 31 37 l 1
 31 39 l 1
36 37 m 1
 34 37 l 1
 34 35 l 1
 36 35 l 1
 36 37 l 1
31 35 m 1
 29 35 l 1
 29 33 l 1
 31 33 l 1
 31 35 l 1
36 33 m 1
 34 33 l 1
 34 31 l 1
 36 31 l 1
 36 33 l 1
31 31 m 1
 29 31 l 1
 29 29 l 1
 31 29 l 1
 31 31 l 1
41 43 m 1
 39 43 l 1
 39 41 l 1
 41 41 l 1
 41 43 l 1
41 39 m 1
 39 39 l 1
 39 37 l 1
 41 37 l 1
 41 39 l 1
49 43 m 1
 47 43 l 1
 47 41 l 1
 49 41 l 1
 49 43 l 1
49 39 m 1
 47 39 l 1
 47 37 l 1
 49 37 l 1
 49 39 l 1
41 35 m 1
 39 35 l 1
 39 33 l 1
 41 33 l 1
 41 35 l 1
43 35 m 1
 42 35 l 1
 42 33 l 1
 44 33 l 1
 44 34 l 1
 43 34 l 1
 43 35 l 1
46 35 m 1
 44 35 l 1
 44 34 l 1
 45 34 l 1
 45 33 l 1
 46 33 l 1
 46 35 l 1
49 35 m 1
 47 35 l 1
 47 33 l 1
 49 33 l 1
 49 35 l 1
49 31 m 1
 47 31 l 1
 47 29 l 1
 49 29 l 1
 49 31 l 1
55 43 m 1
 53 43 l 1
 53 41 l 1
 55 41 l 1
 55 43 l 1
58 43 m 1
 56 43 l 1
 56 41 l 1
 57 41 l 1
 57 42 l 1
 58 42 l 1
 58 43 l 1
59 42 m 1
 58 42 l 1
 58 41 l 1
 60 41 l 1
 60 43 l 1
 59 43 l 1
 59 42 l 1
55 39 m 1
 53 39 l 1
 53 37 l 1
 55 37 l 1
 55 39 l 1
63 43 m 1
 61 43 l 1
 61 41 l 1
 63 41 l 1
 63 43 l 1
63 39 m 1
 61 39 l 1
 61 37 l 1
 63 37 l 1
 63 39 l 1
55 35 m 1
 53 35 l 1
 53 33 l 1
 55 33 l 1
 55 35 l 1
55 31 m 1
 53 31 l 1
 53 29 l 1
 55 29 l 1
 55 31 l 1
63 35 m 1
 61 35 l 1
 61 33 l 1
 63 33 l 1
 63 35 l 1
63 31 m 1
 61 31 l 1
 61 29 l 1
 63 29 l 1
 63 31 l 1
31 27 m 1
 29 27 l 1
 29 25 l 1
 31 25 l 1
 31 27 l 1
49 27 m 1
 47 27 l 1
 47 25 l 1
 49 25 l 1
 49 27 l 1
55 27 m 1
 53 27 l 1
 53 25 l 1
 55 25 l 1
 55 27 l 1
58 27 m 1
 56 27 l 1
 56 25 l 1
 57 25 l 1
 57 26 l 1
 58 26 l 1
 58 27 l 1
59 26 m 1
 58 26 l 1
 58 25 l 1
 60 25 l 1
 60 27 l 1
 59 27 l 1
 59 26 l 1
63 27 m 1
 61 27 l 1
 61 25 l 1
 63 25 l 1
 63 27 l 1
EndSplineSet
EndChar

StartChar: custom_4_0_0_6_2
Encoding: 32030 32030 12062
Width: 70
Flags: H
LayerCount: 2
Fore
SplineSet
23 43 m 1
 21 43 l 1
 21 41 l 1
 23 41 l 1
 23 43 l 1
26 43 m 1
 24 43 l 1
 24 41 l 1
 25 41 l 1
 25 42 l 1
 26 42 l 1
 26 43 l 1
27 42 m 1
 26 42 l 1
 26 41 l 1
 28 41 l 1
 28 43 l 1
 27 43 l 1
 27 42 l 1
31 43 m 1
 29 43 l 1
 29 41 l 1
 31 41 l 1
 31 43 l 1
31 39 m 1
 29 39 l 1
 29 37 l 1
 31 37 l 1
 31 39 l 1
36 37 m 1
 34 37 l 1
 34 35 l 1
 36 35 l 1
 36 37 l 1
31 35 m 1
 29 35 l 1
 29 33 l 1
 31 33 l 1
 31 35 l 1
36 33 m 1
 34 33 l 1
 34 31 l 1
 36 31 l 1
 36 33 l 1
31 31 m 1
 29 31 l 1
 29 29 l 1
 31 29 l 1
 31 31 l 1
41 43 m 1
 39 43 l 1
 39 41 l 1
 41 41 l 1
 41 43 l 1
41 39 m 1
 39 39 l 1
 39 37 l 1
 41 37 l 1
 41 39 l 1
49 43 m 1
 47 43 l 1
 47 41 l 1
 49 41 l 1
 49 43 l 1
49 39 m 1
 47 39 l 1
 47 37 l 1
 49 37 l 1
 49 39 l 1
41 35 m 1
 39 35 l 1
 39 33 l 1
 41 33 l 1
 41 35 l 1
43 35 m 1
 42 35 l 1
 42 33 l 1
 44 33 l 1
 44 34 l 1
 43 34 l 1
 43 35 l 1
46 35 m 1
 44 35 l 1
 44 34 l 1
 45 34 l 1
 45 33 l 1
 46 33 l 1
 46 35 l 1
49 35 m 1
 47 35 l 1
 47 33 l 1
 49 33 l 1
 49 35 l 1
49 31 m 1
 47 31 l 1
 47 29 l 1
 49 29 l 1
 49 31 l 1
55 43 m 1
 53 43 l 1
 53 41 l 1
 55 41 l 1
 55 43 l 1
58 43 m 1
 56 43 l 1
 56 41 l 1
 57 41 l 1
 57 42 l 1
 58 42 l 1
 58 43 l 1
59 42 m 1
 58 42 l 1
 58 41 l 1
 60 41 l 1
 60 43 l 1
 59 43 l 1
 59 42 l 1
55 39 m 1
 53 39 l 1
 53 37 l 1
 55 37 l 1
 55 39 l 1
63 43 m 1
 61 43 l 1
 61 41 l 1
 63 41 l 1
 63 43 l 1
63 39 m 1
 61 39 l 1
 61 37 l 1
 63 37 l 1
 63 39 l 1
55 35 m 1
 53 35 l 1
 53 33 l 1
 55 33 l 1
 55 35 l 1
55 31 m 1
 53 31 l 1
 53 29 l 1
 55 29 l 1
 55 31 l 1
63 35 m 1
 61 35 l 1
 61 33 l 1
 63 33 l 1
 63 35 l 1
63 31 m 1
 61 31 l 1
 61 29 l 1
 63 29 l 1
 63 31 l 1
31 27 m 1
 29 27 l 1
 29 25 l 1
 31 25 l 1
 31 27 l 1
49 27 m 1
 47 27 l 1
 47 25 l 1
 49 25 l 1
 49 27 l 1
55 27 m 1
 53 27 l 1
 53 25 l 1
 55 25 l 1
 55 27 l 1
58 27 m 1
 56 27 l 1
 56 25 l 1
 57 25 l 1
 57 26 l 1
 58 26 l 1
 58 27 l 1
59 26 m 1
 58 26 l 1
 58 25 l 1
 60 25 l 1
 60 27 l 1
 59 27 l 1
 59 26 l 1
63 27 m 1
 61 27 l 1
 61 25 l 1
 63 25 l 1
 63 27 l 1
EndSplineSet
EndChar

StartChar: custom_4_0_0_6_3
Encoding: 32031 32031 12063
Width: 70
Flags: H
LayerCount: 2
Fore
SplineSet
23 43 m 1
 21 43 l 1
 21 41 l 1
 23 41 l 1
 23 43 l 1
26 43 m 1
 24 43 l 1
 24 41 l 1
 25 41 l 1
 25 42 l 1
 26 42 l 1
 26 43 l 1
27 42 m 1
 26 42 l 1
 26 41 l 1
 28 41 l 1
 28 43 l 1
 27 43 l 1
 27 42 l 1
31 43 m 1
 29 43 l 1
 29 41 l 1
 31 41 l 1
 31 43 l 1
31 39 m 1
 29 39 l 1
 29 37 l 1
 31 37 l 1
 31 39 l 1
36 37 m 1
 34 37 l 1
 34 35 l 1
 36 35 l 1
 36 37 l 1
31 35 m 1
 29 35 l 1
 29 33 l 1
 31 33 l 1
 31 35 l 1
36 33 m 1
 34 33 l 1
 34 31 l 1
 36 31 l 1
 36 33 l 1
31 31 m 1
 29 31 l 1
 29 29 l 1
 31 29 l 1
 31 31 l 1
41 43 m 1
 39 43 l 1
 39 41 l 1
 41 41 l 1
 41 43 l 1
41 39 m 1
 39 39 l 1
 39 37 l 1
 41 37 l 1
 41 39 l 1
49 43 m 1
 47 43 l 1
 47 41 l 1
 49 41 l 1
 49 43 l 1
49 39 m 1
 47 39 l 1
 47 37 l 1
 49 37 l 1
 49 39 l 1
41 35 m 1
 39 35 l 1
 39 33 l 1
 41 33 l 1
 41 35 l 1
43 35 m 1
 42 35 l 1
 42 33 l 1
 44 33 l 1
 44 34 l 1
 43 34 l 1
 43 35 l 1
46 35 m 1
 44 35 l 1
 44 34 l 1
 45 34 l 1
 45 33 l 1
 46 33 l 1
 46 35 l 1
49 35 m 1
 47 35 l 1
 47 33 l 1
 49 33 l 1
 49 35 l 1
49 31 m 1
 47 31 l 1
 47 29 l 1
 49 29 l 1
 49 31 l 1
55 43 m 1
 53 43 l 1
 53 41 l 1
 55 41 l 1
 55 43 l 1
58 43 m 1
 56 43 l 1
 56 41 l 1
 57 41 l 1
 57 42 l 1
 58 42 l 1
 58 43 l 1
59 42 m 1
 58 42 l 1
 58 41 l 1
 60 41 l 1
 60 43 l 1
 59 43 l 1
 59 42 l 1
55 39 m 1
 53 39 l 1
 53 37 l 1
 55 37 l 1
 55 39 l 1
63 43 m 1
 61 43 l 1
 61 41 l 1
 63 41 l 1
 63 43 l 1
63 39 m 1
 61 39 l 1
 61 37 l 1
 63 37 l 1
 63 39 l 1
55 35 m 1
 53 35 l 1
 53 33 l 1
 55 33 l 1
 55 35 l 1
55 31 m 1
 53 31 l 1
 53 29 l 1
 55 29 l 1
 55 31 l 1
63 35 m 1
 61 35 l 1
 61 33 l 1
 63 33 l 1
 63 35 l 1
63 31 m 1
 61 31 l 1
 61 29 l 1
 63 29 l 1
 63 31 l 1
31 27 m 1
 29 27 l 1
 29 25 l 1
 31 25 l 1
 31 27 l 1
49 27 m 1
 47 27 l 1
 47 25 l 1
 49 25 l 1
 49 27 l 1
55 27 m 1
 53 27 l 1
 53 25 l 1
 55 25 l 1
 55 27 l 1
58 27 m 1
 56 27 l 1
 56 25 l 1
 57 25 l 1
 57 26 l 1
 58 26 l 1
 58 27 l 1
59 26 m 1
 58 26 l 1
 58 25 l 1
 60 25 l 1
 60 27 l 1
 59 27 l 1
 59 26 l 1
63 27 m 1
 61 27 l 1
 61 25 l 1
 63 25 l 1
 63 27 l 1
EndSplineSet
EndChar

StartChar: custom_4_0_0_6_4
Encoding: 32032 32032 12064
Width: 70
Flags: H
LayerCount: 2
Fore
SplineSet
23 43 m 1
 21 43 l 1
 21 41 l 1
 23 41 l 1
 23 43 l 1
26 43 m 1
 24 43 l 1
 24 41 l 1
 25 41 l 1
 25 42 l 1
 26 42 l 1
 26 43 l 1
27 42 m 1
 26 42 l 1
 26 41 l 1
 28 41 l 1
 28 43 l 1
 27 43 l 1
 27 42 l 1
31 43 m 1
 29 43 l 1
 29 41 l 1
 31 41 l 1
 31 43 l 1
31 39 m 1
 29 39 l 1
 29 37 l 1
 31 37 l 1
 31 39 l 1
36 37 m 1
 34 37 l 1
 34 35 l 1
 36 35 l 1
 36 37 l 1
31 35 m 1
 29 35 l 1
 29 33 l 1
 31 33 l 1
 31 35 l 1
36 33 m 1
 34 33 l 1
 34 31 l 1
 36 31 l 1
 36 33 l 1
31 31 m 1
 29 31 l 1
 29 29 l 1
 31 29 l 1
 31 31 l 1
41 43 m 1
 39 43 l 1
 39 41 l 1
 41 41 l 1
 41 43 l 1
41 39 m 1
 39 39 l 1
 39 37 l 1
 41 37 l 1
 41 39 l 1
49 43 m 1
 47 43 l 1
 47 41 l 1
 49 41 l 1
 49 43 l 1
49 39 m 1
 47 39 l 1
 47 37 l 1
 49 37 l 1
 49 39 l 1
41 35 m 1
 39 35 l 1
 39 33 l 1
 41 33 l 1
 41 35 l 1
43 35 m 1
 42 35 l 1
 42 33 l 1
 44 33 l 1
 44 34 l 1
 43 34 l 1
 43 35 l 1
46 35 m 1
 44 35 l 1
 44 34 l 1
 45 34 l 1
 45 33 l 1
 46 33 l 1
 46 35 l 1
49 35 m 1
 47 35 l 1
 47 33 l 1
 49 33 l 1
 49 35 l 1
49 31 m 1
 47 31 l 1
 47 29 l 1
 49 29 l 1
 49 31 l 1
55 43 m 1
 53 43 l 1
 53 41 l 1
 55 41 l 1
 55 43 l 1
58 43 m 1
 56 43 l 1
 56 41 l 1
 57 41 l 1
 57 42 l 1
 58 42 l 1
 58 43 l 1
59 42 m 1
 58 42 l 1
 58 41 l 1
 60 41 l 1
 60 43 l 1
 59 43 l 1
 59 42 l 1
55 39 m 1
 53 39 l 1
 53 37 l 1
 55 37 l 1
 55 39 l 1
63 43 m 1
 61 43 l 1
 61 41 l 1
 63 41 l 1
 63 43 l 1
63 39 m 1
 61 39 l 1
 61 37 l 1
 63 37 l 1
 63 39 l 1
55 35 m 1
 53 35 l 1
 53 33 l 1
 55 33 l 1
 55 35 l 1
55 31 m 1
 53 31 l 1
 53 29 l 1
 55 29 l 1
 55 31 l 1
63 35 m 1
 61 35 l 1
 61 33 l 1
 63 33 l 1
 63 35 l 1
63 31 m 1
 61 31 l 1
 61 29 l 1
 63 29 l 1
 63 31 l 1
31 27 m 1
 29 27 l 1
 29 25 l 1
 31 25 l 1
 31 27 l 1
49 27 m 1
 47 27 l 1
 47 25 l 1
 49 25 l 1
 49 27 l 1
55 27 m 1
 53 27 l 1
 53 25 l 1
 55 25 l 1
 55 27 l 1
58 27 m 1
 56 27 l 1
 56 25 l 1
 57 25 l 1
 57 26 l 1
 58 26 l 1
 58 27 l 1
59 26 m 1
 58 26 l 1
 58 25 l 1
 60 25 l 1
 60 27 l 1
 59 27 l 1
 59 26 l 1
63 27 m 1
 61 27 l 1
 61 25 l 1
 63 25 l 1
 63 27 l 1
EndSplineSet
EndChar

StartChar: custom_4_0_0_6_5
Encoding: 32033 32033 12065
Width: 70
Flags: H
LayerCount: 2
Fore
SplineSet
23 43 m 1
 21 43 l 1
 21 41 l 1
 23 41 l 1
 23 43 l 1
26 43 m 1
 24 43 l 1
 24 41 l 1
 25 41 l 1
 25 42 l 1
 26 42 l 1
 26 43 l 1
27 42 m 1
 26 42 l 1
 26 41 l 1
 28 41 l 1
 28 43 l 1
 27 43 l 1
 27 42 l 1
31 43 m 1
 29 43 l 1
 29 41 l 1
 31 41 l 1
 31 43 l 1
31 39 m 1
 29 39 l 1
 29 37 l 1
 31 37 l 1
 31 39 l 1
36 37 m 1
 34 37 l 1
 34 35 l 1
 36 35 l 1
 36 37 l 1
31 35 m 1
 29 35 l 1
 29 33 l 1
 31 33 l 1
 31 35 l 1
36 33 m 1
 34 33 l 1
 34 31 l 1
 36 31 l 1
 36 33 l 1
31 31 m 1
 29 31 l 1
 29 29 l 1
 31 29 l 1
 31 31 l 1
41 43 m 1
 39 43 l 1
 39 41 l 1
 41 41 l 1
 41 43 l 1
41 39 m 1
 39 39 l 1
 39 37 l 1
 41 37 l 1
 41 39 l 1
49 43 m 1
 47 43 l 1
 47 41 l 1
 49 41 l 1
 49 43 l 1
49 39 m 1
 47 39 l 1
 47 37 l 1
 49 37 l 1
 49 39 l 1
41 35 m 1
 39 35 l 1
 39 33 l 1
 41 33 l 1
 41 35 l 1
43 35 m 1
 42 35 l 1
 42 33 l 1
 44 33 l 1
 44 34 l 1
 43 34 l 1
 43 35 l 1
46 35 m 1
 44 35 l 1
 44 34 l 1
 45 34 l 1
 45 33 l 1
 46 33 l 1
 46 35 l 1
49 35 m 1
 47 35 l 1
 47 33 l 1
 49 33 l 1
 49 35 l 1
49 31 m 1
 47 31 l 1
 47 29 l 1
 49 29 l 1
 49 31 l 1
55 43 m 1
 53 43 l 1
 53 41 l 1
 55 41 l 1
 55 43 l 1
58 43 m 1
 56 43 l 1
 56 41 l 1
 57 41 l 1
 57 42 l 1
 58 42 l 1
 58 43 l 1
59 42 m 1
 58 42 l 1
 58 41 l 1
 60 41 l 1
 60 43 l 1
 59 43 l 1
 59 42 l 1
55 39 m 1
 53 39 l 1
 53 37 l 1
 55 37 l 1
 55 39 l 1
63 43 m 1
 61 43 l 1
 61 41 l 1
 63 41 l 1
 63 43 l 1
63 39 m 1
 61 39 l 1
 61 37 l 1
 63 37 l 1
 63 39 l 1
55 35 m 1
 53 35 l 1
 53 33 l 1
 55 33 l 1
 55 35 l 1
55 31 m 1
 53 31 l 1
 53 29 l 1
 55 29 l 1
 55 31 l 1
63 35 m 1
 61 35 l 1
 61 33 l 1
 63 33 l 1
 63 35 l 1
63 31 m 1
 61 31 l 1
 61 29 l 1
 63 29 l 1
 63 31 l 1
31 27 m 1
 29 27 l 1
 29 25 l 1
 31 25 l 1
 31 27 l 1
49 27 m 1
 47 27 l 1
 47 25 l 1
 49 25 l 1
 49 27 l 1
55 27 m 1
 53 27 l 1
 53 25 l 1
 55 25 l 1
 55 27 l 1
58 27 m 1
 56 27 l 1
 56 25 l 1
 57 25 l 1
 57 26 l 1
 58 26 l 1
 58 27 l 1
59 26 m 1
 58 26 l 1
 58 25 l 1
 60 25 l 1
 60 27 l 1
 59 27 l 1
 59 26 l 1
63 27 m 1
 61 27 l 1
 61 25 l 1
 63 25 l 1
 63 27 l 1
EndSplineSet
EndChar

StartChar: custom_4_0_0_6_6
Encoding: 32034 32034 12066
Width: 70
Flags: H
LayerCount: 2
Fore
SplineSet
23 43 m 1
 21 43 l 1
 21 41 l 1
 23 41 l 1
 23 43 l 1
26 43 m 1
 24 43 l 1
 24 41 l 1
 25 41 l 1
 25 42 l 1
 26 42 l 1
 26 43 l 1
27 42 m 1
 26 42 l 1
 26 41 l 1
 28 41 l 1
 28 43 l 1
 27 43 l 1
 27 42 l 1
31 43 m 1
 29 43 l 1
 29 41 l 1
 31 41 l 1
 31 43 l 1
31 39 m 1
 29 39 l 1
 29 37 l 1
 31 37 l 1
 31 39 l 1
36 37 m 1
 34 37 l 1
 34 35 l 1
 36 35 l 1
 36 37 l 1
31 35 m 1
 29 35 l 1
 29 33 l 1
 31 33 l 1
 31 35 l 1
36 33 m 1
 34 33 l 1
 34 31 l 1
 36 31 l 1
 36 33 l 1
31 31 m 1
 29 31 l 1
 29 29 l 1
 31 29 l 1
 31 31 l 1
41 43 m 1
 39 43 l 1
 39 41 l 1
 41 41 l 1
 41 43 l 1
41 39 m 1
 39 39 l 1
 39 37 l 1
 41 37 l 1
 41 39 l 1
49 43 m 1
 47 43 l 1
 47 41 l 1
 49 41 l 1
 49 43 l 1
49 39 m 1
 47 39 l 1
 47 37 l 1
 49 37 l 1
 49 39 l 1
41 35 m 1
 39 35 l 1
 39 33 l 1
 41 33 l 1
 41 35 l 1
43 35 m 1
 42 35 l 1
 42 33 l 1
 44 33 l 1
 44 34 l 1
 43 34 l 1
 43 35 l 1
46 35 m 1
 44 35 l 1
 44 34 l 1
 45 34 l 1
 45 33 l 1
 46 33 l 1
 46 35 l 1
49 35 m 1
 47 35 l 1
 47 33 l 1
 49 33 l 1
 49 35 l 1
49 31 m 1
 47 31 l 1
 47 29 l 1
 49 29 l 1
 49 31 l 1
55 43 m 1
 53 43 l 1
 53 41 l 1
 55 41 l 1
 55 43 l 1
58 43 m 1
 56 43 l 1
 56 41 l 1
 57 41 l 1
 57 42 l 1
 58 42 l 1
 58 43 l 1
59 42 m 1
 58 42 l 1
 58 41 l 1
 60 41 l 1
 60 43 l 1
 59 43 l 1
 59 42 l 1
55 39 m 1
 53 39 l 1
 53 37 l 1
 55 37 l 1
 55 39 l 1
63 43 m 1
 61 43 l 1
 61 41 l 1
 63 41 l 1
 63 43 l 1
63 39 m 1
 61 39 l 1
 61 37 l 1
 63 37 l 1
 63 39 l 1
55 35 m 1
 53 35 l 1
 53 33 l 1
 55 33 l 1
 55 35 l 1
55 31 m 1
 53 31 l 1
 53 29 l 1
 55 29 l 1
 55 31 l 1
63 35 m 1
 61 35 l 1
 61 33 l 1
 63 33 l 1
 63 35 l 1
63 31 m 1
 61 31 l 1
 61 29 l 1
 63 29 l 1
 63 31 l 1
31 27 m 1
 29 27 l 1
 29 25 l 1
 31 25 l 1
 31 27 l 1
49 27 m 1
 47 27 l 1
 47 25 l 1
 49 25 l 1
 49 27 l 1
55 27 m 1
 53 27 l 1
 53 25 l 1
 55 25 l 1
 55 27 l 1
58 27 m 1
 56 27 l 1
 56 25 l 1
 57 25 l 1
 57 26 l 1
 58 26 l 1
 58 27 l 1
59 26 m 1
 58 26 l 1
 58 25 l 1
 60 25 l 1
 60 27 l 1
 59 27 l 1
 59 26 l 1
63 27 m 1
 61 27 l 1
 61 25 l 1
 63 25 l 1
 63 27 l 1
EndSplineSet
EndChar

StartChar: custom_4_0_0_6_7
Encoding: 32035 32035 12067
Width: 70
Flags: H
LayerCount: 2
Fore
SplineSet
23 43 m 1
 21 43 l 1
 21 41 l 1
 23 41 l 1
 23 43 l 1
26 43 m 1
 24 43 l 1
 24 41 l 1
 25 41 l 1
 25 42 l 1
 26 42 l 1
 26 43 l 1
27 42 m 1
 26 42 l 1
 26 41 l 1
 28 41 l 1
 28 43 l 1
 27 43 l 1
 27 42 l 1
31 43 m 1
 29 43 l 1
 29 41 l 1
 31 41 l 1
 31 43 l 1
31 39 m 1
 29 39 l 1
 29 37 l 1
 31 37 l 1
 31 39 l 1
36 37 m 1
 34 37 l 1
 34 35 l 1
 36 35 l 1
 36 37 l 1
31 35 m 1
 29 35 l 1
 29 33 l 1
 31 33 l 1
 31 35 l 1
36 33 m 1
 34 33 l 1
 34 31 l 1
 36 31 l 1
 36 33 l 1
31 31 m 1
 29 31 l 1
 29 29 l 1
 31 29 l 1
 31 31 l 1
41 43 m 1
 39 43 l 1
 39 41 l 1
 41 41 l 1
 41 43 l 1
41 39 m 1
 39 39 l 1
 39 37 l 1
 41 37 l 1
 41 39 l 1
49 43 m 1
 47 43 l 1
 47 41 l 1
 49 41 l 1
 49 43 l 1
49 39 m 1
 47 39 l 1
 47 37 l 1
 49 37 l 1
 49 39 l 1
41 35 m 1
 39 35 l 1
 39 33 l 1
 41 33 l 1
 41 35 l 1
43 35 m 1
 42 35 l 1
 42 33 l 1
 44 33 l 1
 44 34 l 1
 43 34 l 1
 43 35 l 1
46 35 m 1
 44 35 l 1
 44 34 l 1
 45 34 l 1
 45 33 l 1
 46 33 l 1
 46 35 l 1
49 35 m 1
 47 35 l 1
 47 33 l 1
 49 33 l 1
 49 35 l 1
49 31 m 1
 47 31 l 1
 47 29 l 1
 49 29 l 1
 49 31 l 1
55 43 m 1
 53 43 l 1
 53 41 l 1
 55 41 l 1
 55 43 l 1
58 43 m 1
 56 43 l 1
 56 41 l 1
 57 41 l 1
 57 42 l 1
 58 42 l 1
 58 43 l 1
59 42 m 1
 58 42 l 1
 58 41 l 1
 60 41 l 1
 60 43 l 1
 59 43 l 1
 59 42 l 1
55 39 m 1
 53 39 l 1
 53 37 l 1
 55 37 l 1
 55 39 l 1
63 43 m 1
 61 43 l 1
 61 41 l 1
 63 41 l 1
 63 43 l 1
63 39 m 1
 61 39 l 1
 61 37 l 1
 63 37 l 1
 63 39 l 1
55 35 m 1
 53 35 l 1
 53 33 l 1
 55 33 l 1
 55 35 l 1
55 31 m 1
 53 31 l 1
 53 29 l 1
 55 29 l 1
 55 31 l 1
63 35 m 1
 61 35 l 1
 61 33 l 1
 63 33 l 1
 63 35 l 1
63 31 m 1
 61 31 l 1
 61 29 l 1
 63 29 l 1
 63 31 l 1
31 27 m 1
 29 27 l 1
 29 25 l 1
 31 25 l 1
 31 27 l 1
49 27 m 1
 47 27 l 1
 47 25 l 1
 49 25 l 1
 49 27 l 1
55 27 m 1
 53 27 l 1
 53 25 l 1
 55 25 l 1
 55 27 l 1
58 27 m 1
 56 27 l 1
 56 25 l 1
 57 25 l 1
 57 26 l 1
 58 26 l 1
 58 27 l 1
59 26 m 1
 58 26 l 1
 58 25 l 1
 60 25 l 1
 60 27 l 1
 59 27 l 1
 59 26 l 1
63 27 m 1
 61 27 l 1
 61 25 l 1
 63 25 l 1
 63 27 l 1
EndSplineSet
EndChar

StartChar: custom_4_0_0_6_8
Encoding: 32036 32036 12068
Width: 70
Flags: H
LayerCount: 2
Fore
SplineSet
23 43 m 1
 21 43 l 1
 21 41 l 1
 23 41 l 1
 23 43 l 1
26 43 m 1
 24 43 l 1
 24 41 l 1
 25 41 l 1
 25 42 l 1
 26 42 l 1
 26 43 l 1
27 42 m 1
 26 42 l 1
 26 41 l 1
 28 41 l 1
 28 43 l 1
 27 43 l 1
 27 42 l 1
31 43 m 1
 29 43 l 1
 29 41 l 1
 31 41 l 1
 31 43 l 1
31 39 m 1
 29 39 l 1
 29 37 l 1
 31 37 l 1
 31 39 l 1
36 37 m 1
 34 37 l 1
 34 35 l 1
 36 35 l 1
 36 37 l 1
31 35 m 1
 29 35 l 1
 29 33 l 1
 31 33 l 1
 31 35 l 1
36 33 m 1
 34 33 l 1
 34 31 l 1
 36 31 l 1
 36 33 l 1
31 31 m 1
 29 31 l 1
 29 29 l 1
 31 29 l 1
 31 31 l 1
41 43 m 1
 39 43 l 1
 39 41 l 1
 41 41 l 1
 41 43 l 1
41 39 m 1
 39 39 l 1
 39 37 l 1
 41 37 l 1
 41 39 l 1
49 43 m 1
 47 43 l 1
 47 41 l 1
 49 41 l 1
 49 43 l 1
49 39 m 1
 47 39 l 1
 47 37 l 1
 49 37 l 1
 49 39 l 1
41 35 m 1
 39 35 l 1
 39 33 l 1
 41 33 l 1
 41 35 l 1
43 35 m 1
 42 35 l 1
 42 33 l 1
 44 33 l 1
 44 34 l 1
 43 34 l 1
 43 35 l 1
46 35 m 1
 44 35 l 1
 44 34 l 1
 45 34 l 1
 45 33 l 1
 46 33 l 1
 46 35 l 1
49 35 m 1
 47 35 l 1
 47 33 l 1
 49 33 l 1
 49 35 l 1
49 31 m 1
 47 31 l 1
 47 29 l 1
 49 29 l 1
 49 31 l 1
55 43 m 1
 53 43 l 1
 53 41 l 1
 55 41 l 1
 55 43 l 1
58 43 m 1
 56 43 l 1
 56 41 l 1
 57 41 l 1
 57 42 l 1
 58 42 l 1
 58 43 l 1
59 42 m 1
 58 42 l 1
 58 41 l 1
 60 41 l 1
 60 43 l 1
 59 43 l 1
 59 42 l 1
55 39 m 1
 53 39 l 1
 53 37 l 1
 55 37 l 1
 55 39 l 1
63 43 m 1
 61 43 l 1
 61 41 l 1
 63 41 l 1
 63 43 l 1
63 39 m 1
 61 39 l 1
 61 37 l 1
 63 37 l 1
 63 39 l 1
55 35 m 1
 53 35 l 1
 53 33 l 1
 55 33 l 1
 55 35 l 1
55 31 m 1
 53 31 l 1
 53 29 l 1
 55 29 l 1
 55 31 l 1
63 35 m 1
 61 35 l 1
 61 33 l 1
 63 33 l 1
 63 35 l 1
63 31 m 1
 61 31 l 1
 61 29 l 1
 63 29 l 1
 63 31 l 1
31 27 m 1
 29 27 l 1
 29 25 l 1
 31 25 l 1
 31 27 l 1
49 27 m 1
 47 27 l 1
 47 25 l 1
 49 25 l 1
 49 27 l 1
55 27 m 1
 53 27 l 1
 53 25 l 1
 55 25 l 1
 55 27 l 1
58 27 m 1
 56 27 l 1
 56 25 l 1
 57 25 l 1
 57 26 l 1
 58 26 l 1
 58 27 l 1
59 26 m 1
 58 26 l 1
 58 25 l 1
 60 25 l 1
 60 27 l 1
 59 27 l 1
 59 26 l 1
63 27 m 1
 61 27 l 1
 61 25 l 1
 63 25 l 1
 63 27 l 1
EndSplineSet
EndChar

StartChar: custom_4_0_0_6_9
Encoding: 32037 32037 12069
Width: 70
Flags: H
LayerCount: 2
Fore
SplineSet
23 43 m 1
 21 43 l 1
 21 41 l 1
 23 41 l 1
 23 43 l 1
26 43 m 1
 24 43 l 1
 24 41 l 1
 25 41 l 1
 25 42 l 1
 26 42 l 1
 26 43 l 1
27 42 m 1
 26 42 l 1
 26 41 l 1
 28 41 l 1
 28 43 l 1
 27 43 l 1
 27 42 l 1
31 43 m 1
 29 43 l 1
 29 41 l 1
 31 41 l 1
 31 43 l 1
31 39 m 1
 29 39 l 1
 29 37 l 1
 31 37 l 1
 31 39 l 1
36 37 m 1
 34 37 l 1
 34 35 l 1
 36 35 l 1
 36 37 l 1
31 35 m 1
 29 35 l 1
 29 33 l 1
 31 33 l 1
 31 35 l 1
36 33 m 1
 34 33 l 1
 34 31 l 1
 36 31 l 1
 36 33 l 1
31 31 m 1
 29 31 l 1
 29 29 l 1
 31 29 l 1
 31 31 l 1
41 43 m 1
 39 43 l 1
 39 41 l 1
 41 41 l 1
 41 43 l 1
41 39 m 1
 39 39 l 1
 39 37 l 1
 41 37 l 1
 41 39 l 1
49 43 m 1
 47 43 l 1
 47 41 l 1
 49 41 l 1
 49 43 l 1
49 39 m 1
 47 39 l 1
 47 37 l 1
 49 37 l 1
 49 39 l 1
41 35 m 1
 39 35 l 1
 39 33 l 1
 41 33 l 1
 41 35 l 1
43 35 m 1
 42 35 l 1
 42 33 l 1
 44 33 l 1
 44 34 l 1
 43 34 l 1
 43 35 l 1
46 35 m 1
 44 35 l 1
 44 34 l 1
 45 34 l 1
 45 33 l 1
 46 33 l 1
 46 35 l 1
49 35 m 1
 47 35 l 1
 47 33 l 1
 49 33 l 1
 49 35 l 1
49 31 m 1
 47 31 l 1
 47 29 l 1
 49 29 l 1
 49 31 l 1
55 43 m 1
 53 43 l 1
 53 41 l 1
 55 41 l 1
 55 43 l 1
58 43 m 1
 56 43 l 1
 56 41 l 1
 57 41 l 1
 57 42 l 1
 58 42 l 1
 58 43 l 1
59 42 m 1
 58 42 l 1
 58 41 l 1
 60 41 l 1
 60 43 l 1
 59 43 l 1
 59 42 l 1
55 39 m 1
 53 39 l 1
 53 37 l 1
 55 37 l 1
 55 39 l 1
63 43 m 1
 61 43 l 1
 61 41 l 1
 63 41 l 1
 63 43 l 1
63 39 m 1
 61 39 l 1
 61 37 l 1
 63 37 l 1
 63 39 l 1
55 35 m 1
 53 35 l 1
 53 33 l 1
 55 33 l 1
 55 35 l 1
55 31 m 1
 53 31 l 1
 53 29 l 1
 55 29 l 1
 55 31 l 1
63 35 m 1
 61 35 l 1
 61 33 l 1
 63 33 l 1
 63 35 l 1
63 31 m 1
 61 31 l 1
 61 29 l 1
 63 29 l 1
 63 31 l 1
31 27 m 1
 29 27 l 1
 29 25 l 1
 31 25 l 1
 31 27 l 1
49 27 m 1
 47 27 l 1
 47 25 l 1
 49 25 l 1
 49 27 l 1
55 27 m 1
 53 27 l 1
 53 25 l 1
 55 25 l 1
 55 27 l 1
58 27 m 1
 56 27 l 1
 56 25 l 1
 57 25 l 1
 57 26 l 1
 58 26 l 1
 58 27 l 1
59 26 m 1
 58 26 l 1
 58 25 l 1
 60 25 l 1
 60 27 l 1
 59 27 l 1
 59 26 l 1
63 27 m 1
 61 27 l 1
 61 25 l 1
 63 25 l 1
 63 27 l 1
EndSplineSet
EndChar

StartChar: custom_4_0_0_7_0
Encoding: 32038 32038 12070
Width: 70
Flags: H
LayerCount: 2
Fore
SplineSet
23 43 m 1
 21 43 l 1
 21 41 l 1
 23 41 l 1
 23 43 l 1
26 43 m 1
 24 43 l 1
 24 41 l 1
 25 41 l 1
 25 42 l 1
 26 42 l 1
 26 43 l 1
27 42 m 1
 26 42 l 1
 26 41 l 1
 28 41 l 1
 28 43 l 1
 27 43 l 1
 27 42 l 1
31 43 m 1
 29 43 l 1
 29 41 l 1
 31 41 l 1
 31 43 l 1
31 39 m 1
 29 39 l 1
 29 37 l 1
 31 37 l 1
 31 39 l 1
36 37 m 1
 34 37 l 1
 34 35 l 1
 36 35 l 1
 36 37 l 1
31 35 m 1
 29 35 l 1
 29 33 l 1
 31 33 l 1
 31 35 l 1
36 33 m 1
 34 33 l 1
 34 31 l 1
 36 31 l 1
 36 33 l 1
31 31 m 1
 29 31 l 1
 29 29 l 1
 31 29 l 1
 31 31 l 1
41 43 m 1
 39 43 l 1
 39 41 l 1
 41 41 l 1
 41 43 l 1
41 39 m 1
 39 39 l 1
 39 37 l 1
 41 37 l 1
 41 39 l 1
49 43 m 1
 47 43 l 1
 47 41 l 1
 49 41 l 1
 49 43 l 1
49 39 m 1
 47 39 l 1
 47 37 l 1
 49 37 l 1
 49 39 l 1
41 35 m 1
 39 35 l 1
 39 33 l 1
 41 33 l 1
 41 35 l 1
43 35 m 1
 42 35 l 1
 42 33 l 1
 44 33 l 1
 44 34 l 1
 43 34 l 1
 43 35 l 1
46 35 m 1
 44 35 l 1
 44 34 l 1
 45 34 l 1
 45 33 l 1
 46 33 l 1
 46 35 l 1
49 35 m 1
 47 35 l 1
 47 33 l 1
 49 33 l 1
 49 35 l 1
49 31 m 1
 47 31 l 1
 47 29 l 1
 49 29 l 1
 49 31 l 1
55 43 m 1
 53 43 l 1
 53 41 l 1
 55 41 l 1
 55 43 l 1
58 43 m 1
 56 43 l 1
 56 41 l 1
 57 41 l 1
 57 42 l 1
 58 42 l 1
 58 43 l 1
59 42 m 1
 58 42 l 1
 58 41 l 1
 60 41 l 1
 60 43 l 1
 59 43 l 1
 59 42 l 1
55 39 m 1
 53 39 l 1
 53 37 l 1
 55 37 l 1
 55 39 l 1
63 43 m 1
 61 43 l 1
 61 41 l 1
 63 41 l 1
 63 43 l 1
63 39 m 1
 61 39 l 1
 61 37 l 1
 63 37 l 1
 63 39 l 1
55 35 m 1
 53 35 l 1
 53 33 l 1
 55 33 l 1
 55 35 l 1
55 31 m 1
 53 31 l 1
 53 29 l 1
 55 29 l 1
 55 31 l 1
63 35 m 1
 61 35 l 1
 61 33 l 1
 63 33 l 1
 63 35 l 1
63 31 m 1
 61 31 l 1
 61 29 l 1
 63 29 l 1
 63 31 l 1
31 27 m 1
 29 27 l 1
 29 25 l 1
 31 25 l 1
 31 27 l 1
49 27 m 1
 47 27 l 1
 47 25 l 1
 49 25 l 1
 49 27 l 1
55 27 m 1
 53 27 l 1
 53 25 l 1
 55 25 l 1
 55 27 l 1
58 27 m 1
 56 27 l 1
 56 25 l 1
 57 25 l 1
 57 26 l 1
 58 26 l 1
 58 27 l 1
59 26 m 1
 58 26 l 1
 58 25 l 1
 60 25 l 1
 60 27 l 1
 59 27 l 1
 59 26 l 1
63 27 m 1
 61 27 l 1
 61 25 l 1
 63 25 l 1
 63 27 l 1
EndSplineSet
EndChar

StartChar: custom_4_0_0_7_1
Encoding: 32039 32039 12071
Width: 70
Flags: H
LayerCount: 2
Fore
SplineSet
23 43 m 1
 21 43 l 1
 21 41 l 1
 23 41 l 1
 23 43 l 1
26 43 m 1
 24 43 l 1
 24 41 l 1
 25 41 l 1
 25 42 l 1
 26 42 l 1
 26 43 l 1
27 42 m 1
 26 42 l 1
 26 41 l 1
 28 41 l 1
 28 43 l 1
 27 43 l 1
 27 42 l 1
31 43 m 1
 29 43 l 1
 29 41 l 1
 31 41 l 1
 31 43 l 1
31 39 m 1
 29 39 l 1
 29 37 l 1
 31 37 l 1
 31 39 l 1
36 37 m 1
 34 37 l 1
 34 35 l 1
 36 35 l 1
 36 37 l 1
31 35 m 1
 29 35 l 1
 29 33 l 1
 31 33 l 1
 31 35 l 1
36 33 m 1
 34 33 l 1
 34 31 l 1
 36 31 l 1
 36 33 l 1
31 31 m 1
 29 31 l 1
 29 29 l 1
 31 29 l 1
 31 31 l 1
41 43 m 1
 39 43 l 1
 39 41 l 1
 41 41 l 1
 41 43 l 1
41 39 m 1
 39 39 l 1
 39 37 l 1
 41 37 l 1
 41 39 l 1
49 43 m 1
 47 43 l 1
 47 41 l 1
 49 41 l 1
 49 43 l 1
49 39 m 1
 47 39 l 1
 47 37 l 1
 49 37 l 1
 49 39 l 1
41 35 m 1
 39 35 l 1
 39 33 l 1
 41 33 l 1
 41 35 l 1
43 35 m 1
 42 35 l 1
 42 33 l 1
 44 33 l 1
 44 34 l 1
 43 34 l 1
 43 35 l 1
46 35 m 1
 44 35 l 1
 44 34 l 1
 45 34 l 1
 45 33 l 1
 46 33 l 1
 46 35 l 1
49 35 m 1
 47 35 l 1
 47 33 l 1
 49 33 l 1
 49 35 l 1
49 31 m 1
 47 31 l 1
 47 29 l 1
 49 29 l 1
 49 31 l 1
55 43 m 1
 53 43 l 1
 53 41 l 1
 55 41 l 1
 55 43 l 1
58 43 m 1
 56 43 l 1
 56 41 l 1
 57 41 l 1
 57 42 l 1
 58 42 l 1
 58 43 l 1
59 42 m 1
 58 42 l 1
 58 41 l 1
 60 41 l 1
 60 43 l 1
 59 43 l 1
 59 42 l 1
55 39 m 1
 53 39 l 1
 53 37 l 1
 55 37 l 1
 55 39 l 1
63 43 m 1
 61 43 l 1
 61 41 l 1
 63 41 l 1
 63 43 l 1
63 39 m 1
 61 39 l 1
 61 37 l 1
 63 37 l 1
 63 39 l 1
55 35 m 1
 53 35 l 1
 53 33 l 1
 55 33 l 1
 55 35 l 1
55 31 m 1
 53 31 l 1
 53 29 l 1
 55 29 l 1
 55 31 l 1
63 35 m 1
 61 35 l 1
 61 33 l 1
 63 33 l 1
 63 35 l 1
63 31 m 1
 61 31 l 1
 61 29 l 1
 63 29 l 1
 63 31 l 1
31 27 m 1
 29 27 l 1
 29 25 l 1
 31 25 l 1
 31 27 l 1
49 27 m 1
 47 27 l 1
 47 25 l 1
 49 25 l 1
 49 27 l 1
55 27 m 1
 53 27 l 1
 53 25 l 1
 55 25 l 1
 55 27 l 1
58 27 m 1
 56 27 l 1
 56 25 l 1
 57 25 l 1
 57 26 l 1
 58 26 l 1
 58 27 l 1
59 26 m 1
 58 26 l 1
 58 25 l 1
 60 25 l 1
 60 27 l 1
 59 27 l 1
 59 26 l 1
63 27 m 1
 61 27 l 1
 61 25 l 1
 63 25 l 1
 63 27 l 1
EndSplineSet
EndChar

StartChar: custom_4_0_0_7_2
Encoding: 32040 32040 12072
Width: 70
Flags: H
LayerCount: 2
Fore
SplineSet
23 43 m 1
 21 43 l 1
 21 41 l 1
 23 41 l 1
 23 43 l 1
26 43 m 1
 24 43 l 1
 24 41 l 1
 25 41 l 1
 25 42 l 1
 26 42 l 1
 26 43 l 1
27 42 m 1
 26 42 l 1
 26 41 l 1
 28 41 l 1
 28 43 l 1
 27 43 l 1
 27 42 l 1
31 43 m 1
 29 43 l 1
 29 41 l 1
 31 41 l 1
 31 43 l 1
31 39 m 1
 29 39 l 1
 29 37 l 1
 31 37 l 1
 31 39 l 1
36 37 m 1
 34 37 l 1
 34 35 l 1
 36 35 l 1
 36 37 l 1
31 35 m 1
 29 35 l 1
 29 33 l 1
 31 33 l 1
 31 35 l 1
36 33 m 1
 34 33 l 1
 34 31 l 1
 36 31 l 1
 36 33 l 1
31 31 m 1
 29 31 l 1
 29 29 l 1
 31 29 l 1
 31 31 l 1
41 43 m 1
 39 43 l 1
 39 41 l 1
 41 41 l 1
 41 43 l 1
41 39 m 1
 39 39 l 1
 39 37 l 1
 41 37 l 1
 41 39 l 1
49 43 m 1
 47 43 l 1
 47 41 l 1
 49 41 l 1
 49 43 l 1
49 39 m 1
 47 39 l 1
 47 37 l 1
 49 37 l 1
 49 39 l 1
41 35 m 1
 39 35 l 1
 39 33 l 1
 41 33 l 1
 41 35 l 1
43 35 m 1
 42 35 l 1
 42 33 l 1
 44 33 l 1
 44 34 l 1
 43 34 l 1
 43 35 l 1
46 35 m 1
 44 35 l 1
 44 34 l 1
 45 34 l 1
 45 33 l 1
 46 33 l 1
 46 35 l 1
49 35 m 1
 47 35 l 1
 47 33 l 1
 49 33 l 1
 49 35 l 1
49 31 m 1
 47 31 l 1
 47 29 l 1
 49 29 l 1
 49 31 l 1
55 43 m 1
 53 43 l 1
 53 41 l 1
 55 41 l 1
 55 43 l 1
58 43 m 1
 56 43 l 1
 56 41 l 1
 57 41 l 1
 57 42 l 1
 58 42 l 1
 58 43 l 1
59 42 m 1
 58 42 l 1
 58 41 l 1
 60 41 l 1
 60 43 l 1
 59 43 l 1
 59 42 l 1
55 39 m 1
 53 39 l 1
 53 37 l 1
 55 37 l 1
 55 39 l 1
63 43 m 1
 61 43 l 1
 61 41 l 1
 63 41 l 1
 63 43 l 1
63 39 m 1
 61 39 l 1
 61 37 l 1
 63 37 l 1
 63 39 l 1
55 35 m 1
 53 35 l 1
 53 33 l 1
 55 33 l 1
 55 35 l 1
55 31 m 1
 53 31 l 1
 53 29 l 1
 55 29 l 1
 55 31 l 1
63 35 m 1
 61 35 l 1
 61 33 l 1
 63 33 l 1
 63 35 l 1
63 31 m 1
 61 31 l 1
 61 29 l 1
 63 29 l 1
 63 31 l 1
31 27 m 1
 29 27 l 1
 29 25 l 1
 31 25 l 1
 31 27 l 1
49 27 m 1
 47 27 l 1
 47 25 l 1
 49 25 l 1
 49 27 l 1
55 27 m 1
 53 27 l 1
 53 25 l 1
 55 25 l 1
 55 27 l 1
58 27 m 1
 56 27 l 1
 56 25 l 1
 57 25 l 1
 57 26 l 1
 58 26 l 1
 58 27 l 1
59 26 m 1
 58 26 l 1
 58 25 l 1
 60 25 l 1
 60 27 l 1
 59 27 l 1
 59 26 l 1
63 27 m 1
 61 27 l 1
 61 25 l 1
 63 25 l 1
 63 27 l 1
EndSplineSet
EndChar

StartChar: custom_4_0_0_7_3
Encoding: 32041 32041 12073
Width: 70
Flags: H
LayerCount: 2
Fore
SplineSet
23 43 m 1
 21 43 l 1
 21 41 l 1
 23 41 l 1
 23 43 l 1
26 43 m 1
 24 43 l 1
 24 41 l 1
 25 41 l 1
 25 42 l 1
 26 42 l 1
 26 43 l 1
27 42 m 1
 26 42 l 1
 26 41 l 1
 28 41 l 1
 28 43 l 1
 27 43 l 1
 27 42 l 1
31 43 m 1
 29 43 l 1
 29 41 l 1
 31 41 l 1
 31 43 l 1
31 39 m 1
 29 39 l 1
 29 37 l 1
 31 37 l 1
 31 39 l 1
36 37 m 1
 34 37 l 1
 34 35 l 1
 36 35 l 1
 36 37 l 1
31 35 m 1
 29 35 l 1
 29 33 l 1
 31 33 l 1
 31 35 l 1
36 33 m 1
 34 33 l 1
 34 31 l 1
 36 31 l 1
 36 33 l 1
31 31 m 1
 29 31 l 1
 29 29 l 1
 31 29 l 1
 31 31 l 1
41 43 m 1
 39 43 l 1
 39 41 l 1
 41 41 l 1
 41 43 l 1
41 39 m 1
 39 39 l 1
 39 37 l 1
 41 37 l 1
 41 39 l 1
49 43 m 1
 47 43 l 1
 47 41 l 1
 49 41 l 1
 49 43 l 1
49 39 m 1
 47 39 l 1
 47 37 l 1
 49 37 l 1
 49 39 l 1
41 35 m 1
 39 35 l 1
 39 33 l 1
 41 33 l 1
 41 35 l 1
43 35 m 1
 42 35 l 1
 42 33 l 1
 44 33 l 1
 44 34 l 1
 43 34 l 1
 43 35 l 1
46 35 m 1
 44 35 l 1
 44 34 l 1
 45 34 l 1
 45 33 l 1
 46 33 l 1
 46 35 l 1
49 35 m 1
 47 35 l 1
 47 33 l 1
 49 33 l 1
 49 35 l 1
49 31 m 1
 47 31 l 1
 47 29 l 1
 49 29 l 1
 49 31 l 1
55 43 m 1
 53 43 l 1
 53 41 l 1
 55 41 l 1
 55 43 l 1
58 43 m 1
 56 43 l 1
 56 41 l 1
 57 41 l 1
 57 42 l 1
 58 42 l 1
 58 43 l 1
59 42 m 1
 58 42 l 1
 58 41 l 1
 60 41 l 1
 60 43 l 1
 59 43 l 1
 59 42 l 1
55 39 m 1
 53 39 l 1
 53 37 l 1
 55 37 l 1
 55 39 l 1
63 43 m 1
 61 43 l 1
 61 41 l 1
 63 41 l 1
 63 43 l 1
63 39 m 1
 61 39 l 1
 61 37 l 1
 63 37 l 1
 63 39 l 1
55 35 m 1
 53 35 l 1
 53 33 l 1
 55 33 l 1
 55 35 l 1
55 31 m 1
 53 31 l 1
 53 29 l 1
 55 29 l 1
 55 31 l 1
63 35 m 1
 61 35 l 1
 61 33 l 1
 63 33 l 1
 63 35 l 1
63 31 m 1
 61 31 l 1
 61 29 l 1
 63 29 l 1
 63 31 l 1
31 27 m 1
 29 27 l 1
 29 25 l 1
 31 25 l 1
 31 27 l 1
49 27 m 1
 47 27 l 1
 47 25 l 1
 49 25 l 1
 49 27 l 1
55 27 m 1
 53 27 l 1
 53 25 l 1
 55 25 l 1
 55 27 l 1
58 27 m 1
 56 27 l 1
 56 25 l 1
 57 25 l 1
 57 26 l 1
 58 26 l 1
 58 27 l 1
59 26 m 1
 58 26 l 1
 58 25 l 1
 60 25 l 1
 60 27 l 1
 59 27 l 1
 59 26 l 1
63 27 m 1
 61 27 l 1
 61 25 l 1
 63 25 l 1
 63 27 l 1
EndSplineSet
EndChar

StartChar: custom_4_0_0_7_4
Encoding: 32042 32042 12074
Width: 70
Flags: H
LayerCount: 2
Fore
SplineSet
23 43 m 1
 21 43 l 1
 21 41 l 1
 23 41 l 1
 23 43 l 1
26 43 m 1
 24 43 l 1
 24 41 l 1
 25 41 l 1
 25 42 l 1
 26 42 l 1
 26 43 l 1
27 42 m 1
 26 42 l 1
 26 41 l 1
 28 41 l 1
 28 43 l 1
 27 43 l 1
 27 42 l 1
31 43 m 1
 29 43 l 1
 29 41 l 1
 31 41 l 1
 31 43 l 1
31 39 m 1
 29 39 l 1
 29 37 l 1
 31 37 l 1
 31 39 l 1
36 37 m 1
 34 37 l 1
 34 35 l 1
 36 35 l 1
 36 37 l 1
31 35 m 1
 29 35 l 1
 29 33 l 1
 31 33 l 1
 31 35 l 1
36 33 m 1
 34 33 l 1
 34 31 l 1
 36 31 l 1
 36 33 l 1
31 31 m 1
 29 31 l 1
 29 29 l 1
 31 29 l 1
 31 31 l 1
41 43 m 1
 39 43 l 1
 39 41 l 1
 41 41 l 1
 41 43 l 1
41 39 m 1
 39 39 l 1
 39 37 l 1
 41 37 l 1
 41 39 l 1
49 43 m 1
 47 43 l 1
 47 41 l 1
 49 41 l 1
 49 43 l 1
49 39 m 1
 47 39 l 1
 47 37 l 1
 49 37 l 1
 49 39 l 1
41 35 m 1
 39 35 l 1
 39 33 l 1
 41 33 l 1
 41 35 l 1
43 35 m 1
 42 35 l 1
 42 33 l 1
 44 33 l 1
 44 34 l 1
 43 34 l 1
 43 35 l 1
46 35 m 1
 44 35 l 1
 44 34 l 1
 45 34 l 1
 45 33 l 1
 46 33 l 1
 46 35 l 1
49 35 m 1
 47 35 l 1
 47 33 l 1
 49 33 l 1
 49 35 l 1
49 31 m 1
 47 31 l 1
 47 29 l 1
 49 29 l 1
 49 31 l 1
55 43 m 1
 53 43 l 1
 53 41 l 1
 55 41 l 1
 55 43 l 1
58 43 m 1
 56 43 l 1
 56 41 l 1
 57 41 l 1
 57 42 l 1
 58 42 l 1
 58 43 l 1
59 42 m 1
 58 42 l 1
 58 41 l 1
 60 41 l 1
 60 43 l 1
 59 43 l 1
 59 42 l 1
55 39 m 1
 53 39 l 1
 53 37 l 1
 55 37 l 1
 55 39 l 1
63 43 m 1
 61 43 l 1
 61 41 l 1
 63 41 l 1
 63 43 l 1
63 39 m 1
 61 39 l 1
 61 37 l 1
 63 37 l 1
 63 39 l 1
55 35 m 1
 53 35 l 1
 53 33 l 1
 55 33 l 1
 55 35 l 1
55 31 m 1
 53 31 l 1
 53 29 l 1
 55 29 l 1
 55 31 l 1
63 35 m 1
 61 35 l 1
 61 33 l 1
 63 33 l 1
 63 35 l 1
63 31 m 1
 61 31 l 1
 61 29 l 1
 63 29 l 1
 63 31 l 1
31 27 m 1
 29 27 l 1
 29 25 l 1
 31 25 l 1
 31 27 l 1
49 27 m 1
 47 27 l 1
 47 25 l 1
 49 25 l 1
 49 27 l 1
55 27 m 1
 53 27 l 1
 53 25 l 1
 55 25 l 1
 55 27 l 1
58 27 m 1
 56 27 l 1
 56 25 l 1
 57 25 l 1
 57 26 l 1
 58 26 l 1
 58 27 l 1
59 26 m 1
 58 26 l 1
 58 25 l 1
 60 25 l 1
 60 27 l 1
 59 27 l 1
 59 26 l 1
63 27 m 1
 61 27 l 1
 61 25 l 1
 63 25 l 1
 63 27 l 1
EndSplineSet
EndChar

StartChar: custom_4_0_0_7_5
Encoding: 32043 32043 12075
Width: 70
Flags: H
LayerCount: 2
Fore
SplineSet
23 43 m 1
 21 43 l 1
 21 41 l 1
 23 41 l 1
 23 43 l 1
26 43 m 1
 24 43 l 1
 24 41 l 1
 25 41 l 1
 25 42 l 1
 26 42 l 1
 26 43 l 1
27 42 m 1
 26 42 l 1
 26 41 l 1
 28 41 l 1
 28 43 l 1
 27 43 l 1
 27 42 l 1
31 43 m 1
 29 43 l 1
 29 41 l 1
 31 41 l 1
 31 43 l 1
31 39 m 1
 29 39 l 1
 29 37 l 1
 31 37 l 1
 31 39 l 1
36 37 m 1
 34 37 l 1
 34 35 l 1
 36 35 l 1
 36 37 l 1
31 35 m 1
 29 35 l 1
 29 33 l 1
 31 33 l 1
 31 35 l 1
36 33 m 1
 34 33 l 1
 34 31 l 1
 36 31 l 1
 36 33 l 1
31 31 m 1
 29 31 l 1
 29 29 l 1
 31 29 l 1
 31 31 l 1
41 43 m 1
 39 43 l 1
 39 41 l 1
 41 41 l 1
 41 43 l 1
41 39 m 1
 39 39 l 1
 39 37 l 1
 41 37 l 1
 41 39 l 1
49 43 m 1
 47 43 l 1
 47 41 l 1
 49 41 l 1
 49 43 l 1
49 39 m 1
 47 39 l 1
 47 37 l 1
 49 37 l 1
 49 39 l 1
41 35 m 1
 39 35 l 1
 39 33 l 1
 41 33 l 1
 41 35 l 1
43 35 m 1
 42 35 l 1
 42 33 l 1
 44 33 l 1
 44 34 l 1
 43 34 l 1
 43 35 l 1
46 35 m 1
 44 35 l 1
 44 34 l 1
 45 34 l 1
 45 33 l 1
 46 33 l 1
 46 35 l 1
49 35 m 1
 47 35 l 1
 47 33 l 1
 49 33 l 1
 49 35 l 1
49 31 m 1
 47 31 l 1
 47 29 l 1
 49 29 l 1
 49 31 l 1
55 43 m 1
 53 43 l 1
 53 41 l 1
 55 41 l 1
 55 43 l 1
58 43 m 1
 56 43 l 1
 56 41 l 1
 57 41 l 1
 57 42 l 1
 58 42 l 1
 58 43 l 1
59 42 m 1
 58 42 l 1
 58 41 l 1
 60 41 l 1
 60 43 l 1
 59 43 l 1
 59 42 l 1
55 39 m 1
 53 39 l 1
 53 37 l 1
 55 37 l 1
 55 39 l 1
63 43 m 1
 61 43 l 1
 61 41 l 1
 63 41 l 1
 63 43 l 1
63 39 m 1
 61 39 l 1
 61 37 l 1
 63 37 l 1
 63 39 l 1
55 35 m 1
 53 35 l 1
 53 33 l 1
 55 33 l 1
 55 35 l 1
55 31 m 1
 53 31 l 1
 53 29 l 1
 55 29 l 1
 55 31 l 1
63 35 m 1
 61 35 l 1
 61 33 l 1
 63 33 l 1
 63 35 l 1
63 31 m 1
 61 31 l 1
 61 29 l 1
 63 29 l 1
 63 31 l 1
31 27 m 1
 29 27 l 1
 29 25 l 1
 31 25 l 1
 31 27 l 1
49 27 m 1
 47 27 l 1
 47 25 l 1
 49 25 l 1
 49 27 l 1
55 27 m 1
 53 27 l 1
 53 25 l 1
 55 25 l 1
 55 27 l 1
58 27 m 1
 56 27 l 1
 56 25 l 1
 57 25 l 1
 57 26 l 1
 58 26 l 1
 58 27 l 1
59 26 m 1
 58 26 l 1
 58 25 l 1
 60 25 l 1
 60 27 l 1
 59 27 l 1
 59 26 l 1
63 27 m 1
 61 27 l 1
 61 25 l 1
 63 25 l 1
 63 27 l 1
EndSplineSet
EndChar

StartChar: custom_4_0_0_7_6
Encoding: 32044 32044 12076
Width: 70
Flags: H
LayerCount: 2
Fore
SplineSet
23 43 m 1
 21 43 l 1
 21 41 l 1
 23 41 l 1
 23 43 l 1
26 43 m 1
 24 43 l 1
 24 41 l 1
 25 41 l 1
 25 42 l 1
 26 42 l 1
 26 43 l 1
27 42 m 1
 26 42 l 1
 26 41 l 1
 28 41 l 1
 28 43 l 1
 27 43 l 1
 27 42 l 1
31 43 m 1
 29 43 l 1
 29 41 l 1
 31 41 l 1
 31 43 l 1
31 39 m 1
 29 39 l 1
 29 37 l 1
 31 37 l 1
 31 39 l 1
36 37 m 1
 34 37 l 1
 34 35 l 1
 36 35 l 1
 36 37 l 1
31 35 m 1
 29 35 l 1
 29 33 l 1
 31 33 l 1
 31 35 l 1
36 33 m 1
 34 33 l 1
 34 31 l 1
 36 31 l 1
 36 33 l 1
31 31 m 1
 29 31 l 1
 29 29 l 1
 31 29 l 1
 31 31 l 1
41 43 m 1
 39 43 l 1
 39 41 l 1
 41 41 l 1
 41 43 l 1
41 39 m 1
 39 39 l 1
 39 37 l 1
 41 37 l 1
 41 39 l 1
49 43 m 1
 47 43 l 1
 47 41 l 1
 49 41 l 1
 49 43 l 1
49 39 m 1
 47 39 l 1
 47 37 l 1
 49 37 l 1
 49 39 l 1
41 35 m 1
 39 35 l 1
 39 33 l 1
 41 33 l 1
 41 35 l 1
43 35 m 1
 42 35 l 1
 42 33 l 1
 44 33 l 1
 44 34 l 1
 43 34 l 1
 43 35 l 1
46 35 m 1
 44 35 l 1
 44 34 l 1
 45 34 l 1
 45 33 l 1
 46 33 l 1
 46 35 l 1
49 35 m 1
 47 35 l 1
 47 33 l 1
 49 33 l 1
 49 35 l 1
49 31 m 1
 47 31 l 1
 47 29 l 1
 49 29 l 1
 49 31 l 1
55 43 m 1
 53 43 l 1
 53 41 l 1
 55 41 l 1
 55 43 l 1
58 43 m 1
 56 43 l 1
 56 41 l 1
 57 41 l 1
 57 42 l 1
 58 42 l 1
 58 43 l 1
59 42 m 1
 58 42 l 1
 58 41 l 1
 60 41 l 1
 60 43 l 1
 59 43 l 1
 59 42 l 1
55 39 m 1
 53 39 l 1
 53 37 l 1
 55 37 l 1
 55 39 l 1
63 43 m 1
 61 43 l 1
 61 41 l 1
 63 41 l 1
 63 43 l 1
63 39 m 1
 61 39 l 1
 61 37 l 1
 63 37 l 1
 63 39 l 1
55 35 m 1
 53 35 l 1
 53 33 l 1
 55 33 l 1
 55 35 l 1
55 31 m 1
 53 31 l 1
 53 29 l 1
 55 29 l 1
 55 31 l 1
63 35 m 1
 61 35 l 1
 61 33 l 1
 63 33 l 1
 63 35 l 1
63 31 m 1
 61 31 l 1
 61 29 l 1
 63 29 l 1
 63 31 l 1
31 27 m 1
 29 27 l 1
 29 25 l 1
 31 25 l 1
 31 27 l 1
49 27 m 1
 47 27 l 1
 47 25 l 1
 49 25 l 1
 49 27 l 1
55 27 m 1
 53 27 l 1
 53 25 l 1
 55 25 l 1
 55 27 l 1
58 27 m 1
 56 27 l 1
 56 25 l 1
 57 25 l 1
 57 26 l 1
 58 26 l 1
 58 27 l 1
59 26 m 1
 58 26 l 1
 58 25 l 1
 60 25 l 1
 60 27 l 1
 59 27 l 1
 59 26 l 1
63 27 m 1
 61 27 l 1
 61 25 l 1
 63 25 l 1
 63 27 l 1
EndSplineSet
EndChar

StartChar: custom_4_0_0_7_7
Encoding: 32045 32045 12077
Width: 70
Flags: H
LayerCount: 2
Fore
SplineSet
23 43 m 1
 21 43 l 1
 21 41 l 1
 23 41 l 1
 23 43 l 1
26 43 m 1
 24 43 l 1
 24 41 l 1
 25 41 l 1
 25 42 l 1
 26 42 l 1
 26 43 l 1
27 42 m 1
 26 42 l 1
 26 41 l 1
 28 41 l 1
 28 43 l 1
 27 43 l 1
 27 42 l 1
31 43 m 1
 29 43 l 1
 29 41 l 1
 31 41 l 1
 31 43 l 1
31 39 m 1
 29 39 l 1
 29 37 l 1
 31 37 l 1
 31 39 l 1
36 37 m 1
 34 37 l 1
 34 35 l 1
 36 35 l 1
 36 37 l 1
31 35 m 1
 29 35 l 1
 29 33 l 1
 31 33 l 1
 31 35 l 1
36 33 m 1
 34 33 l 1
 34 31 l 1
 36 31 l 1
 36 33 l 1
31 31 m 1
 29 31 l 1
 29 29 l 1
 31 29 l 1
 31 31 l 1
41 43 m 1
 39 43 l 1
 39 41 l 1
 41 41 l 1
 41 43 l 1
41 39 m 1
 39 39 l 1
 39 37 l 1
 41 37 l 1
 41 39 l 1
49 43 m 1
 47 43 l 1
 47 41 l 1
 49 41 l 1
 49 43 l 1
49 39 m 1
 47 39 l 1
 47 37 l 1
 49 37 l 1
 49 39 l 1
41 35 m 1
 39 35 l 1
 39 33 l 1
 41 33 l 1
 41 35 l 1
43 35 m 1
 42 35 l 1
 42 33 l 1
 44 33 l 1
 44 34 l 1
 43 34 l 1
 43 35 l 1
46 35 m 1
 44 35 l 1
 44 34 l 1
 45 34 l 1
 45 33 l 1
 46 33 l 1
 46 35 l 1
49 35 m 1
 47 35 l 1
 47 33 l 1
 49 33 l 1
 49 35 l 1
49 31 m 1
 47 31 l 1
 47 29 l 1
 49 29 l 1
 49 31 l 1
55 43 m 1
 53 43 l 1
 53 41 l 1
 55 41 l 1
 55 43 l 1
58 43 m 1
 56 43 l 1
 56 41 l 1
 57 41 l 1
 57 42 l 1
 58 42 l 1
 58 43 l 1
59 42 m 1
 58 42 l 1
 58 41 l 1
 60 41 l 1
 60 43 l 1
 59 43 l 1
 59 42 l 1
55 39 m 1
 53 39 l 1
 53 37 l 1
 55 37 l 1
 55 39 l 1
63 43 m 1
 61 43 l 1
 61 41 l 1
 63 41 l 1
 63 43 l 1
63 39 m 1
 61 39 l 1
 61 37 l 1
 63 37 l 1
 63 39 l 1
55 35 m 1
 53 35 l 1
 53 33 l 1
 55 33 l 1
 55 35 l 1
55 31 m 1
 53 31 l 1
 53 29 l 1
 55 29 l 1
 55 31 l 1
63 35 m 1
 61 35 l 1
 61 33 l 1
 63 33 l 1
 63 35 l 1
63 31 m 1
 61 31 l 1
 61 29 l 1
 63 29 l 1
 63 31 l 1
31 27 m 1
 29 27 l 1
 29 25 l 1
 31 25 l 1
 31 27 l 1
49 27 m 1
 47 27 l 1
 47 25 l 1
 49 25 l 1
 49 27 l 1
55 27 m 1
 53 27 l 1
 53 25 l 1
 55 25 l 1
 55 27 l 1
58 27 m 1
 56 27 l 1
 56 25 l 1
 57 25 l 1
 57 26 l 1
 58 26 l 1
 58 27 l 1
59 26 m 1
 58 26 l 1
 58 25 l 1
 60 25 l 1
 60 27 l 1
 59 27 l 1
 59 26 l 1
63 27 m 1
 61 27 l 1
 61 25 l 1
 63 25 l 1
 63 27 l 1
EndSplineSet
EndChar

StartChar: custom_4_0_0_7_8
Encoding: 32046 32046 12078
Width: 70
Flags: H
LayerCount: 2
Fore
SplineSet
23 43 m 1
 21 43 l 1
 21 41 l 1
 23 41 l 1
 23 43 l 1
26 43 m 1
 24 43 l 1
 24 41 l 1
 25 41 l 1
 25 42 l 1
 26 42 l 1
 26 43 l 1
27 42 m 1
 26 42 l 1
 26 41 l 1
 28 41 l 1
 28 43 l 1
 27 43 l 1
 27 42 l 1
31 43 m 1
 29 43 l 1
 29 41 l 1
 31 41 l 1
 31 43 l 1
31 39 m 1
 29 39 l 1
 29 37 l 1
 31 37 l 1
 31 39 l 1
36 37 m 1
 34 37 l 1
 34 35 l 1
 36 35 l 1
 36 37 l 1
31 35 m 1
 29 35 l 1
 29 33 l 1
 31 33 l 1
 31 35 l 1
36 33 m 1
 34 33 l 1
 34 31 l 1
 36 31 l 1
 36 33 l 1
31 31 m 1
 29 31 l 1
 29 29 l 1
 31 29 l 1
 31 31 l 1
41 43 m 1
 39 43 l 1
 39 41 l 1
 41 41 l 1
 41 43 l 1
41 39 m 1
 39 39 l 1
 39 37 l 1
 41 37 l 1
 41 39 l 1
49 43 m 1
 47 43 l 1
 47 41 l 1
 49 41 l 1
 49 43 l 1
49 39 m 1
 47 39 l 1
 47 37 l 1
 49 37 l 1
 49 39 l 1
41 35 m 1
 39 35 l 1
 39 33 l 1
 41 33 l 1
 41 35 l 1
43 35 m 1
 42 35 l 1
 42 33 l 1
 44 33 l 1
 44 34 l 1
 43 34 l 1
 43 35 l 1
46 35 m 1
 44 35 l 1
 44 34 l 1
 45 34 l 1
 45 33 l 1
 46 33 l 1
 46 35 l 1
49 35 m 1
 47 35 l 1
 47 33 l 1
 49 33 l 1
 49 35 l 1
49 31 m 1
 47 31 l 1
 47 29 l 1
 49 29 l 1
 49 31 l 1
55 43 m 1
 53 43 l 1
 53 41 l 1
 55 41 l 1
 55 43 l 1
58 43 m 1
 56 43 l 1
 56 41 l 1
 57 41 l 1
 57 42 l 1
 58 42 l 1
 58 43 l 1
59 42 m 1
 58 42 l 1
 58 41 l 1
 60 41 l 1
 60 43 l 1
 59 43 l 1
 59 42 l 1
55 39 m 1
 53 39 l 1
 53 37 l 1
 55 37 l 1
 55 39 l 1
63 43 m 1
 61 43 l 1
 61 41 l 1
 63 41 l 1
 63 43 l 1
63 39 m 1
 61 39 l 1
 61 37 l 1
 63 37 l 1
 63 39 l 1
55 35 m 1
 53 35 l 1
 53 33 l 1
 55 33 l 1
 55 35 l 1
55 31 m 1
 53 31 l 1
 53 29 l 1
 55 29 l 1
 55 31 l 1
63 35 m 1
 61 35 l 1
 61 33 l 1
 63 33 l 1
 63 35 l 1
63 31 m 1
 61 31 l 1
 61 29 l 1
 63 29 l 1
 63 31 l 1
31 27 m 1
 29 27 l 1
 29 25 l 1
 31 25 l 1
 31 27 l 1
49 27 m 1
 47 27 l 1
 47 25 l 1
 49 25 l 1
 49 27 l 1
55 27 m 1
 53 27 l 1
 53 25 l 1
 55 25 l 1
 55 27 l 1
58 27 m 1
 56 27 l 1
 56 25 l 1
 57 25 l 1
 57 26 l 1
 58 26 l 1
 58 27 l 1
59 26 m 1
 58 26 l 1
 58 25 l 1
 60 25 l 1
 60 27 l 1
 59 27 l 1
 59 26 l 1
63 27 m 1
 61 27 l 1
 61 25 l 1
 63 25 l 1
 63 27 l 1
EndSplineSet
EndChar

StartChar: custom_4_0_0_7_9
Encoding: 32047 32047 12079
Width: 70
Flags: H
LayerCount: 2
Fore
SplineSet
23 43 m 1
 21 43 l 1
 21 41 l 1
 23 41 l 1
 23 43 l 1
26 43 m 1
 24 43 l 1
 24 41 l 1
 25 41 l 1
 25 42 l 1
 26 42 l 1
 26 43 l 1
27 42 m 1
 26 42 l 1
 26 41 l 1
 28 41 l 1
 28 43 l 1
 27 43 l 1
 27 42 l 1
31 43 m 1
 29 43 l 1
 29 41 l 1
 31 41 l 1
 31 43 l 1
31 39 m 1
 29 39 l 1
 29 37 l 1
 31 37 l 1
 31 39 l 1
36 37 m 1
 34 37 l 1
 34 35 l 1
 36 35 l 1
 36 37 l 1
31 35 m 1
 29 35 l 1
 29 33 l 1
 31 33 l 1
 31 35 l 1
36 33 m 1
 34 33 l 1
 34 31 l 1
 36 31 l 1
 36 33 l 1
31 31 m 1
 29 31 l 1
 29 29 l 1
 31 29 l 1
 31 31 l 1
41 43 m 1
 39 43 l 1
 39 41 l 1
 41 41 l 1
 41 43 l 1
41 39 m 1
 39 39 l 1
 39 37 l 1
 41 37 l 1
 41 39 l 1
49 43 m 1
 47 43 l 1
 47 41 l 1
 49 41 l 1
 49 43 l 1
49 39 m 1
 47 39 l 1
 47 37 l 1
 49 37 l 1
 49 39 l 1
41 35 m 1
 39 35 l 1
 39 33 l 1
 41 33 l 1
 41 35 l 1
43 35 m 1
 42 35 l 1
 42 33 l 1
 44 33 l 1
 44 34 l 1
 43 34 l 1
 43 35 l 1
46 35 m 1
 44 35 l 1
 44 34 l 1
 45 34 l 1
 45 33 l 1
 46 33 l 1
 46 35 l 1
49 35 m 1
 47 35 l 1
 47 33 l 1
 49 33 l 1
 49 35 l 1
49 31 m 1
 47 31 l 1
 47 29 l 1
 49 29 l 1
 49 31 l 1
55 43 m 1
 53 43 l 1
 53 41 l 1
 55 41 l 1
 55 43 l 1
58 43 m 1
 56 43 l 1
 56 41 l 1
 57 41 l 1
 57 42 l 1
 58 42 l 1
 58 43 l 1
59 42 m 1
 58 42 l 1
 58 41 l 1
 60 41 l 1
 60 43 l 1
 59 43 l 1
 59 42 l 1
55 39 m 1
 53 39 l 1
 53 37 l 1
 55 37 l 1
 55 39 l 1
63 43 m 1
 61 43 l 1
 61 41 l 1
 63 41 l 1
 63 43 l 1
63 39 m 1
 61 39 l 1
 61 37 l 1
 63 37 l 1
 63 39 l 1
55 35 m 1
 53 35 l 1
 53 33 l 1
 55 33 l 1
 55 35 l 1
55 31 m 1
 53 31 l 1
 53 29 l 1
 55 29 l 1
 55 31 l 1
63 35 m 1
 61 35 l 1
 61 33 l 1
 63 33 l 1
 63 35 l 1
63 31 m 1
 61 31 l 1
 61 29 l 1
 63 29 l 1
 63 31 l 1
31 27 m 1
 29 27 l 1
 29 25 l 1
 31 25 l 1
 31 27 l 1
49 27 m 1
 47 27 l 1
 47 25 l 1
 49 25 l 1
 49 27 l 1
55 27 m 1
 53 27 l 1
 53 25 l 1
 55 25 l 1
 55 27 l 1
58 27 m 1
 56 27 l 1
 56 25 l 1
 57 25 l 1
 57 26 l 1
 58 26 l 1
 58 27 l 1
59 26 m 1
 58 26 l 1
 58 25 l 1
 60 25 l 1
 60 27 l 1
 59 27 l 1
 59 26 l 1
63 27 m 1
 61 27 l 1
 61 25 l 1
 63 25 l 1
 63 27 l 1
EndSplineSet
EndChar

StartChar: custom_4_0_0_8_0
Encoding: 32048 32048 12080
Width: 70
Flags: H
LayerCount: 2
Fore
SplineSet
23 43 m 1
 21 43 l 1
 21 41 l 1
 23 41 l 1
 23 43 l 1
26 43 m 1
 24 43 l 1
 24 41 l 1
 25 41 l 1
 25 42 l 1
 26 42 l 1
 26 43 l 1
27 42 m 1
 26 42 l 1
 26 41 l 1
 28 41 l 1
 28 43 l 1
 27 43 l 1
 27 42 l 1
31 43 m 1
 29 43 l 1
 29 41 l 1
 31 41 l 1
 31 43 l 1
31 39 m 1
 29 39 l 1
 29 37 l 1
 31 37 l 1
 31 39 l 1
36 37 m 1
 34 37 l 1
 34 35 l 1
 36 35 l 1
 36 37 l 1
31 35 m 1
 29 35 l 1
 29 33 l 1
 31 33 l 1
 31 35 l 1
36 33 m 1
 34 33 l 1
 34 31 l 1
 36 31 l 1
 36 33 l 1
31 31 m 1
 29 31 l 1
 29 29 l 1
 31 29 l 1
 31 31 l 1
41 43 m 1
 39 43 l 1
 39 41 l 1
 41 41 l 1
 41 43 l 1
41 39 m 1
 39 39 l 1
 39 37 l 1
 41 37 l 1
 41 39 l 1
49 43 m 1
 47 43 l 1
 47 41 l 1
 49 41 l 1
 49 43 l 1
49 39 m 1
 47 39 l 1
 47 37 l 1
 49 37 l 1
 49 39 l 1
41 35 m 1
 39 35 l 1
 39 33 l 1
 41 33 l 1
 41 35 l 1
43 35 m 1
 42 35 l 1
 42 33 l 1
 44 33 l 1
 44 34 l 1
 43 34 l 1
 43 35 l 1
46 35 m 1
 44 35 l 1
 44 34 l 1
 45 34 l 1
 45 33 l 1
 46 33 l 1
 46 35 l 1
49 35 m 1
 47 35 l 1
 47 33 l 1
 49 33 l 1
 49 35 l 1
49 31 m 1
 47 31 l 1
 47 29 l 1
 49 29 l 1
 49 31 l 1
55 43 m 1
 53 43 l 1
 53 41 l 1
 55 41 l 1
 55 43 l 1
58 43 m 1
 56 43 l 1
 56 41 l 1
 57 41 l 1
 57 42 l 1
 58 42 l 1
 58 43 l 1
59 42 m 1
 58 42 l 1
 58 41 l 1
 60 41 l 1
 60 43 l 1
 59 43 l 1
 59 42 l 1
55 39 m 1
 53 39 l 1
 53 37 l 1
 55 37 l 1
 55 39 l 1
63 43 m 1
 61 43 l 1
 61 41 l 1
 63 41 l 1
 63 43 l 1
63 39 m 1
 61 39 l 1
 61 37 l 1
 63 37 l 1
 63 39 l 1
55 35 m 1
 53 35 l 1
 53 33 l 1
 55 33 l 1
 55 35 l 1
55 31 m 1
 53 31 l 1
 53 29 l 1
 55 29 l 1
 55 31 l 1
63 35 m 1
 61 35 l 1
 61 33 l 1
 63 33 l 1
 63 35 l 1
63 31 m 1
 61 31 l 1
 61 29 l 1
 63 29 l 1
 63 31 l 1
31 27 m 1
 29 27 l 1
 29 25 l 1
 31 25 l 1
 31 27 l 1
49 27 m 1
 47 27 l 1
 47 25 l 1
 49 25 l 1
 49 27 l 1
55 27 m 1
 53 27 l 1
 53 25 l 1
 55 25 l 1
 55 27 l 1
58 27 m 1
 56 27 l 1
 56 25 l 1
 57 25 l 1
 57 26 l 1
 58 26 l 1
 58 27 l 1
59 26 m 1
 58 26 l 1
 58 25 l 1
 60 25 l 1
 60 27 l 1
 59 27 l 1
 59 26 l 1
63 27 m 1
 61 27 l 1
 61 25 l 1
 63 25 l 1
 63 27 l 1
EndSplineSet
EndChar

StartChar: custom_4_0_0_8_1
Encoding: 32049 32049 12081
Width: 70
Flags: H
LayerCount: 2
Fore
SplineSet
23 43 m 1
 21 43 l 1
 21 41 l 1
 23 41 l 1
 23 43 l 1
26 43 m 1
 24 43 l 1
 24 41 l 1
 25 41 l 1
 25 42 l 1
 26 42 l 1
 26 43 l 1
27 42 m 1
 26 42 l 1
 26 41 l 1
 28 41 l 1
 28 43 l 1
 27 43 l 1
 27 42 l 1
31 43 m 1
 29 43 l 1
 29 41 l 1
 31 41 l 1
 31 43 l 1
31 39 m 1
 29 39 l 1
 29 37 l 1
 31 37 l 1
 31 39 l 1
36 37 m 1
 34 37 l 1
 34 35 l 1
 36 35 l 1
 36 37 l 1
31 35 m 1
 29 35 l 1
 29 33 l 1
 31 33 l 1
 31 35 l 1
36 33 m 1
 34 33 l 1
 34 31 l 1
 36 31 l 1
 36 33 l 1
31 31 m 1
 29 31 l 1
 29 29 l 1
 31 29 l 1
 31 31 l 1
41 43 m 1
 39 43 l 1
 39 41 l 1
 41 41 l 1
 41 43 l 1
41 39 m 1
 39 39 l 1
 39 37 l 1
 41 37 l 1
 41 39 l 1
49 43 m 1
 47 43 l 1
 47 41 l 1
 49 41 l 1
 49 43 l 1
49 39 m 1
 47 39 l 1
 47 37 l 1
 49 37 l 1
 49 39 l 1
41 35 m 1
 39 35 l 1
 39 33 l 1
 41 33 l 1
 41 35 l 1
43 35 m 1
 42 35 l 1
 42 33 l 1
 44 33 l 1
 44 34 l 1
 43 34 l 1
 43 35 l 1
46 35 m 1
 44 35 l 1
 44 34 l 1
 45 34 l 1
 45 33 l 1
 46 33 l 1
 46 35 l 1
49 35 m 1
 47 35 l 1
 47 33 l 1
 49 33 l 1
 49 35 l 1
49 31 m 1
 47 31 l 1
 47 29 l 1
 49 29 l 1
 49 31 l 1
55 43 m 1
 53 43 l 1
 53 41 l 1
 55 41 l 1
 55 43 l 1
58 43 m 1
 56 43 l 1
 56 41 l 1
 57 41 l 1
 57 42 l 1
 58 42 l 1
 58 43 l 1
59 42 m 1
 58 42 l 1
 58 41 l 1
 60 41 l 1
 60 43 l 1
 59 43 l 1
 59 42 l 1
55 39 m 1
 53 39 l 1
 53 37 l 1
 55 37 l 1
 55 39 l 1
63 43 m 1
 61 43 l 1
 61 41 l 1
 63 41 l 1
 63 43 l 1
63 39 m 1
 61 39 l 1
 61 37 l 1
 63 37 l 1
 63 39 l 1
55 35 m 1
 53 35 l 1
 53 33 l 1
 55 33 l 1
 55 35 l 1
55 31 m 1
 53 31 l 1
 53 29 l 1
 55 29 l 1
 55 31 l 1
63 35 m 1
 61 35 l 1
 61 33 l 1
 63 33 l 1
 63 35 l 1
63 31 m 1
 61 31 l 1
 61 29 l 1
 63 29 l 1
 63 31 l 1
31 27 m 1
 29 27 l 1
 29 25 l 1
 31 25 l 1
 31 27 l 1
49 27 m 1
 47 27 l 1
 47 25 l 1
 49 25 l 1
 49 27 l 1
55 27 m 1
 53 27 l 1
 53 25 l 1
 55 25 l 1
 55 27 l 1
58 27 m 1
 56 27 l 1
 56 25 l 1
 57 25 l 1
 57 26 l 1
 58 26 l 1
 58 27 l 1
59 26 m 1
 58 26 l 1
 58 25 l 1
 60 25 l 1
 60 27 l 1
 59 27 l 1
 59 26 l 1
63 27 m 1
 61 27 l 1
 61 25 l 1
 63 25 l 1
 63 27 l 1
EndSplineSet
EndChar

StartChar: custom_4_0_0_8_2
Encoding: 32050 32050 12082
Width: 70
Flags: H
LayerCount: 2
Fore
SplineSet
23 43 m 1
 21 43 l 1
 21 41 l 1
 23 41 l 1
 23 43 l 1
26 43 m 1
 24 43 l 1
 24 41 l 1
 25 41 l 1
 25 42 l 1
 26 42 l 1
 26 43 l 1
27 42 m 1
 26 42 l 1
 26 41 l 1
 28 41 l 1
 28 43 l 1
 27 43 l 1
 27 42 l 1
31 43 m 1
 29 43 l 1
 29 41 l 1
 31 41 l 1
 31 43 l 1
31 39 m 1
 29 39 l 1
 29 37 l 1
 31 37 l 1
 31 39 l 1
36 37 m 1
 34 37 l 1
 34 35 l 1
 36 35 l 1
 36 37 l 1
31 35 m 1
 29 35 l 1
 29 33 l 1
 31 33 l 1
 31 35 l 1
36 33 m 1
 34 33 l 1
 34 31 l 1
 36 31 l 1
 36 33 l 1
31 31 m 1
 29 31 l 1
 29 29 l 1
 31 29 l 1
 31 31 l 1
41 43 m 1
 39 43 l 1
 39 41 l 1
 41 41 l 1
 41 43 l 1
41 39 m 1
 39 39 l 1
 39 37 l 1
 41 37 l 1
 41 39 l 1
49 43 m 1
 47 43 l 1
 47 41 l 1
 49 41 l 1
 49 43 l 1
49 39 m 1
 47 39 l 1
 47 37 l 1
 49 37 l 1
 49 39 l 1
41 35 m 1
 39 35 l 1
 39 33 l 1
 41 33 l 1
 41 35 l 1
43 35 m 1
 42 35 l 1
 42 33 l 1
 44 33 l 1
 44 34 l 1
 43 34 l 1
 43 35 l 1
46 35 m 1
 44 35 l 1
 44 34 l 1
 45 34 l 1
 45 33 l 1
 46 33 l 1
 46 35 l 1
49 35 m 1
 47 35 l 1
 47 33 l 1
 49 33 l 1
 49 35 l 1
49 31 m 1
 47 31 l 1
 47 29 l 1
 49 29 l 1
 49 31 l 1
55 43 m 1
 53 43 l 1
 53 41 l 1
 55 41 l 1
 55 43 l 1
58 43 m 1
 56 43 l 1
 56 41 l 1
 57 41 l 1
 57 42 l 1
 58 42 l 1
 58 43 l 1
59 42 m 1
 58 42 l 1
 58 41 l 1
 60 41 l 1
 60 43 l 1
 59 43 l 1
 59 42 l 1
55 39 m 1
 53 39 l 1
 53 37 l 1
 55 37 l 1
 55 39 l 1
63 43 m 1
 61 43 l 1
 61 41 l 1
 63 41 l 1
 63 43 l 1
63 39 m 1
 61 39 l 1
 61 37 l 1
 63 37 l 1
 63 39 l 1
55 35 m 1
 53 35 l 1
 53 33 l 1
 55 33 l 1
 55 35 l 1
55 31 m 1
 53 31 l 1
 53 29 l 1
 55 29 l 1
 55 31 l 1
63 35 m 1
 61 35 l 1
 61 33 l 1
 63 33 l 1
 63 35 l 1
63 31 m 1
 61 31 l 1
 61 29 l 1
 63 29 l 1
 63 31 l 1
31 27 m 1
 29 27 l 1
 29 25 l 1
 31 25 l 1
 31 27 l 1
49 27 m 1
 47 27 l 1
 47 25 l 1
 49 25 l 1
 49 27 l 1
55 27 m 1
 53 27 l 1
 53 25 l 1
 55 25 l 1
 55 27 l 1
58 27 m 1
 56 27 l 1
 56 25 l 1
 57 25 l 1
 57 26 l 1
 58 26 l 1
 58 27 l 1
59 26 m 1
 58 26 l 1
 58 25 l 1
 60 25 l 1
 60 27 l 1
 59 27 l 1
 59 26 l 1
63 27 m 1
 61 27 l 1
 61 25 l 1
 63 25 l 1
 63 27 l 1
EndSplineSet
EndChar

StartChar: custom_4_0_0_8_3
Encoding: 32051 32051 12083
Width: 70
Flags: H
LayerCount: 2
Fore
SplineSet
23 43 m 1
 21 43 l 1
 21 41 l 1
 23 41 l 1
 23 43 l 1
26 43 m 1
 24 43 l 1
 24 41 l 1
 25 41 l 1
 25 42 l 1
 26 42 l 1
 26 43 l 1
27 42 m 1
 26 42 l 1
 26 41 l 1
 28 41 l 1
 28 43 l 1
 27 43 l 1
 27 42 l 1
31 43 m 1
 29 43 l 1
 29 41 l 1
 31 41 l 1
 31 43 l 1
31 39 m 1
 29 39 l 1
 29 37 l 1
 31 37 l 1
 31 39 l 1
36 37 m 1
 34 37 l 1
 34 35 l 1
 36 35 l 1
 36 37 l 1
31 35 m 1
 29 35 l 1
 29 33 l 1
 31 33 l 1
 31 35 l 1
36 33 m 1
 34 33 l 1
 34 31 l 1
 36 31 l 1
 36 33 l 1
31 31 m 1
 29 31 l 1
 29 29 l 1
 31 29 l 1
 31 31 l 1
41 43 m 1
 39 43 l 1
 39 41 l 1
 41 41 l 1
 41 43 l 1
41 39 m 1
 39 39 l 1
 39 37 l 1
 41 37 l 1
 41 39 l 1
49 43 m 1
 47 43 l 1
 47 41 l 1
 49 41 l 1
 49 43 l 1
49 39 m 1
 47 39 l 1
 47 37 l 1
 49 37 l 1
 49 39 l 1
41 35 m 1
 39 35 l 1
 39 33 l 1
 41 33 l 1
 41 35 l 1
43 35 m 1
 42 35 l 1
 42 33 l 1
 44 33 l 1
 44 34 l 1
 43 34 l 1
 43 35 l 1
46 35 m 1
 44 35 l 1
 44 34 l 1
 45 34 l 1
 45 33 l 1
 46 33 l 1
 46 35 l 1
49 35 m 1
 47 35 l 1
 47 33 l 1
 49 33 l 1
 49 35 l 1
49 31 m 1
 47 31 l 1
 47 29 l 1
 49 29 l 1
 49 31 l 1
55 43 m 1
 53 43 l 1
 53 41 l 1
 55 41 l 1
 55 43 l 1
58 43 m 1
 56 43 l 1
 56 41 l 1
 57 41 l 1
 57 42 l 1
 58 42 l 1
 58 43 l 1
59 42 m 1
 58 42 l 1
 58 41 l 1
 60 41 l 1
 60 43 l 1
 59 43 l 1
 59 42 l 1
55 39 m 1
 53 39 l 1
 53 37 l 1
 55 37 l 1
 55 39 l 1
63 43 m 1
 61 43 l 1
 61 41 l 1
 63 41 l 1
 63 43 l 1
63 39 m 1
 61 39 l 1
 61 37 l 1
 63 37 l 1
 63 39 l 1
55 35 m 1
 53 35 l 1
 53 33 l 1
 55 33 l 1
 55 35 l 1
55 31 m 1
 53 31 l 1
 53 29 l 1
 55 29 l 1
 55 31 l 1
63 35 m 1
 61 35 l 1
 61 33 l 1
 63 33 l 1
 63 35 l 1
63 31 m 1
 61 31 l 1
 61 29 l 1
 63 29 l 1
 63 31 l 1
31 27 m 1
 29 27 l 1
 29 25 l 1
 31 25 l 1
 31 27 l 1
49 27 m 1
 47 27 l 1
 47 25 l 1
 49 25 l 1
 49 27 l 1
55 27 m 1
 53 27 l 1
 53 25 l 1
 55 25 l 1
 55 27 l 1
58 27 m 1
 56 27 l 1
 56 25 l 1
 57 25 l 1
 57 26 l 1
 58 26 l 1
 58 27 l 1
59 26 m 1
 58 26 l 1
 58 25 l 1
 60 25 l 1
 60 27 l 1
 59 27 l 1
 59 26 l 1
63 27 m 1
 61 27 l 1
 61 25 l 1
 63 25 l 1
 63 27 l 1
EndSplineSet
EndChar

StartChar: custom_4_0_0_8_4
Encoding: 32052 32052 12084
Width: 70
Flags: H
LayerCount: 2
Fore
SplineSet
23 43 m 1
 21 43 l 1
 21 41 l 1
 23 41 l 1
 23 43 l 1
26 43 m 1
 24 43 l 1
 24 41 l 1
 25 41 l 1
 25 42 l 1
 26 42 l 1
 26 43 l 1
27 42 m 1
 26 42 l 1
 26 41 l 1
 28 41 l 1
 28 43 l 1
 27 43 l 1
 27 42 l 1
31 43 m 1
 29 43 l 1
 29 41 l 1
 31 41 l 1
 31 43 l 1
31 39 m 1
 29 39 l 1
 29 37 l 1
 31 37 l 1
 31 39 l 1
36 37 m 1
 34 37 l 1
 34 35 l 1
 36 35 l 1
 36 37 l 1
31 35 m 1
 29 35 l 1
 29 33 l 1
 31 33 l 1
 31 35 l 1
36 33 m 1
 34 33 l 1
 34 31 l 1
 36 31 l 1
 36 33 l 1
31 31 m 1
 29 31 l 1
 29 29 l 1
 31 29 l 1
 31 31 l 1
41 43 m 1
 39 43 l 1
 39 41 l 1
 41 41 l 1
 41 43 l 1
41 39 m 1
 39 39 l 1
 39 37 l 1
 41 37 l 1
 41 39 l 1
49 43 m 1
 47 43 l 1
 47 41 l 1
 49 41 l 1
 49 43 l 1
49 39 m 1
 47 39 l 1
 47 37 l 1
 49 37 l 1
 49 39 l 1
41 35 m 1
 39 35 l 1
 39 33 l 1
 41 33 l 1
 41 35 l 1
43 35 m 1
 42 35 l 1
 42 33 l 1
 44 33 l 1
 44 34 l 1
 43 34 l 1
 43 35 l 1
46 35 m 1
 44 35 l 1
 44 34 l 1
 45 34 l 1
 45 33 l 1
 46 33 l 1
 46 35 l 1
49 35 m 1
 47 35 l 1
 47 33 l 1
 49 33 l 1
 49 35 l 1
49 31 m 1
 47 31 l 1
 47 29 l 1
 49 29 l 1
 49 31 l 1
55 43 m 1
 53 43 l 1
 53 41 l 1
 55 41 l 1
 55 43 l 1
58 43 m 1
 56 43 l 1
 56 41 l 1
 57 41 l 1
 57 42 l 1
 58 42 l 1
 58 43 l 1
59 42 m 1
 58 42 l 1
 58 41 l 1
 60 41 l 1
 60 43 l 1
 59 43 l 1
 59 42 l 1
55 39 m 1
 53 39 l 1
 53 37 l 1
 55 37 l 1
 55 39 l 1
63 43 m 1
 61 43 l 1
 61 41 l 1
 63 41 l 1
 63 43 l 1
63 39 m 1
 61 39 l 1
 61 37 l 1
 63 37 l 1
 63 39 l 1
55 35 m 1
 53 35 l 1
 53 33 l 1
 55 33 l 1
 55 35 l 1
55 31 m 1
 53 31 l 1
 53 29 l 1
 55 29 l 1
 55 31 l 1
63 35 m 1
 61 35 l 1
 61 33 l 1
 63 33 l 1
 63 35 l 1
63 31 m 1
 61 31 l 1
 61 29 l 1
 63 29 l 1
 63 31 l 1
31 27 m 1
 29 27 l 1
 29 25 l 1
 31 25 l 1
 31 27 l 1
49 27 m 1
 47 27 l 1
 47 25 l 1
 49 25 l 1
 49 27 l 1
55 27 m 1
 53 27 l 1
 53 25 l 1
 55 25 l 1
 55 27 l 1
58 27 m 1
 56 27 l 1
 56 25 l 1
 57 25 l 1
 57 26 l 1
 58 26 l 1
 58 27 l 1
59 26 m 1
 58 26 l 1
 58 25 l 1
 60 25 l 1
 60 27 l 1
 59 27 l 1
 59 26 l 1
63 27 m 1
 61 27 l 1
 61 25 l 1
 63 25 l 1
 63 27 l 1
EndSplineSet
EndChar

StartChar: custom_4_0_0_8_5
Encoding: 32053 32053 12085
Width: 70
Flags: H
LayerCount: 2
Fore
SplineSet
23 43 m 1
 21 43 l 1
 21 41 l 1
 23 41 l 1
 23 43 l 1
26 43 m 1
 24 43 l 1
 24 41 l 1
 25 41 l 1
 25 42 l 1
 26 42 l 1
 26 43 l 1
27 42 m 1
 26 42 l 1
 26 41 l 1
 28 41 l 1
 28 43 l 1
 27 43 l 1
 27 42 l 1
31 43 m 1
 29 43 l 1
 29 41 l 1
 31 41 l 1
 31 43 l 1
31 39 m 1
 29 39 l 1
 29 37 l 1
 31 37 l 1
 31 39 l 1
36 37 m 1
 34 37 l 1
 34 35 l 1
 36 35 l 1
 36 37 l 1
31 35 m 1
 29 35 l 1
 29 33 l 1
 31 33 l 1
 31 35 l 1
36 33 m 1
 34 33 l 1
 34 31 l 1
 36 31 l 1
 36 33 l 1
31 31 m 1
 29 31 l 1
 29 29 l 1
 31 29 l 1
 31 31 l 1
41 43 m 1
 39 43 l 1
 39 41 l 1
 41 41 l 1
 41 43 l 1
41 39 m 1
 39 39 l 1
 39 37 l 1
 41 37 l 1
 41 39 l 1
49 43 m 1
 47 43 l 1
 47 41 l 1
 49 41 l 1
 49 43 l 1
49 39 m 1
 47 39 l 1
 47 37 l 1
 49 37 l 1
 49 39 l 1
41 35 m 1
 39 35 l 1
 39 33 l 1
 41 33 l 1
 41 35 l 1
43 35 m 1
 42 35 l 1
 42 33 l 1
 44 33 l 1
 44 34 l 1
 43 34 l 1
 43 35 l 1
46 35 m 1
 44 35 l 1
 44 34 l 1
 45 34 l 1
 45 33 l 1
 46 33 l 1
 46 35 l 1
49 35 m 1
 47 35 l 1
 47 33 l 1
 49 33 l 1
 49 35 l 1
49 31 m 1
 47 31 l 1
 47 29 l 1
 49 29 l 1
 49 31 l 1
55 43 m 1
 53 43 l 1
 53 41 l 1
 55 41 l 1
 55 43 l 1
58 43 m 1
 56 43 l 1
 56 41 l 1
 57 41 l 1
 57 42 l 1
 58 42 l 1
 58 43 l 1
59 42 m 1
 58 42 l 1
 58 41 l 1
 60 41 l 1
 60 43 l 1
 59 43 l 1
 59 42 l 1
55 39 m 1
 53 39 l 1
 53 37 l 1
 55 37 l 1
 55 39 l 1
63 43 m 1
 61 43 l 1
 61 41 l 1
 63 41 l 1
 63 43 l 1
63 39 m 1
 61 39 l 1
 61 37 l 1
 63 37 l 1
 63 39 l 1
55 35 m 1
 53 35 l 1
 53 33 l 1
 55 33 l 1
 55 35 l 1
55 31 m 1
 53 31 l 1
 53 29 l 1
 55 29 l 1
 55 31 l 1
63 35 m 1
 61 35 l 1
 61 33 l 1
 63 33 l 1
 63 35 l 1
63 31 m 1
 61 31 l 1
 61 29 l 1
 63 29 l 1
 63 31 l 1
31 27 m 1
 29 27 l 1
 29 25 l 1
 31 25 l 1
 31 27 l 1
49 27 m 1
 47 27 l 1
 47 25 l 1
 49 25 l 1
 49 27 l 1
55 27 m 1
 53 27 l 1
 53 25 l 1
 55 25 l 1
 55 27 l 1
58 27 m 1
 56 27 l 1
 56 25 l 1
 57 25 l 1
 57 26 l 1
 58 26 l 1
 58 27 l 1
59 26 m 1
 58 26 l 1
 58 25 l 1
 60 25 l 1
 60 27 l 1
 59 27 l 1
 59 26 l 1
63 27 m 1
 61 27 l 1
 61 25 l 1
 63 25 l 1
 63 27 l 1
EndSplineSet
EndChar

StartChar: custom_4_0_0_8_6
Encoding: 32054 32054 12086
Width: 70
Flags: H
LayerCount: 2
Fore
SplineSet
23 43 m 1
 21 43 l 1
 21 41 l 1
 23 41 l 1
 23 43 l 1
26 43 m 1
 24 43 l 1
 24 41 l 1
 25 41 l 1
 25 42 l 1
 26 42 l 1
 26 43 l 1
27 42 m 1
 26 42 l 1
 26 41 l 1
 28 41 l 1
 28 43 l 1
 27 43 l 1
 27 42 l 1
31 43 m 1
 29 43 l 1
 29 41 l 1
 31 41 l 1
 31 43 l 1
31 39 m 1
 29 39 l 1
 29 37 l 1
 31 37 l 1
 31 39 l 1
36 37 m 1
 34 37 l 1
 34 35 l 1
 36 35 l 1
 36 37 l 1
31 35 m 1
 29 35 l 1
 29 33 l 1
 31 33 l 1
 31 35 l 1
36 33 m 1
 34 33 l 1
 34 31 l 1
 36 31 l 1
 36 33 l 1
31 31 m 1
 29 31 l 1
 29 29 l 1
 31 29 l 1
 31 31 l 1
41 43 m 1
 39 43 l 1
 39 41 l 1
 41 41 l 1
 41 43 l 1
41 39 m 1
 39 39 l 1
 39 37 l 1
 41 37 l 1
 41 39 l 1
49 43 m 1
 47 43 l 1
 47 41 l 1
 49 41 l 1
 49 43 l 1
49 39 m 1
 47 39 l 1
 47 37 l 1
 49 37 l 1
 49 39 l 1
41 35 m 1
 39 35 l 1
 39 33 l 1
 41 33 l 1
 41 35 l 1
43 35 m 1
 42 35 l 1
 42 33 l 1
 44 33 l 1
 44 34 l 1
 43 34 l 1
 43 35 l 1
46 35 m 1
 44 35 l 1
 44 34 l 1
 45 34 l 1
 45 33 l 1
 46 33 l 1
 46 35 l 1
49 35 m 1
 47 35 l 1
 47 33 l 1
 49 33 l 1
 49 35 l 1
49 31 m 1
 47 31 l 1
 47 29 l 1
 49 29 l 1
 49 31 l 1
55 43 m 1
 53 43 l 1
 53 41 l 1
 55 41 l 1
 55 43 l 1
58 43 m 1
 56 43 l 1
 56 41 l 1
 57 41 l 1
 57 42 l 1
 58 42 l 1
 58 43 l 1
59 42 m 1
 58 42 l 1
 58 41 l 1
 60 41 l 1
 60 43 l 1
 59 43 l 1
 59 42 l 1
55 39 m 1
 53 39 l 1
 53 37 l 1
 55 37 l 1
 55 39 l 1
63 43 m 1
 61 43 l 1
 61 41 l 1
 63 41 l 1
 63 43 l 1
63 39 m 1
 61 39 l 1
 61 37 l 1
 63 37 l 1
 63 39 l 1
55 35 m 1
 53 35 l 1
 53 33 l 1
 55 33 l 1
 55 35 l 1
55 31 m 1
 53 31 l 1
 53 29 l 1
 55 29 l 1
 55 31 l 1
63 35 m 1
 61 35 l 1
 61 33 l 1
 63 33 l 1
 63 35 l 1
63 31 m 1
 61 31 l 1
 61 29 l 1
 63 29 l 1
 63 31 l 1
31 27 m 1
 29 27 l 1
 29 25 l 1
 31 25 l 1
 31 27 l 1
49 27 m 1
 47 27 l 1
 47 25 l 1
 49 25 l 1
 49 27 l 1
55 27 m 1
 53 27 l 1
 53 25 l 1
 55 25 l 1
 55 27 l 1
58 27 m 1
 56 27 l 1
 56 25 l 1
 57 25 l 1
 57 26 l 1
 58 26 l 1
 58 27 l 1
59 26 m 1
 58 26 l 1
 58 25 l 1
 60 25 l 1
 60 27 l 1
 59 27 l 1
 59 26 l 1
63 27 m 1
 61 27 l 1
 61 25 l 1
 63 25 l 1
 63 27 l 1
EndSplineSet
EndChar

StartChar: custom_4_0_0_8_7
Encoding: 32055 32055 12087
Width: 70
Flags: H
LayerCount: 2
Fore
SplineSet
23 43 m 1
 21 43 l 1
 21 41 l 1
 23 41 l 1
 23 43 l 1
26 43 m 1
 24 43 l 1
 24 41 l 1
 25 41 l 1
 25 42 l 1
 26 42 l 1
 26 43 l 1
27 42 m 1
 26 42 l 1
 26 41 l 1
 28 41 l 1
 28 43 l 1
 27 43 l 1
 27 42 l 1
31 43 m 1
 29 43 l 1
 29 41 l 1
 31 41 l 1
 31 43 l 1
31 39 m 1
 29 39 l 1
 29 37 l 1
 31 37 l 1
 31 39 l 1
36 37 m 1
 34 37 l 1
 34 35 l 1
 36 35 l 1
 36 37 l 1
31 35 m 1
 29 35 l 1
 29 33 l 1
 31 33 l 1
 31 35 l 1
36 33 m 1
 34 33 l 1
 34 31 l 1
 36 31 l 1
 36 33 l 1
31 31 m 1
 29 31 l 1
 29 29 l 1
 31 29 l 1
 31 31 l 1
41 43 m 1
 39 43 l 1
 39 41 l 1
 41 41 l 1
 41 43 l 1
41 39 m 1
 39 39 l 1
 39 37 l 1
 41 37 l 1
 41 39 l 1
49 43 m 1
 47 43 l 1
 47 41 l 1
 49 41 l 1
 49 43 l 1
49 39 m 1
 47 39 l 1
 47 37 l 1
 49 37 l 1
 49 39 l 1
41 35 m 1
 39 35 l 1
 39 33 l 1
 41 33 l 1
 41 35 l 1
43 35 m 1
 42 35 l 1
 42 33 l 1
 44 33 l 1
 44 34 l 1
 43 34 l 1
 43 35 l 1
46 35 m 1
 44 35 l 1
 44 34 l 1
 45 34 l 1
 45 33 l 1
 46 33 l 1
 46 35 l 1
49 35 m 1
 47 35 l 1
 47 33 l 1
 49 33 l 1
 49 35 l 1
49 31 m 1
 47 31 l 1
 47 29 l 1
 49 29 l 1
 49 31 l 1
55 43 m 1
 53 43 l 1
 53 41 l 1
 55 41 l 1
 55 43 l 1
58 43 m 1
 56 43 l 1
 56 41 l 1
 57 41 l 1
 57 42 l 1
 58 42 l 1
 58 43 l 1
59 42 m 1
 58 42 l 1
 58 41 l 1
 60 41 l 1
 60 43 l 1
 59 43 l 1
 59 42 l 1
55 39 m 1
 53 39 l 1
 53 37 l 1
 55 37 l 1
 55 39 l 1
63 43 m 1
 61 43 l 1
 61 41 l 1
 63 41 l 1
 63 43 l 1
63 39 m 1
 61 39 l 1
 61 37 l 1
 63 37 l 1
 63 39 l 1
55 35 m 1
 53 35 l 1
 53 33 l 1
 55 33 l 1
 55 35 l 1
55 31 m 1
 53 31 l 1
 53 29 l 1
 55 29 l 1
 55 31 l 1
63 35 m 1
 61 35 l 1
 61 33 l 1
 63 33 l 1
 63 35 l 1
63 31 m 1
 61 31 l 1
 61 29 l 1
 63 29 l 1
 63 31 l 1
31 27 m 1
 29 27 l 1
 29 25 l 1
 31 25 l 1
 31 27 l 1
49 27 m 1
 47 27 l 1
 47 25 l 1
 49 25 l 1
 49 27 l 1
55 27 m 1
 53 27 l 1
 53 25 l 1
 55 25 l 1
 55 27 l 1
58 27 m 1
 56 27 l 1
 56 25 l 1
 57 25 l 1
 57 26 l 1
 58 26 l 1
 58 27 l 1
59 26 m 1
 58 26 l 1
 58 25 l 1
 60 25 l 1
 60 27 l 1
 59 27 l 1
 59 26 l 1
63 27 m 1
 61 27 l 1
 61 25 l 1
 63 25 l 1
 63 27 l 1
EndSplineSet
EndChar

StartChar: custom_4_0_0_8_8
Encoding: 32056 32056 12088
Width: 70
Flags: H
LayerCount: 2
Fore
SplineSet
23 43 m 1
 21 43 l 1
 21 41 l 1
 23 41 l 1
 23 43 l 1
26 43 m 1
 24 43 l 1
 24 41 l 1
 25 41 l 1
 25 42 l 1
 26 42 l 1
 26 43 l 1
27 42 m 1
 26 42 l 1
 26 41 l 1
 28 41 l 1
 28 43 l 1
 27 43 l 1
 27 42 l 1
31 43 m 1
 29 43 l 1
 29 41 l 1
 31 41 l 1
 31 43 l 1
31 39 m 1
 29 39 l 1
 29 37 l 1
 31 37 l 1
 31 39 l 1
36 37 m 1
 34 37 l 1
 34 35 l 1
 36 35 l 1
 36 37 l 1
31 35 m 1
 29 35 l 1
 29 33 l 1
 31 33 l 1
 31 35 l 1
36 33 m 1
 34 33 l 1
 34 31 l 1
 36 31 l 1
 36 33 l 1
31 31 m 1
 29 31 l 1
 29 29 l 1
 31 29 l 1
 31 31 l 1
41 43 m 1
 39 43 l 1
 39 41 l 1
 41 41 l 1
 41 43 l 1
41 39 m 1
 39 39 l 1
 39 37 l 1
 41 37 l 1
 41 39 l 1
49 43 m 1
 47 43 l 1
 47 41 l 1
 49 41 l 1
 49 43 l 1
49 39 m 1
 47 39 l 1
 47 37 l 1
 49 37 l 1
 49 39 l 1
41 35 m 1
 39 35 l 1
 39 33 l 1
 41 33 l 1
 41 35 l 1
43 35 m 1
 42 35 l 1
 42 33 l 1
 44 33 l 1
 44 34 l 1
 43 34 l 1
 43 35 l 1
46 35 m 1
 44 35 l 1
 44 34 l 1
 45 34 l 1
 45 33 l 1
 46 33 l 1
 46 35 l 1
49 35 m 1
 47 35 l 1
 47 33 l 1
 49 33 l 1
 49 35 l 1
49 31 m 1
 47 31 l 1
 47 29 l 1
 49 29 l 1
 49 31 l 1
55 43 m 1
 53 43 l 1
 53 41 l 1
 55 41 l 1
 55 43 l 1
58 43 m 1
 56 43 l 1
 56 41 l 1
 57 41 l 1
 57 42 l 1
 58 42 l 1
 58 43 l 1
59 42 m 1
 58 42 l 1
 58 41 l 1
 60 41 l 1
 60 43 l 1
 59 43 l 1
 59 42 l 1
55 39 m 1
 53 39 l 1
 53 37 l 1
 55 37 l 1
 55 39 l 1
63 43 m 1
 61 43 l 1
 61 41 l 1
 63 41 l 1
 63 43 l 1
63 39 m 1
 61 39 l 1
 61 37 l 1
 63 37 l 1
 63 39 l 1
55 35 m 1
 53 35 l 1
 53 33 l 1
 55 33 l 1
 55 35 l 1
55 31 m 1
 53 31 l 1
 53 29 l 1
 55 29 l 1
 55 31 l 1
63 35 m 1
 61 35 l 1
 61 33 l 1
 63 33 l 1
 63 35 l 1
63 31 m 1
 61 31 l 1
 61 29 l 1
 63 29 l 1
 63 31 l 1
31 27 m 1
 29 27 l 1
 29 25 l 1
 31 25 l 1
 31 27 l 1
49 27 m 1
 47 27 l 1
 47 25 l 1
 49 25 l 1
 49 27 l 1
55 27 m 1
 53 27 l 1
 53 25 l 1
 55 25 l 1
 55 27 l 1
58 27 m 1
 56 27 l 1
 56 25 l 1
 57 25 l 1
 57 26 l 1
 58 26 l 1
 58 27 l 1
59 26 m 1
 58 26 l 1
 58 25 l 1
 60 25 l 1
 60 27 l 1
 59 27 l 1
 59 26 l 1
63 27 m 1
 61 27 l 1
 61 25 l 1
 63 25 l 1
 63 27 l 1
EndSplineSet
EndChar

StartChar: custom_4_0_0_8_9
Encoding: 32057 32057 12089
Width: 70
Flags: H
LayerCount: 2
Fore
SplineSet
23 43 m 1
 21 43 l 1
 21 41 l 1
 23 41 l 1
 23 43 l 1
26 43 m 1
 24 43 l 1
 24 41 l 1
 25 41 l 1
 25 42 l 1
 26 42 l 1
 26 43 l 1
27 42 m 1
 26 42 l 1
 26 41 l 1
 28 41 l 1
 28 43 l 1
 27 43 l 1
 27 42 l 1
31 43 m 1
 29 43 l 1
 29 41 l 1
 31 41 l 1
 31 43 l 1
31 39 m 1
 29 39 l 1
 29 37 l 1
 31 37 l 1
 31 39 l 1
36 37 m 1
 34 37 l 1
 34 35 l 1
 36 35 l 1
 36 37 l 1
31 35 m 1
 29 35 l 1
 29 33 l 1
 31 33 l 1
 31 35 l 1
36 33 m 1
 34 33 l 1
 34 31 l 1
 36 31 l 1
 36 33 l 1
31 31 m 1
 29 31 l 1
 29 29 l 1
 31 29 l 1
 31 31 l 1
41 43 m 1
 39 43 l 1
 39 41 l 1
 41 41 l 1
 41 43 l 1
41 39 m 1
 39 39 l 1
 39 37 l 1
 41 37 l 1
 41 39 l 1
49 43 m 1
 47 43 l 1
 47 41 l 1
 49 41 l 1
 49 43 l 1
49 39 m 1
 47 39 l 1
 47 37 l 1
 49 37 l 1
 49 39 l 1
41 35 m 1
 39 35 l 1
 39 33 l 1
 41 33 l 1
 41 35 l 1
43 35 m 1
 42 35 l 1
 42 33 l 1
 44 33 l 1
 44 34 l 1
 43 34 l 1
 43 35 l 1
46 35 m 1
 44 35 l 1
 44 34 l 1
 45 34 l 1
 45 33 l 1
 46 33 l 1
 46 35 l 1
49 35 m 1
 47 35 l 1
 47 33 l 1
 49 33 l 1
 49 35 l 1
49 31 m 1
 47 31 l 1
 47 29 l 1
 49 29 l 1
 49 31 l 1
55 43 m 1
 53 43 l 1
 53 41 l 1
 55 41 l 1
 55 43 l 1
58 43 m 1
 56 43 l 1
 56 41 l 1
 57 41 l 1
 57 42 l 1
 58 42 l 1
 58 43 l 1
59 42 m 1
 58 42 l 1
 58 41 l 1
 60 41 l 1
 60 43 l 1
 59 43 l 1
 59 42 l 1
55 39 m 1
 53 39 l 1
 53 37 l 1
 55 37 l 1
 55 39 l 1
63 43 m 1
 61 43 l 1
 61 41 l 1
 63 41 l 1
 63 43 l 1
63 39 m 1
 61 39 l 1
 61 37 l 1
 63 37 l 1
 63 39 l 1
55 35 m 1
 53 35 l 1
 53 33 l 1
 55 33 l 1
 55 35 l 1
55 31 m 1
 53 31 l 1
 53 29 l 1
 55 29 l 1
 55 31 l 1
63 35 m 1
 61 35 l 1
 61 33 l 1
 63 33 l 1
 63 35 l 1
63 31 m 1
 61 31 l 1
 61 29 l 1
 63 29 l 1
 63 31 l 1
31 27 m 1
 29 27 l 1
 29 25 l 1
 31 25 l 1
 31 27 l 1
49 27 m 1
 47 27 l 1
 47 25 l 1
 49 25 l 1
 49 27 l 1
55 27 m 1
 53 27 l 1
 53 25 l 1
 55 25 l 1
 55 27 l 1
58 27 m 1
 56 27 l 1
 56 25 l 1
 57 25 l 1
 57 26 l 1
 58 26 l 1
 58 27 l 1
59 26 m 1
 58 26 l 1
 58 25 l 1
 60 25 l 1
 60 27 l 1
 59 27 l 1
 59 26 l 1
63 27 m 1
 61 27 l 1
 61 25 l 1
 63 25 l 1
 63 27 l 1
EndSplineSet
EndChar

StartChar: custom_4_0_0_9_0
Encoding: 32058 32058 12090
Width: 70
Flags: H
LayerCount: 2
Fore
SplineSet
23 43 m 1
 21 43 l 1
 21 41 l 1
 23 41 l 1
 23 43 l 1
26 43 m 1
 24 43 l 1
 24 41 l 1
 25 41 l 1
 25 42 l 1
 26 42 l 1
 26 43 l 1
27 42 m 1
 26 42 l 1
 26 41 l 1
 28 41 l 1
 28 43 l 1
 27 43 l 1
 27 42 l 1
31 43 m 1
 29 43 l 1
 29 41 l 1
 31 41 l 1
 31 43 l 1
31 39 m 1
 29 39 l 1
 29 37 l 1
 31 37 l 1
 31 39 l 1
36 37 m 1
 34 37 l 1
 34 35 l 1
 36 35 l 1
 36 37 l 1
31 35 m 1
 29 35 l 1
 29 33 l 1
 31 33 l 1
 31 35 l 1
36 33 m 1
 34 33 l 1
 34 31 l 1
 36 31 l 1
 36 33 l 1
31 31 m 1
 29 31 l 1
 29 29 l 1
 31 29 l 1
 31 31 l 1
41 43 m 1
 39 43 l 1
 39 41 l 1
 41 41 l 1
 41 43 l 1
41 39 m 1
 39 39 l 1
 39 37 l 1
 41 37 l 1
 41 39 l 1
49 43 m 1
 47 43 l 1
 47 41 l 1
 49 41 l 1
 49 43 l 1
49 39 m 1
 47 39 l 1
 47 37 l 1
 49 37 l 1
 49 39 l 1
41 35 m 1
 39 35 l 1
 39 33 l 1
 41 33 l 1
 41 35 l 1
43 35 m 1
 42 35 l 1
 42 33 l 1
 44 33 l 1
 44 34 l 1
 43 34 l 1
 43 35 l 1
46 35 m 1
 44 35 l 1
 44 34 l 1
 45 34 l 1
 45 33 l 1
 46 33 l 1
 46 35 l 1
49 35 m 1
 47 35 l 1
 47 33 l 1
 49 33 l 1
 49 35 l 1
49 31 m 1
 47 31 l 1
 47 29 l 1
 49 29 l 1
 49 31 l 1
55 43 m 1
 53 43 l 1
 53 41 l 1
 55 41 l 1
 55 43 l 1
58 43 m 1
 56 43 l 1
 56 41 l 1
 57 41 l 1
 57 42 l 1
 58 42 l 1
 58 43 l 1
59 42 m 1
 58 42 l 1
 58 41 l 1
 60 41 l 1
 60 43 l 1
 59 43 l 1
 59 42 l 1
55 39 m 1
 53 39 l 1
 53 37 l 1
 55 37 l 1
 55 39 l 1
63 43 m 1
 61 43 l 1
 61 41 l 1
 63 41 l 1
 63 43 l 1
63 39 m 1
 61 39 l 1
 61 37 l 1
 63 37 l 1
 63 39 l 1
55 35 m 1
 53 35 l 1
 53 33 l 1
 55 33 l 1
 55 35 l 1
55 31 m 1
 53 31 l 1
 53 29 l 1
 55 29 l 1
 55 31 l 1
63 35 m 1
 61 35 l 1
 61 33 l 1
 63 33 l 1
 63 35 l 1
63 31 m 1
 61 31 l 1
 61 29 l 1
 63 29 l 1
 63 31 l 1
31 27 m 1
 29 27 l 1
 29 25 l 1
 31 25 l 1
 31 27 l 1
49 27 m 1
 47 27 l 1
 47 25 l 1
 49 25 l 1
 49 27 l 1
55 27 m 1
 53 27 l 1
 53 25 l 1
 55 25 l 1
 55 27 l 1
58 27 m 1
 56 27 l 1
 56 25 l 1
 57 25 l 1
 57 26 l 1
 58 26 l 1
 58 27 l 1
59 26 m 1
 58 26 l 1
 58 25 l 1
 60 25 l 1
 60 27 l 1
 59 27 l 1
 59 26 l 1
63 27 m 1
 61 27 l 1
 61 25 l 1
 63 25 l 1
 63 27 l 1
EndSplineSet
EndChar

StartChar: custom_4_0_0_9_1
Encoding: 32059 32059 12091
Width: 70
Flags: H
LayerCount: 2
Fore
SplineSet
23 43 m 1
 21 43 l 1
 21 41 l 1
 23 41 l 1
 23 43 l 1
26 43 m 1
 24 43 l 1
 24 41 l 1
 25 41 l 1
 25 42 l 1
 26 42 l 1
 26 43 l 1
27 42 m 1
 26 42 l 1
 26 41 l 1
 28 41 l 1
 28 43 l 1
 27 43 l 1
 27 42 l 1
31 43 m 1
 29 43 l 1
 29 41 l 1
 31 41 l 1
 31 43 l 1
31 39 m 1
 29 39 l 1
 29 37 l 1
 31 37 l 1
 31 39 l 1
36 37 m 1
 34 37 l 1
 34 35 l 1
 36 35 l 1
 36 37 l 1
31 35 m 1
 29 35 l 1
 29 33 l 1
 31 33 l 1
 31 35 l 1
36 33 m 1
 34 33 l 1
 34 31 l 1
 36 31 l 1
 36 33 l 1
31 31 m 1
 29 31 l 1
 29 29 l 1
 31 29 l 1
 31 31 l 1
41 43 m 1
 39 43 l 1
 39 41 l 1
 41 41 l 1
 41 43 l 1
41 39 m 1
 39 39 l 1
 39 37 l 1
 41 37 l 1
 41 39 l 1
49 43 m 1
 47 43 l 1
 47 41 l 1
 49 41 l 1
 49 43 l 1
49 39 m 1
 47 39 l 1
 47 37 l 1
 49 37 l 1
 49 39 l 1
41 35 m 1
 39 35 l 1
 39 33 l 1
 41 33 l 1
 41 35 l 1
43 35 m 1
 42 35 l 1
 42 33 l 1
 44 33 l 1
 44 34 l 1
 43 34 l 1
 43 35 l 1
46 35 m 1
 44 35 l 1
 44 34 l 1
 45 34 l 1
 45 33 l 1
 46 33 l 1
 46 35 l 1
49 35 m 1
 47 35 l 1
 47 33 l 1
 49 33 l 1
 49 35 l 1
49 31 m 1
 47 31 l 1
 47 29 l 1
 49 29 l 1
 49 31 l 1
55 43 m 1
 53 43 l 1
 53 41 l 1
 55 41 l 1
 55 43 l 1
58 43 m 1
 56 43 l 1
 56 41 l 1
 57 41 l 1
 57 42 l 1
 58 42 l 1
 58 43 l 1
59 42 m 1
 58 42 l 1
 58 41 l 1
 60 41 l 1
 60 43 l 1
 59 43 l 1
 59 42 l 1
55 39 m 1
 53 39 l 1
 53 37 l 1
 55 37 l 1
 55 39 l 1
63 43 m 1
 61 43 l 1
 61 41 l 1
 63 41 l 1
 63 43 l 1
63 39 m 1
 61 39 l 1
 61 37 l 1
 63 37 l 1
 63 39 l 1
55 35 m 1
 53 35 l 1
 53 33 l 1
 55 33 l 1
 55 35 l 1
55 31 m 1
 53 31 l 1
 53 29 l 1
 55 29 l 1
 55 31 l 1
63 35 m 1
 61 35 l 1
 61 33 l 1
 63 33 l 1
 63 35 l 1
63 31 m 1
 61 31 l 1
 61 29 l 1
 63 29 l 1
 63 31 l 1
31 27 m 1
 29 27 l 1
 29 25 l 1
 31 25 l 1
 31 27 l 1
4 -1 m 1
 3 -1 l 1
 3 -2 l 1
 4 -2 l 1
 4 -1 l 1
49 27 m 1
 47 27 l 1
 47 25 l 1
 49 25 l 1
 49 27 l 1
55 27 m 1
 53 27 l 1
 53 25 l 1
 55 25 l 1
 55 27 l 1
58 27 m 1
 56 27 l 1
 56 25 l 1
 57 25 l 1
 57 26 l 1
 58 26 l 1
 58 27 l 1
59 26 m 1
 58 26 l 1
 58 25 l 1
 60 25 l 1
 60 27 l 1
 59 27 l 1
 59 26 l 1
63 27 m 1
 61 27 l 1
 61 25 l 1
 63 25 l 1
 63 27 l 1
EndSplineSet
EndChar

StartChar: custom_4_0_0_9_2
Encoding: 32060 32060 12092
Width: 70
Flags: H
LayerCount: 2
Fore
SplineSet
23 43 m 1
 21 43 l 1
 21 41 l 1
 23 41 l 1
 23 43 l 1
26 43 m 1
 24 43 l 1
 24 41 l 1
 25 41 l 1
 25 42 l 1
 26 42 l 1
 26 43 l 1
27 42 m 1
 26 42 l 1
 26 41 l 1
 28 41 l 1
 28 43 l 1
 27 43 l 1
 27 42 l 1
31 43 m 1
 29 43 l 1
 29 41 l 1
 31 41 l 1
 31 43 l 1
31 39 m 1
 29 39 l 1
 29 37 l 1
 31 37 l 1
 31 39 l 1
36 37 m 1
 34 37 l 1
 34 35 l 1
 36 35 l 1
 36 37 l 1
31 35 m 1
 29 35 l 1
 29 33 l 1
 31 33 l 1
 31 35 l 1
36 33 m 1
 34 33 l 1
 34 31 l 1
 36 31 l 1
 36 33 l 1
31 31 m 1
 29 31 l 1
 29 29 l 1
 31 29 l 1
 31 31 l 1
41 43 m 1
 39 43 l 1
 39 41 l 1
 41 41 l 1
 41 43 l 1
41 39 m 1
 39 39 l 1
 39 37 l 1
 41 37 l 1
 41 39 l 1
49 43 m 1
 47 43 l 1
 47 41 l 1
 49 41 l 1
 49 43 l 1
49 39 m 1
 47 39 l 1
 47 37 l 1
 49 37 l 1
 49 39 l 1
41 35 m 1
 39 35 l 1
 39 33 l 1
 41 33 l 1
 41 35 l 1
43 35 m 1
 42 35 l 1
 42 33 l 1
 44 33 l 1
 44 34 l 1
 43 34 l 1
 43 35 l 1
46 35 m 1
 44 35 l 1
 44 34 l 1
 45 34 l 1
 45 33 l 1
 46 33 l 1
 46 35 l 1
49 35 m 1
 47 35 l 1
 47 33 l 1
 49 33 l 1
 49 35 l 1
49 31 m 1
 47 31 l 1
 47 29 l 1
 49 29 l 1
 49 31 l 1
55 43 m 1
 53 43 l 1
 53 41 l 1
 55 41 l 1
 55 43 l 1
58 43 m 1
 56 43 l 1
 56 41 l 1
 57 41 l 1
 57 42 l 1
 58 42 l 1
 58 43 l 1
59 42 m 1
 58 42 l 1
 58 41 l 1
 60 41 l 1
 60 43 l 1
 59 43 l 1
 59 42 l 1
55 39 m 1
 53 39 l 1
 53 37 l 1
 55 37 l 1
 55 39 l 1
63 43 m 1
 61 43 l 1
 61 41 l 1
 63 41 l 1
 63 43 l 1
63 39 m 1
 61 39 l 1
 61 37 l 1
 63 37 l 1
 63 39 l 1
55 35 m 1
 53 35 l 1
 53 33 l 1
 55 33 l 1
 55 35 l 1
55 31 m 1
 53 31 l 1
 53 29 l 1
 55 29 l 1
 55 31 l 1
63 35 m 1
 61 35 l 1
 61 33 l 1
 63 33 l 1
 63 35 l 1
63 31 m 1
 61 31 l 1
 61 29 l 1
 63 29 l 1
 63 31 l 1
31 27 m 1
 29 27 l 1
 29 25 l 1
 31 25 l 1
 31 27 l 1
5 -1 m 1
 3 -1 l 1
 3 -2 l 1
 5 -2 l 1
 5 -1 l 1
49 27 m 1
 47 27 l 1
 47 25 l 1
 49 25 l 1
 49 27 l 1
55 27 m 1
 53 27 l 1
 53 25 l 1
 55 25 l 1
 55 27 l 1
58 27 m 1
 56 27 l 1
 56 25 l 1
 57 25 l 1
 57 26 l 1
 58 26 l 1
 58 27 l 1
59 26 m 1
 58 26 l 1
 58 25 l 1
 60 25 l 1
 60 27 l 1
 59 27 l 1
 59 26 l 1
63 27 m 1
 61 27 l 1
 61 25 l 1
 63 25 l 1
 63 27 l 1
EndSplineSet
EndChar

